<?xml version="1.0" encoding="UTF-8" standalone="no"?>
<svg
   xmlns:dc="http://purl.org/dc/elements/1.1/"
   xmlns:cc="http://creativecommons.org/ns#"
   xmlns:rdf="http://www.w3.org/1999/02/22-rdf-syntax-ns#"
   xmlns:svg="http://www.w3.org/2000/svg"
   xmlns="http://www.w3.org/2000/svg"
   xmlns:sodipodi="http://sodipodi.sourceforge.net/DTD/sodipodi-0.dtd"
   xmlns:inkscape="http://www.inkscape.org/namespaces/inkscape"
   version="1.1"
   id="layer"
   x="0px"
   y="0px"
   viewBox="0 0 599.90143 124.8"
   xml:space="preserve"
   sodipodi:docname="archilovers_small.svg"
   width="599.90143"
   height="124.8"
   inkscape:version="1.0.2-2 (e86c870879, 2021-01-15)"><metadata
   id="metadata37"><rdf:RDF><cc:Work
       rdf:about=""><dc:format>image/svg+xml</dc:format><dc:type
         rdf:resource="http://purl.org/dc/dcmitype/StillImage" /><dc:title></dc:title></cc:Work></rdf:RDF></metadata><defs
   id="defs35" /><sodipodi:namedview
   pagecolor="#ffffff"
   bordercolor="#666666"
   borderopacity="1"
   objecttolerance="10"
   gridtolerance="10"
   guidetolerance="10"
   inkscape:pageopacity="0"
   inkscape:pageshadow="2"
   inkscape:window-width="1366"
   inkscape:window-height="705"
   id="namedview33"
   showgrid="false"
   inkscape:zoom="0.82515337"
   inkscape:cx="305.8"
   inkscape:cy="163.55167"
   inkscape:window-x="-8"
   inkscape:window-y="-8"
   inkscape:window-maximized="1"
   inkscape:current-layer="layer" />
<style
   type="text/css"
   id="style2">
	.st0{fill:#D7006D;}
</style>
<g
   id="g30"
   transform="translate(-20.2,-259.4)">
	<path
   d="M 80.3,382.6 H 64.5 l -1.4,-5.2 c -6.9,4.6 -15.2,6.8 -22.9,6.8 -14,0 -20,-9.6 -20,-22.9 0,-15.6 6.8,-21.6 22.4,-21.6 H 61 v -8 c 0,-8.5 -2.4,-11.5 -14.7,-11.5 -6.9,0 -14.5,0.9 -21.3,2.4 v -14.7 c 7.3,-2.2 15.5,-3.6 24,-3.6 24.1,0 31.2,8.5 31.2,27.8 v 50.5 z M 61,353.6 H 46.8 c -6.3,0 -8,1.7 -8,7.6 0,5.4 1.7,7.7 7.7,7.7 5.7,0 10.9,-1.9 14.5,-3.9 z"
   id="path4" />
	<path
   d="m 127.9,354.7 v -21 c 0,-20.7 9,-29.5 33.1,-29.5 5.4,0 10.7,0.4 16.4,2.3 v 16.3 c -5.2,-1.4 -12.2,-2.1 -15.9,-2.1 -11,0 -14.4,3.3 -14.4,12.8 v 21.3 c 0,9.5 3.3,12.8 14.4,12.8 4.9,0 10.4,-0.6 15.9,-2.1 v 16.3 c -5.1,1.7 -10.1,2.3 -16.4,2.3 -24.1,0.1 -33.1,-8.8 -33.1,-29.4"
   id="path6" />
	<path
   d="m 228.9,382.6 v -53.7 c 0,-4.1 -1.7,-6.2 -6.2,-6.2 -4.7,0 -13.1,2.8 -20,6.5 v 53.3 h -19.3 v -101 l 19.3,-9.9 v 39.9 c 8.5,-4.4 19.9,-7.4 28.1,-7.4 12.8,0 17.4,9 17.4,22.7 v 55.7 h -19.3 z"
   id="path8" />
	<polygon
   points="254.2,382.6 254.2,298 273.5,286.5 273.5,382.6 "
   id="polygon10" />
	<polygon
   points="279.9,382.6 279.9,282.8 299.1,271.2 299.1,382.6 "
   id="polygon12" />
	<path
   d="m 339.1,384.2 c -26.3,0 -33.5,-14.5 -33.5,-30.3 v -19.4 c 0,-15.8 7.1,-30.3 33.5,-30.3 26.4,0 33.5,14.5 33.5,30.3 v 19.4 c 0,15.8 -7.1,30.3 -33.5,30.3 m 0,-63.6 c -10.3,0 -14.2,4.6 -14.2,13.3 v 20.7 c 0,8.7 3.9,13.3 14.2,13.3 10.3,0 14.2,-4.6 14.2,-13.3 v -20.7 c 0,-8.7 -3.9,-13.3 -14.2,-13.3"
   id="path14" />
	<polygon
   points="408.7,364.1 426.4,305.7 442.4,315.4 421.5,382.6 396.1,382.6 375.2,315.4 391.2,305.7 "
   id="polygon16" />
	<path
   d="m 478.5,368.4 c 7.4,0 15.2,-1.1 23.5,-3.6 v 14.5 c -8.7,3.3 -16.1,4.9 -25.3,4.9 -24.1,0 -32.5,-11.2 -32.5,-29.7 v -20.3 c 0,-16.3 7.3,-30 31.9,-30 24.6,0 30.1,14.4 30.1,30.9 v 16.4 h -42.8 v 4 c 0.1,9.3 3.5,12.9 15.1,12.9 M 463.5,336 H 488 v -3.8 c 0,-7.3 -2.2,-12.3 -11.7,-12.3 -9.5,0 -12.8,5 -12.8,12.3 z"
   id="path18" />
	<path
   d="m 550.3,321.8 c -7.4,3.3 -11.5,5.3 -18.5,9.8 v 51 H 512.5 V 315.7 L 530,305.1 v 9.2 c 4.3,-2.8 13.4,-8.2 20.2,-10.1 v 17.6 z"
   id="path20" />
	<path
   d="m 581.2,384.2 c -8.2,0 -16.7,-0.4 -23.8,-3 v -16.1 c 6.5,1.9 15,3.3 22.9,3.3 8.5,0 9.8,-1.9 9.8,-7.7 0,-4.7 -0.9,-7.1 -13.4,-10.1 -18.8,-4.6 -21,-9.3 -21,-24.1 0,-15.5 6.8,-22.2 28.7,-22.2 7.1,0 14.5,0.9 21.1,2.7 v 15.3 c -5.8,-1.1 -15.1,-2.2 -21.1,-2.2 -8.4,0 -9.8,1.9 -9.8,6.6 0,6.2 0.5,6.6 10.9,9.3 21.5,5.7 23.5,8.5 23.5,24.3 0,14.7 -4.6,23.9 -27.8,23.9"
   id="path22" />
	<path
   d="m 124.1,321.7 c -7.4,3.3 -11.5,5.3 -18.5,9.8 v 51 H 86.3 V 315.6 L 103.8,305 v 9.2 c 4.3,-2.8 13.4,-8.2 20.2,-10.1 v 17.6 z"
   id="path24" />
	<path
   class="st0"
   d="m 262.4,259.4 h -7.2 l -7,5.4 c 0,0 -6.5,-5.4 -7,-5.4 H 234 l -5.8,7.2 v 14.9 l 19.9,18.3 v -6.1 L 268,281.6 v -15 z"
   id="path26" />
	<path
   d="m 608.9,301.9 c -6.2,0 -11.2,-5 -11.2,-11.2 0,-6.2 5,-11.2 11.2,-11.2 6.2,0 11.2,5 11.2,11.2 0.1,6.2 -5,11.2 -11.2,11.2 m 0,-20.8 c -5.2,0 -9.4,4.3 -9.4,9.6 0,5.3 4.2,9.6 9.4,9.6 5.2,0 9.4,-4.3 9.4,-9.6 0.1,-5.3 -4.2,-9.6 -9.4,-9.6 m 2.8,15.7 -2.8,-5 H 607 v 5 h -1.7 v -12.3 h 4.2 c 2.1,0 3.9,1.6 3.9,3.7 0,1.8 -1.1,2.9 -2.6,3.4 l 2.9,5.2 z M 609.3,286 H 607 v 4.3 h 2.3 c 1.4,0 2.3,-0.9 2.3,-2.1 0,-1.2 -0.9,-2.2 -2.3,-2.2"
   id="path28" />
</g>
</svg>
