<?xml version="1.0" encoding="UTF-8" standalone="no"?>
<svg
   xmlns:dc="http://purl.org/dc/elements/1.1/"
   xmlns:cc="http://creativecommons.org/ns#"
   xmlns:rdf="http://www.w3.org/1999/02/22-rdf-syntax-ns#"
   xmlns:svg="http://www.w3.org/2000/svg"
   xmlns="http://www.w3.org/2000/svg"
   xmlns:sodipodi="http://sodipodi.sourceforge.net/DTD/sodipodi-0.dtd"
   xmlns:inkscape="http://www.inkscape.org/namespaces/inkscape"
   version="1.1"
   id="layer"
   x="0px"
   y="0px"
   viewBox="0 0 599.90509 279.11111"
   xml:space="preserve"
   sodipodi:docname="bunnyfree_small.svg"
   width="599.90509"
   height="279.11111"
   inkscape:version="1.0.2-2 (e86c870879, 2021-01-15)"><metadata
   id="metadata119"><rdf:RDF><cc:Work
       rdf:about=""><dc:format>image/svg+xml</dc:format><dc:type
         rdf:resource="http://purl.org/dc/dcmitype/StillImage" /><dc:title></dc:title></cc:Work></rdf:RDF></metadata><defs
   id="defs117" /><sodipodi:namedview
   pagecolor="#ffffff"
   bordercolor="#666666"
   borderopacity="1"
   objecttolerance="10"
   gridtolerance="10"
   guidetolerance="10"
   inkscape:pageopacity="0"
   inkscape:pageshadow="2"
   inkscape:window-width="1366"
   inkscape:window-height="705"
   id="namedview115"
   showgrid="false"
   inkscape:zoom="0.82515337"
   inkscape:cx="305.3051"
   inkscape:cy="144.11111"
   inkscape:window-x="-8"
   inkscape:window-y="-8"
   inkscape:window-maximized="1"
   inkscape:current-layer="layer" />
<style
   type="text/css"
   id="style80">
	.st0{fill:#F5B0CE;}
	.st1{fill:#231F20;}
	.st2{fill:#FD74AE;}
</style>
<g
   id="g112"
   transform="translate(-20.694896,-181.88889)">
	<g
   id="g94">
		<g
   id="g92">
			<g
   id="g86">
				<path
   class="st0"
   d="m 111.6,220.7 c 0.3,-3.4 2.4,-17.1 -2.4,-18.5 -6.7,-2 -16.1,9.4 -19.5,13.4 -17.1,20.5 -26.9,46.7 -33.6,72.2 -5.7,21.2 -10.1,43 -9.7,64.8 0,2 -1,3.4 -2.4,3.4 -0.3,3 -0.3,6 -0.7,8.4 11.1,-30.9 29.5,-63.1 58.8,-101.7 4.8,-13.5 8.2,-27.9 9.5,-42 z"
   id="path82" />
				<path
   class="st0"
   d="m 191.6,197.2 c -0.3,-0.7 -1,-1.3 -2.7,-1.3 -1.7,0 -4.7,0.7 -10.1,3.7 -12.4,7.4 -25.2,18.1 -37.3,31.9 -28.5,32.9 -53,67.2 -72.9,101.7 -5.7,10.1 -10.4,21.5 -14.8,35.9 62.2,-35 113.2,-91 134.4,-148.1 4.4,-11.1 5.7,-20.5 3.4,-23.8 z"
   id="path84" />
			</g>
			<ellipse
   class="st1"
   cx="86.099998"
   cy="401.60001"
   rx="7.6999998"
   ry="8.3999996"
   id="ellipse88" />
			<path
   class="st1"
   d="m 202.6,189.8 c -3.7,-5.4 -11.1,-6.4 -20.8,-2.7 -28.2,11.1 -50.7,37.9 -69.5,62.5 2.7,-10.4 4.7,-21.5 5.4,-31.9 1,-13.8 -3.4,-29.5 -19.5,-19.1 -22.5,14.8 -33.9,45.3 -42.3,69.5 -9.1,26.9 -15.8,56.1 -15.4,84.6 0,4.7 6,5 5.7,0.3 -0.3,-21.8 4.4,-43.6 9.7,-64.8 6.7,-25.5 16.5,-51.7 33.6,-72.2 3.4,-4 12.8,-15.4 19.5,-13.4 4.7,1.3 2.7,15.1 2.4,18.5 -1,13.8 -4.4,28.2 -9.1,41.6 -32.9,44 -52.4,79.2 -62.5,114.2 -5,2.7 -10.4,5 -15.4,7.1 -4,1.7 -3.7,4.7 -3.7,5.4 0.3,2.4 3,4 5.7,4 1,0 2,-0.3 2.7,-0.7 2.4,-1 5,-2 7.4,-3 -1.7,8.1 -3.4,16.1 -4,24.2 -1,8.7 -4,35.6 12.1,42.3 2.4,1.3 5.4,1.7 8.4,1.7 14.8,0 33.2,-12.1 44.3,-23.5 15.8,-16.1 27.2,-40.6 18.1,-60.1 -3,-6 -8.1,-9.4 -14.4,-9.4 -11.1,0 -24.5,8.7 -33.2,17.1 -2,2 -2,4 -1.3,4.7 0.7,1.7 2.7,3 5.4,3 2,0 4,-0.7 5.7,-2 7.4,-7.1 14.8,-11.1 20.1,-11.1 5,0 8.1,3.7 9.1,11.1 2,14.8 -9.1,32.2 -20.8,43 -10.4,9.4 -21.2,15.1 -28.9,15.1 v 0 c -6.4,0 -10.1,-3.7 -11.8,-11.4 -3.4,-15.4 1,-34.9 5.4,-52.4 68.8,-34.6 126.9,-97.4 151.4,-163.2 3.6,-9.6 5.6,-22 0.5,-29 z M 188.5,221 C 167.4,277.7 116,334.1 54.2,369.1 c 4.4,-14.4 9.1,-26.2 14.8,-35.9 19.8,-34.6 44.3,-68.5 72.9,-101.4 12.1,-13.8 24.5,-24.5 37.3,-31.9 5.4,-3 8.4,-3.7 10.1,-3.7 1.7,0 2.4,0.7 2.7,1.3 1.9,3 0.6,12.4 -3.5,23.5 z"
   id="path90" />
		</g>
	</g>
	<g
   id="g104">
		<path
   class="st2"
   d="m 258.4,460.7 h -27.9 v -134 h 76.9 v 23.2 h -49 v 34.6 h 45.3 v 23.2 h -45.3 z"
   id="path96" />
		<path
   class="st2"
   d="m 354.4,409 v 51.7 h -28.5 v -134 h 38.9 c 18.1,0 31.6,3.4 40.3,10.1 8.7,6.7 13.1,16.8 13.1,30.2 0,7.7 -2,14.8 -6.4,21.2 -4.4,6 -10.4,11.1 -18.5,14.4 20.1,30.2 33.2,49.7 39.3,58.4 H 401 L 369.1,409.6 H 354.3 V 409 Z m 0,-22.8 h 9.1 c 9.1,0 15.4,-1.3 19.8,-4.4 4.4,-3 6.4,-7.7 6.4,-14.1 0,-6.4 -2.4,-10.7 -6.7,-13.4 -4.4,-2.7 -11.1,-4 -20.1,-4 h -8.7 v 35.9 z"
   id="path98" />
		<path
   class="st2"
   d="m 519.6,460.7 h -77.2 v -134 h 77.2 v 23.2 h -48.7 v 29.5 h 45.3 v 23.2 h -45.3 v 34.6 h 48.7 z"
   id="path100" />
		<path
   class="st2"
   d="m 617.3,460.7 h -77.2 v -134 h 77.2 v 23.2 h -48.7 v 29.5 h 45.3 v 23.2 h -45.3 v 34.6 h 48.7 z"
   id="path102" />
	</g>
	<g
   id="g110">
		<path
   d="m 306.7,250.5 c -5.7,-5 -14.8,-8.4 -27.2,-10.1 23.2,-5.7 34.9,-16.1 34.9,-31.6 0,-4.4 -1,-8.4 -3,-11.8 -2,-3.4 -4.4,-6 -7.1,-7.7 -2.7,-2 -6.4,-3.4 -10.4,-4.7 -4,-1 -7.7,-2 -11.1,-2.4 -3.4,-0.4 -6.7,-0.3 -10.4,-0.3 -5.7,0 -11.4,0.3 -16.8,1.3 -5.4,1 -9.7,2 -12.8,3 -3,1 -7.4,2.7 -12.4,4.7 0,1 0.7,2.4 2.4,4 1.7,1.6 3,2.4 4,2.4 0.7,0 2,-0.3 3.7,-1.3 1.7,-1 4,-2 7.4,-3.4 3.4,-1.4 6.7,-2.7 10.7,-3.4 -2.7,5.4 -5.7,11.4 -8.7,18.8 -3,7.1 -5.7,14.8 -8.7,22.2 l -7.1,20.1 -5.7,17.8 c -2,6 -3,9.4 -3.4,10.1 l -0.7,2 c -1,3 -1.7,5.7 -1.7,7.7 0,2.7 1.3,4.7 3.7,6.4 2.4,1.7 5,2.7 8.4,2.7 1.7,-5 4.4,-13.8 7.4,-25.5 3.4,-11.8 5.7,-20.8 7.4,-26.9 1.3,0 3,0 5.7,0 2.7,0 4.7,0 6,0 h 0.3 c 27.5,0 41.3,6.7 41.3,19.8 0,9.7 -6.4,18.1 -18.8,25.5 -12.8,7.4 -28.2,11.1 -47,11.1 -3.4,0 -6,-0.3 -8.4,-0.7 -2.4,-0.3 -4,-0.7 -5.4,-1.3 -1,-0.3 -2,-0.7 -2.4,-0.7 -1.3,0 -1.7,0.7 -1.7,1.7 0,9.4 7.1,14.1 20.5,14.1 7.1,0 14.8,-1 23.2,-3 8.4,-2 16.5,-5 24.2,-8.7 7.7,-3.7 14.4,-8.7 19.5,-15.1 5.4,-6.4 7.7,-13.1 7.7,-20.8 1.2,-5.2 -1.8,-10.9 -7.5,-16 z m -55.4,-11.7 c 6.4,-21.8 12.8,-38.9 19.1,-51 20.8,0 31.2,6.7 31.2,19.8 0,5.4 -1.3,10.1 -4.4,14.1 -2.7,4 -6.7,7.1 -11.8,9.4 -5.1,2.3 -10.4,4 -15.8,5.4 -5.5,1.3 -11.9,2.3 -18.3,2.3 z"
   id="path106" />
		<path
   d="m 620.6,273.7 c -5,13.4 -14.1,22.8 -26.5,27.9 3.4,-8.7 6,-17.8 8.7,-27.2 2.4,-9.4 3.7,-15.4 4,-18.1 -3,-0.3 -4.7,-0.7 -5.4,-0.7 -2.4,0 -4,0.7 -5.7,2.4 -1.7,1.3 -2.7,3 -3,4.7 -0.3,1.7 -1,3.4 -1.3,5.7 -0.3,2.4 -0.7,3.4 -0.7,3.7 -8.4,13.4 -15.8,20.1 -21.8,20.1 v 0 c -3,0 -4.7,-2 -4.7,-6 0,-4 1.3,-9.1 3.7,-15.8 2.4,-6.7 4.7,-11.4 6.7,-14.4 -0.3,-1.3 -1.7,-2.7 -4,-3.7 -2.3,-1 -3.7,-1.7 -5,-1.7 -2.7,0 -6,4.4 -9.7,13.4 -2.4,6 -4,11.4 -5,15.8 -2.4,4 -5,7.7 -7.7,10.7 -4.4,5 -8.1,7.4 -11.8,7.4 -2.7,0 -4,-1.7 -4,-4.7 0,-2.4 1,-6 3.4,-11.4 2.4,-5.4 3.4,-9.7 3.4,-13.4 0,-4 -1.3,-7.7 -3.7,-10.7 -2.4,-3 -6,-4.4 -10.4,-4.4 -9.7,0 -20.1,7.4 -31.6,22.2 1.7,-6.7 2.7,-11.8 2.7,-14.8 0,-3.4 -2,-4.7 -5.7,-4.7 -3.4,0 -6,1.3 -8.4,4 0,4 -1,9.4 -2.7,15.4 -0.3,1 -0.7,1.7 -0.7,2.4 -2.7,4.7 -5.7,9.1 -8.7,12.8 -4.4,5 -8.1,7.4 -11.8,7.4 -2.7,0 -4,-1.7 -4,-4.7 0,-2.4 1,-6 3.4,-11.4 2.4,-5.4 3.4,-9.7 3.4,-13.4 0,-4 -1.3,-7.7 -3.7,-10.7 -2.4,-3 -6,-4.4 -10.4,-4.4 -9.7,0 -20.1,7.4 -31.6,22.2 1.7,-6.7 2.7,-11.8 2.7,-14.8 0,-3.4 -2,-4.7 -5.7,-4.7 -3.4,0 -6,1.3 -8.4,4 0,4 -1,9.4 -2.7,15.4 -0.3,1 -0.7,2 -1,3 -3.4,5.4 -6.7,10.1 -11.1,13.8 -5.4,5 -9.7,7.4 -13.4,7.4 h -0.3 c -3,0 -4.4,-2 -4.4,-5.7 0,-3 0.7,-7.1 2.4,-12.4 1.7,-5 3,-9.7 4.7,-13.4 1.7,-4 2.4,-6 2.4,-6.4 0,-2.7 -3,-4.4 -9.1,-5.7 -2.4,5.4 -5,11.1 -8.1,16.5 -3,5.7 -6.4,11.1 -10.7,16.8 -4.4,5.4 -7.7,8.1 -10.7,8.1 -3.4,0 -5,-3.4 -5,-10.1 0,-4.7 1.3,-10.1 3.7,-16.5 2.4,-6.4 5,-11.4 7.1,-14.8 -3,-3 -5.4,-4.4 -7.7,-4.4 -2.7,0 -6,4.7 -9.7,13.8 -3.7,9.1 -5.4,17.1 -5.4,23.2 0,4.7 1.3,8.7 3.7,12.1 2.4,3.4 5.4,5 9.1,5 2.7,0 5,-1 8.1,-3 2.7,-2 5,-4.4 6.7,-6.4 1.7,-2.4 4,-5.4 6.4,-9.1 0,2 0,3.7 0,5 0,1.3 0.3,3 0.7,4.7 0.3,2 1,3.4 1.7,4.4 0.7,1 2,2 3.4,3 1.3,0.7 3.4,1.3 5.4,1.3 6,0 12.8,-3 19.1,-9.1 2,-1.7 3.7,-3.7 5.4,-5.7 v 0 c -2,4.7 -3,7.4 -3,7.4 2.4,3.4 6,4.7 10.7,4.7 l 7.7,-12.4 c 2,-3 4.7,-7.1 8.4,-11.8 3.7,-4.7 7.4,-8.4 10.7,-11.1 3.4,-2.4 6.7,-3.7 9.7,-3.7 4,0 5.7,2 5.7,6.4 0,2.4 -0.7,6 -2.4,11.1 -1.7,5.1 -2.4,8.7 -2.4,10.7 0,3.4 1,6 3.4,8.4 2.4,2 5.7,3 9.7,3 6.4,0 12.4,-3.4 18.1,-10.1 -1,2.7 -1.7,4.4 -1.7,4.4 2.4,3.4 6,4.7 10.7,4.7 l 7.7,-12.4 c 2,-3 4.7,-7.1 8.4,-11.8 3.7,-4.7 7.4,-8.4 10.7,-11.1 3.4,-2.4 6.7,-3.7 9.7,-3.7 4,0 5.7,2 5.7,6.4 0,2.4 -0.7,6 -2.4,11.1 -1.7,5.1 -2.4,8.7 -2.4,10.7 0,3.4 1,6 3.4,8.4 2.4,2 5.7,3 9.7,3 8.1,0 15.8,-5.4 22.5,-16.1 0.3,3.7 1.7,6.4 4,8.1 3,2.4 6,3.4 9.7,3.4 7.4,0 15.4,-6 23.8,-18.1 -3.4,12.4 -6,21.2 -8.1,25.9 l -9.1,4.4 c -2,1 -4.7,2.4 -8.7,4.7 -3.7,2 -6.4,4 -8.4,5.7 -1.7,1.7 -3.4,4 -5,6.4 -1.7,2.7 -2.4,5 -2.4,7.7 0,3.7 1,6.4 3.4,8.1 2.4,1.7 5,2.7 8.1,2.7 11.1,0 21.8,-13.4 33.2,-40 16.8,-7.4 27.5,-18.1 31.6,-31.9 z m -54.7,60.8 c -3.7,4.7 -6.7,7.1 -9.1,7.1 -2,0 -3.4,-1.7 -3.4,-4.7 0,-6.7 7.7,-14.1 23.5,-21.8 -3.3,8.3 -6.9,14.7 -11,19.4 z"
   id="path108" />
	</g>
</g>
</svg>
