<?xml version="1.0" encoding="UTF-8" standalone="no"?>
<svg
   xmlns:dc="http://purl.org/dc/elements/1.1/"
   xmlns:cc="http://creativecommons.org/ns#"
   xmlns:rdf="http://www.w3.org/1999/02/22-rdf-syntax-ns#"
   xmlns:svg="http://www.w3.org/2000/svg"
   xmlns="http://www.w3.org/2000/svg"
   xmlns:sodipodi="http://sodipodi.sourceforge.net/DTD/sodipodi-0.dtd"
   xmlns:inkscape="http://www.inkscape.org/namespaces/inkscape"
   version="1.1"
   id="layer"
   x="0px"
   y="0px"
   viewBox="0 0 599.90002 202.8"
   xml:space="preserve"
   sodipodi:docname="cabify_.svg"
   width="599.90002"
   height="202.8"
   inkscape:version="1.0.2-2 (e86c870879, 2021-01-15)"><metadata
   id="metadata141"><rdf:RDF><cc:Work
       rdf:about=""><dc:format>image/svg+xml</dc:format><dc:type
         rdf:resource="http://purl.org/dc/dcmitype/StillImage" /><dc:title></dc:title></cc:Work></rdf:RDF></metadata><defs
   id="defs139" /><sodipodi:namedview
   pagecolor="#ffffff"
   bordercolor="#666666"
   borderopacity="1"
   objecttolerance="10"
   gridtolerance="10"
   guidetolerance="10"
   inkscape:pageopacity="0"
   inkscape:pageshadow="2"
   inkscape:window-width="1366"
   inkscape:window-height="705"
   id="namedview137"
   showgrid="false"
   inkscape:zoom="0.82515337"
   inkscape:cx="300.5"
   inkscape:cy="102.3"
   inkscape:window-x="-8"
   inkscape:window-y="-8"
   inkscape:window-maximized="1"
   inkscape:current-layer="layer" />
<style
   type="text/css"
   id="style132">
	.st0{fill:#212240;}
</style>
<path
   class="st0"
   d="m 447.8,123.7 h 15.7 V 44 l -15.7,1.4 z m 7.8,-112.1 c -5.9,0 -10.7,4.7 -10.7,10.9 0,6 4.8,10.7 10.7,10.7 5.9,0 10.7,-4.7 10.7,-10.7 -0.1,-6 -4.8,-10.9 -10.7,-10.9 z M 583.3,44 560.7,96.5 536.6,44 h -31.3 v -6.9 c 0,-8.2 3.8,-11.6 11.6,-11.6 2.4,0 5.2,0.4 8,1.1 l 3.5,-12.5 c -4.7,-1.6 -9.7,-2.4 -15.4,-2.4 -15.2,0 -23.4,9.9 -23.4,24.3 v 8 l -13.4,1.1 v 12.6 h 13.4 v 66 h 15.7 V 57.6 h 20.5 l 27.2,56.7 c -2.3,5 -5.1,10.6 -9.5,14 -3.9,3.1 -8.9,3.4 -13.7,2.4 l -3.7,12.9 c 7.1,2.6 16,2.3 22.6,-1.3 7.2,-4 12,-11.5 15.2,-18.9 l 36,-79.7 H 583.2 V 44 Z m -187.5,67.8 c -13.1,-0.1 -24.1,-10.9 -24.1,-28 0,-17.2 10.9,-27.9 24.1,-28.1 13.1,0.1 24.1,10.9 24.1,28.1 0,17.1 -11,28 -24.1,28 z m 0,-70 c -9.6,0 -18.1,3.7 -24.3,9.9 V 13.9 l -14.7,1.3 v 108.6 h 14.7 v -7.7 c 6.2,6.2 14.7,9.9 24.3,9.9 C 418,125.9 435,108.4 435,83.9 435,59.4 417.9,42 395.8,41.8 Z M 224.1,55.9 c 8.6,0.1 16.4,5.2 20.6,13 L 257.4,61 c -6.8,-11.7 -18.9,-19.2 -33.3,-19.2 -22.3,0.1 -39.2,17.6 -39.2,42.1 0,24.5 16.9,41.9 39.2,42.1 14.4,0 26.5,-7.4 33.3,-19.2 l -12.7,-7.9 c -4.2,7.9 -12,13 -20.6,13 C 211,111.8 200,101 200,83.8 200,66.6 211,56 224.1,55.9 Z m 78.5,55.9 c -13.1,-0.1 -24.1,-10.9 -24.1,-28 0,-17.2 10.9,-27.9 24.1,-28.1 13.1,0.1 24.1,10.9 24.1,28.1 -0.1,17.1 -11,28 -24.1,28 z m 24.3,-60.1 c -6.2,-6.2 -14.7,-9.9 -24.3,-9.9 -22.2,0.1 -39.2,17.6 -39.2,42.1 0,24.5 16.9,41.9 39.2,42.1 9.6,0 18.1,-3.7 24.3,-9.9 v 7.7 h 14.7 V 43.9 l -14.7,1.3 z m -273.3,62 29.4,29.8 29.4,-29.8 c 5.4,-5.4 14.1,-5.4 19.5,0 5.4,5.4 5.4,14.3 0,19.8 L 83.1,183 34.1,133.5 C 21.7,120.8 13.9,103.3 13.9,84 c 0,-38.6 30.9,-70 69,-70 19.1,0 36.3,7.9 48.8,20.5 5.4,5.4 5.4,14.3 0,19.8 -5.4,5.4 -14.1,5.4 -19.5,0 C 104.7,46.7 94.3,42 82.8,42 59.9,42 41.3,60.8 41.3,84.1 c 0.2,11.4 4.7,22 12.3,29.6 z M 82.9,55.9 c 7.6,0 14.5,3.2 19.5,8.2 10.7,10.9 28.2,10.9 39.1,0 10.7,-10.9 10.7,-28.6 0,-39.6 C 126.5,9.5 105.8,0 82.9,0 37.2,0 0,37.6 0,84 c 0,23.2 9.3,44.2 24.3,59.4 l 58.6,59.4 58.6,-59.4 c 10.7,-10.9 10.7,-28.6 0,-39.6 -10.7,-10.9 -28.2,-10.9 -39.1,0 L 82.9,123.7 63.4,103.8 c -4.9,-5 -8,-12 -8,-19.8 C 55.2,68.5 67.6,55.9 82.9,55.9 Z"
   id="path134" />
</svg>
