<?xml version="1.0" encoding="UTF-8" standalone="no"?>
<svg
   xmlns:dc="http://purl.org/dc/elements/1.1/"
   xmlns:cc="http://creativecommons.org/ns#"
   xmlns:rdf="http://www.w3.org/1999/02/22-rdf-syntax-ns#"
   xmlns:svg="http://www.w3.org/2000/svg"
   xmlns="http://www.w3.org/2000/svg"
   xmlns:sodipodi="http://sodipodi.sourceforge.net/DTD/sodipodi-0.dtd"
   xmlns:inkscape="http://www.inkscape.org/namespaces/inkscape"
   version="1.1"
   id="layer"
   x="0px"
   y="0px"
   viewBox="0 0 624.73926 500"
   xml:space="preserve"
   sodipodi:docname="crawley-borough-council_small.svg"
   width="624.73926"
   height="500"
   inkscape:version="1.0.2-2 (e86c870879, 2021-01-15)"><metadata
   id="metadata379"><rdf:RDF><cc:Work
       rdf:about=""><dc:format>image/svg+xml</dc:format><dc:type
         rdf:resource="http://purl.org/dc/dcmitype/StillImage" /><dc:title></dc:title></cc:Work></rdf:RDF></metadata><defs
   id="defs377" /><sodipodi:namedview
   pagecolor="#ffffff"
   bordercolor="#666666"
   borderopacity="1"
   objecttolerance="10"
   gridtolerance="10"
   guidetolerance="10"
   inkscape:pageopacity="0"
   inkscape:pageshadow="2"
   inkscape:window-width="725"
   inkscape:window-height="480"
   id="namedview375"
   showgrid="false"
   inkscape:zoom="0.82515337"
   inkscape:cx="317.8"
   inkscape:cy="254"
   inkscape:window-x="0"
   inkscape:window-y="0"
   inkscape:window-maximized="0"
   inkscape:current-layer="layer" />
<style
   type="text/css"
   id="style300">
	.st0{fill:#00215B;}
	.st1{fill:#6FC7E2;}
	.st2{fill:#92003D;}
	.st3{fill:#CA8F4D;}
	.st4{fill:#00478A;}
	.st5{fill:#B4B4B5;}
	.st6{fill:#E62F42;}
	.st7{fill:#F6AF00;}
	.st8{fill:#BDC600;}
	.st9{fill:#824800;}
	.st10{fill:#01965E;}
	.st11{fill:#ED7836;}
	.st12{fill:#893C91;}
	.st13{fill:#007AC0;}
</style>
<g
   id="g372"
   transform="translate(-8.2,-72)">
	<path
   class="st0"
   d="m 308.2,436.7 -3.4,9.8 c -0.5,1.2 -0.9,1.8 -1.8,1.8 -0.5,0 -0.9,-0.2 -1.5,-0.5 -6.2,-2.9 -11,-4 -16.4,-4 -12.1,0 -19.9,9.3 -19.9,26.3 0,18.4 8.8,26.3 20.3,26.3 5.5,0 10.2,-1 15.7,-3.3 0.7,-0.2 1.3,-0.5 1.8,-0.5 1.1,0 1.6,0.5 2.1,1.9 l 2.9,8.6 c 0.2,0.7 0.3,1.3 0.3,1.9 0,1.2 -0.5,2 -2.1,2.6 -8.1,3 -14.7,4.5 -23.7,4.5 -24.7,0 -37.2,-16.4 -37.2,-41.5 0,-25.2 15.3,-42.6 38.7,-42.6 8.4,0 15.5,1.6 22.3,4.7 1.6,0.7 2.2,1.5 2.2,2.3 0,0.5 -0.1,1.1 -0.3,1.7"
   id="path302" />
	<path
   class="st1"
   d="m 112,389.9 c 0,0 55.7,26.6 75.1,-27.1 19.4,-53.6 -61.2,-27.5 -75.1,27.1"
   id="path304" />
	<path
   class="st2"
   d="m 39.5,364.3 c 0,0 9.4,-70 73,-55 63.6,14.9 -11.9,75.9 -73,55"
   id="path306" />
	<path
   class="st3"
   d="m 108,281.3 c 0,0 37.1,-34.6 65.6,2.6 28.5,37.3 -41.1,36.8 -65.6,-2.6"
   id="path308" />
	<path
   class="st4"
   d="m 44,209.3 c 0,0 53.5,-46.2 91.1,7.1 37.7,53.3 -59.1,49 -91.1,-7.1"
   id="path310" />
	<path
   class="st5"
   d="m 133,104 c 0,0 66.3,24.6 37.7,83.3 C 142.1,246 99.3,159 133,104"
   id="path312" />
	<path
   class="st6"
   d="m 204.4,183.1 c 0,0 28.9,49.5 -19.2,71.6 -48.1,22.2 -30.3,-54.4 19.2,-71.6"
   id="path314" />
	<path
   class="st7"
   d="m 240.6,236.8 c 0,0 39.1,68.4 -17.9,91.4 -56.9,23 -41.1,-75.1 17.9,-91.4"
   id="path316" />
	<path
   class="st8"
   d="m 374.5,320.5 c 0,0 -40.2,67.4 -98.6,24.4 -58.4,-43.1 45.3,-72.4 98.6,-24.4"
   id="path318" />
	<path
   class="st9"
   d="m 281.6,369.2 c 0,0 -37.5,37.5 -68.6,-0.3 -31.2,-37.9 41.6,-40 68.6,0.3"
   id="path320" />
	<path
   class="st10"
   d="m 232.1,72 c 0,0 47.1,52.6 -5.5,91.2 -52.7,38.6 -50,-58.3 5.5,-91.2"
   id="path322" />
	<path
   class="st11"
   d="m 303.5,136.1 c 0,0 23.6,71.2 -43.9,86.5 -67.6,15.3 -24.1,-77.9 43.9,-86.5"
   id="path324" />
	<path
   class="st12"
   d="m 8.2,287.2 c 0,0 25.5,-53.6 72.5,-25.4 47,28.2 -29,57.7 -72.5,25.4"
   id="path326" />
	<path
   class="st13"
   d="m 371.8,214.8 c 0,0 -8.8,78.5 -80.2,63.3 -71.5,-15.2 11.4,-85.2 80.2,-63.3"
   id="path328" />
	<path
   class="st0"
   d="m 331.2,472.6 v 34.8 c 0,2.1 -0.9,3.3 -3.3,3.3 h -11 c -2.1,0 -3.3,-1 -3.3,-3.3 v -50.1 c 0,-2.8 1.4,-3.4 3.4,-3.4 h 9.4 c 2.2,0 3.3,0.6 3.4,2.3 l 0.2,3.5 c 4.2,-5 7.7,-7.5 14.6,-7.5 0.9,0 2.2,0.2 3.3,0.5 1.5,0.4 1.5,1.5 1.3,2.8 l -1.7,11 c -0.2,1.3 -0.8,1.9 -1.9,1.9 -1.2,0 -1.8,-0.3 -3.7,-0.3 -3.8,-0.1 -7.7,1.6 -10.7,4.5"
   id="path330" />
	<path
   class="st0"
   d="m 408.7,508 c 0,1.8 -1.2,2.7 -2.8,2.7 h -6.2 c -6.9,0 -9.7,-2 -11.2,-5.3 h -0.2 c -3.1,3.6 -10.6,6.9 -16.3,6.9 -16.8,0 -24.6,-13.3 -24.6,-28.8 0,-20.6 12.8,-31.1 25.6,-31.1 6.5,0 11.8,3 14.2,6.5 l 0.3,-2.6 c 0.1,-1.3 1.2,-2.3 2.7,-2.3 h 10.5 c 1.6,0 2.8,0.9 2.8,2.8 V 497 c 0,1.2 0.5,2 1.7,2 h 0.9 c 1.6,0 2.4,0.6 2.4,2.3 v 6.7 z m -22.6,-37.3 c -2.1,-1.8 -5.9,-4 -9.4,-4 -5.7,0 -11.1,4.7 -11.1,15.5 0,7.2 1.9,15.9 10.7,15.9 4.2,0 8.4,-3.2 9.8,-4.9 z"
   id="path332" />
	<path
   class="st0"
   d="m 492,456.6 -15.5,50.8 c -0.6,2.1 -1.7,3.3 -4.3,3.3 h -9.7 c -2.4,0 -3.5,-1.1 -4.2,-3.5 l -8.5,-28.7 h -0.2 l -8.5,29 c -0.7,2.2 -1.9,3.1 -4.4,3.1 h -9.5 c -2.2,0 -3.5,-1.4 -4.1,-3.4 l -15.3,-50.7 c -0.1,-0.3 -0.1,-0.7 -0.1,-0.9 0,-1.3 1.3,-1.7 2.9,-1.7 h 12.2 c 2.4,0 3.4,1 3.7,2.8 l 6.2,32.1 h 0.1 l 9.7,-32.1 c 0.6,-2 2,-2.8 3.7,-2.8 h 8 c 2.2,0 3.5,0.8 4,2.5 l 9.2,32.7 h 0.1 l 6.9,-32.2 c 0.3,-1.9 1.4,-3 3.9,-3 H 490 c 1.8,0 2.1,0.7 2.1,1.5 0.1,0.4 0,0.9 -0.1,1.2"
   id="path334" />
	<path
   class="st0"
   d="m 513.3,507.4 c 0,2.2 -1.2,3.3 -3,3.3 H 499 c -1.7,0 -3.1,-0.9 -3.1,-3.1 V 432 c 0,-2.3 1,-3 2.8,-3.3 l 12.2,-1.5 c 1.6,0 2.4,1.1 2.4,2.9 z"
   id="path336" />
	<path
   class="st0"
   d="m 574.7,483.5 c 0,2.8 -1.3,3.4 -4.2,3.4 h -32.6 c 1.4,7.3 7.9,11.4 15,11.4 5.1,0 10,-1.2 14.7,-3 0.5,-0.2 0.9,-0.3 1.4,-0.3 1,0 1.6,0.7 1.9,1.6 0.5,2 2.2,7.3 2.2,9.1 0,1.5 -1.1,2 -2.2,2.6 -6.2,2.8 -14.3,4 -21.1,4 -18.5,0 -30.3,-11.4 -30.3,-30.1 0,-18.1 12.2,-30 30.2,-30 7.5,0 13.7,2.8 18.1,7.5 5.8,6.2 7,14.2 7,22.4 v 1.4 z m -17.1,-7.7 c 0,-5 -2.9,-10.1 -8.9,-10.1 -5.8,0 -9.7,4.7 -10.5,10.1 z"
   id="path338" />
	<path
   class="st0"
   d="m 632.7,457.2 -23.1,59.9 c -5.4,13.9 -12.4,19 -27.5,19 -2.7,0 -4.6,-0.2 -7,-0.7 -2.2,-0.5 -2.2,-1.9 -2,-3.7 l 1,-7.3 c 0.4,-2.6 1,-2.6 2.7,-2.6 1.3,0 3.2,0.3 4.6,0.3 7.9,0 10.1,-2.4 12.5,-7.5 l 1.6,-3.5 -21.7,-54.1 c -0.1,-0.5 -0.2,-0.8 -0.2,-1.2 0,-1.2 0.9,-2 2.1,-2 h 14.1 c 2,0 3,0.9 3.5,2.3 l 11,34.6 10.3,-33.6 c 0.7,-2.3 2,-3.4 4.3,-3.4 h 12 c 1.2,0 2,0.8 2,2 0.1,0.6 0,1 -0.2,1.5"
   id="path340" />
	<path
   class="st0"
   d="m 262.3,561 h -8.4 c -0.8,0 -1.1,-0.2 -1.1,-1.1 v -32.2 c 0,-0.8 0.3,-1.1 1.3,-1.1 h 6.8 c 7,0 11.7,2.3 11.7,8.4 0,3.6 -2.1,6.7 -6,7.5 v 0 c 4.9,0.2 8.6,3.4 8.6,8.6 0.1,7.8 -5.9,9.9 -12.9,9.9 m -1.6,-30.9 h -3.2 v 11.1 h 3.4 c 3.5,0 7.2,-0.9 7.2,-6 0,-4.2 -3.4,-5.1 -7.4,-5.1 m 7,15.7 c -1.7,-0.9 -3.7,-1.2 -6,-1.2 h -4.2 v 12.8 h 4.3 c 2.1,0 4,-0.2 5.5,-0.9 2,-0.9 3.3,-2.7 3.3,-5.5 0,-2.6 -1.2,-4.2 -2.9,-5.2"
   id="path342" />
	<path
   class="st0"
   d="m 288.9,561.5 c -7.8,0 -11.2,-5.5 -11.2,-12.6 0,-7 4.1,-12.5 11.5,-12.5 7.8,0 11.3,5.4 11.3,12.6 -0.1,7 -4.2,12.5 -11.6,12.5 m 0.2,-21.9 c -5.4,0 -7,4.8 -7,9.1 0,4.6 1.5,9.4 6.8,9.4 5.2,0 7.1,-4.6 7.1,-9.2 0,-4.6 -1.7,-9.3 -6.9,-9.3"
   id="path344" />
	<path
   class="st0"
   d="m 307.8,537.8 v 1.7 c 1.2,-1.7 3.1,-3.2 5.7,-3.2 0.3,0 0.9,0 1.4,0.2 0.5,0.1 0.5,0.5 0.4,0.9 l -0.4,2.2 c 0,0.3 -0.3,0.5 -0.5,0.5 -0.4,0 -0.7,-0.1 -1.6,-0.1 -1.8,0 -3.7,1.2 -5,3 v 17 c 0,0.7 -0.3,1 -1,1 h -2.3 c -0.7,0 -1,-0.3 -1,-1 v -22.1 c 0,-0.8 0.4,-1 1,-1 h 2.1 c 0.9,0 1.2,0.2 1.2,0.9"
   id="path346" />
	<path
   class="st0"
   d="m 327,561.5 c -7.7,0 -11.2,-5.5 -11.2,-12.6 0,-7 4,-12.5 11.5,-12.5 7.7,0 11.2,5.4 11.2,12.6 0,7 -4.1,12.5 -11.5,12.5 m 0.2,-21.9 c -5.4,0 -7,4.8 -7,9.1 0,4.6 1.6,9.4 6.9,9.4 5.2,0 7.1,-4.6 7.1,-9.2 -0.1,-4.6 -1.8,-9.3 -7,-9.3"
   id="path348" />
	<path
   class="st0"
   d="m 361.7,559.9 c 0,0.8 -0.3,1.1 -1,1.1 h -2.1 c -0.6,0 -0.9,-0.3 -0.9,-1 l -0.1,-1.5 c -2.3,1.9 -5,3 -7.9,3 -5.7,0 -7.9,-3.7 -7.9,-9 v -14.6 c 0,-0.7 0.4,-1 1,-1 h 2.3 c 0.6,0 1,0.3 1,1 v 13.9 c 0,3.5 0.8,6 4.8,6 2.2,0 5,-1.4 6.6,-2.9 v -17 c 0,-0.7 0.3,-1 1,-1 h 2.3 c 0.7,0 1,0.3 1,1 v 22 z"
   id="path350" />
	<path
   class="st0"
   d="m 375.4,572 c -2.3,0 -4.9,-0.7 -7.1,-1.7 -0.4,-0.2 -0.6,-0.4 -0.6,-0.8 0,-0.2 0,-0.3 0.1,-0.5 l 0.6,-1.5 c 0.1,-0.4 0.4,-0.7 0.7,-0.7 0.2,0 0.3,0.1 0.5,0.2 1.8,0.8 4,1.5 5.7,1.5 5.5,0 7.1,-2.9 7.1,-8.1 V 558 c -1.6,1.8 -4.6,2.9 -7.1,2.9 -7.1,0 -10.3,-5.5 -10.3,-12 0,-6.7 3.8,-12.6 10.9,-12.6 2.3,0 5.1,1.1 6.6,3 l 0.1,-1.6 c 0,-0.6 0.4,-0.8 1,-0.8 h 2.2 c 0.7,0 0.9,0.3 0.9,1 v 21.8 c -0.1,7.7 -3.3,12.3 -11.3,12.3 m 7,-28.8 c -1.1,-1.9 -3.5,-3.4 -6,-3.4 -5.1,0 -7,4.4 -7,9 0,4.2 1.6,8.8 6.5,8.8 2.4,0 5.2,-1.4 6.4,-3.1 v -11.3 z"
   id="path352" />
	<path
   class="st0"
   d="m 411.5,560 c 0,0.7 -0.2,1 -0.8,1 h -2.6 c -0.6,0 -0.8,-0.3 -0.8,-1 v -14 c 0,-3.5 -0.9,-6.1 -4.8,-6.1 -2.3,0 -5.2,1.3 -6.9,2.9 V 560 c 0,0.7 -0.3,1 -0.9,1 h -2.6 c -0.5,0 -0.8,-0.3 -0.8,-0.9 v -33.2 c 0,-0.7 0.4,-1 1,-1 1.9,-0.3 2.4,-0.4 2.5,-0.4 0.5,0 0.8,0.2 0.8,0.8 v 12.9 c 2.2,-1.9 5.4,-3 8.2,-3 5.7,0 7.8,3.5 7.8,8.9 V 560 Z"
   id="path354" />
	<path
   class="st0"
   d="m 446.7,556 c 0.4,-0.3 0.8,-0.2 1.1,0.4 l 0.6,1.6 c 0.3,0.6 0.2,1.1 -0.5,1.4 -3.1,1.5 -6.2,2.2 -9.6,2.2 -10.4,0 -15.3,-7.9 -15.3,-17.7 0,-9.6 5.7,-17.9 15.7,-17.9 3.3,0 6.4,0.7 9.1,2.3 0.4,0.2 0.6,0.4 0.6,0.7 0,0.2 0,0.4 -0.1,0.6 l -0.8,1.9 c -0.2,0.3 -0.3,0.5 -0.6,0.5 -0.1,0 -0.3,-0.1 -0.4,-0.2 -2.4,-1.3 -4.8,-2 -7.5,-2 -3.2,0 -6,1.4 -7.9,3.8 -2.2,2.7 -3.1,6.3 -3.1,10 0,7.5 3.4,14.2 11,14.2 2.3,0 5.4,-0.7 7.7,-1.8"
   id="path356" />
	<path
   class="st0"
   d="m 459.9,561.5 c -7.7,0 -11.2,-5.5 -11.2,-12.6 0,-7 4,-12.5 11.5,-12.5 7.7,0 11.2,5.4 11.2,12.6 0,7 -4.1,12.5 -11.5,12.5 m 0.3,-21.9 c -5.4,0 -7,4.8 -7,9.1 0,4.6 1.6,9.4 6.8,9.4 5.3,0 7.1,-4.6 7.1,-9.2 -0.1,-4.6 -1.8,-9.3 -6.9,-9.3"
   id="path358" />
	<path
   class="st0"
   d="m 494.6,559.9 c 0,0.8 -0.3,1.1 -1,1.1 h -2.1 c -0.6,0 -1,-0.3 -1,-1 v -1.5 c -2.3,1.9 -5,3 -7.9,3 -5.7,0 -7.8,-3.7 -7.8,-9 v -14.6 c 0,-0.7 0.3,-1 1,-1 h 2.3 c 0.6,0 1,0.3 1,1 v 13.9 c 0,3.5 0.8,6 4.8,6 2.2,0 5,-1.4 6.6,-2.9 v -17 c 0,-0.7 0.3,-1 1,-1 h 2.4 c 0.7,0 0.9,0.3 0.9,1 v 22 z"
   id="path360" />
	<path
   class="st0"
   d="m 519.2,559.9 c 0,0.7 -0.2,1 -1,1 h -2.3 c -0.6,0 -0.9,-0.3 -0.9,-1 v -14 c 0,-3.6 -0.9,-6.1 -4.9,-6.1 -2.3,0 -5.1,1.3 -6.9,2.9 v 17.2 c 0,0.7 -0.3,1 -0.9,1 h -2.4 c -0.6,0 -0.9,-0.3 -0.9,-1 v -22.1 c 0,-0.7 0.2,-1 0.9,-1 h 2.2 c 0.6,0 0.9,0.2 0.9,0.9 l 0.1,1.5 c 2.3,-1.9 5.3,-3 8.2,-3 5.8,0 8,3.5 8,8.9 v 14.8 z"
   id="path362" />
	<path
   class="st0"
   d="m 540.7,560 c -2.1,1 -4.4,1.5 -6.7,1.5 -7.8,0 -11.6,-5.1 -11.6,-12.5 0,-7.3 4.4,-12.6 11.9,-12.6 2.2,0 4.6,0.5 6.4,1.4 0.4,0.2 0.5,0.4 0.5,0.6 0,0.1 -0.1,0.3 -0.1,0.4 l -0.4,1.6 c -0.1,0.3 -0.3,0.6 -0.5,0.6 -0.1,0 -0.3,-0.1 -0.5,-0.2 -1.5,-0.7 -3.2,-1.2 -5.2,-1.2 -4.7,0 -7.7,3.5 -7.7,9.1 0,5.1 2.2,9.5 7.5,9.5 2.2,0 4,-0.5 5.6,-1.2 0.2,-0.1 0.3,-0.1 0.4,-0.1 0.2,0 0.4,0.1 0.5,0.5 l 0.4,1.4 c 0,0.2 0.1,0.4 0.1,0.5 0,0.4 -0.1,0.5 -0.6,0.7"
   id="path364" />
	<path
   class="st0"
   d="m 546.2,533.4 c -1.3,0 -2.6,-1 -2.6,-2.4 0,-1.4 1.2,-2.4 2.6,-2.4 1.4,0 2.6,1 2.6,2.4 0,1.4 -1.3,2.4 -2.6,2.4 m 2.2,26.5 c 0,0.7 -0.3,1 -1,1 h -2.3 c -0.6,0 -1,-0.3 -1,-1 v -22.1 c 0,-0.7 0.3,-1 1,-1 h 2.3 c 0.6,0 1,0.3 1,1 z"
   id="path366" />
	<path
   class="st0"
   d="m 557.7,559.9 c 0,0.7 -0.3,1 -0.9,1 h -2.5 c -0.6,0 -0.9,-0.3 -0.9,-1 v -33.2 c 0,-0.7 0.2,-0.9 0.7,-1 2.6,-0.4 2.7,-0.4 2.8,-0.4 0.5,0 0.7,0.2 0.7,0.8 v 33.8 z"
   id="path368" />
	<path
   class="st0"
   d="m 215.4,472.8 c 0,-0.8 0.2,-1.6 0.3,-2.5 0.4,-3.9 1,-7.6 1.6,-10.9 10.9,-42.5 45.1,-60.5 45.1,-60.5 -32,0 -41.7,33.9 -62.1,33.9 -17,-1.8 -19.5,-25.3 -44.3,-24.6 0,0 20.3,15.4 27.4,45.2 0.6,3.1 1.1,6.5 1.5,10.1 0.1,0.9 0.3,1.9 0.3,2.8 0.2,2.2 0.2,4.6 0.3,7 V 546 c 0,0.1 -0.2,0.2 -0.2,0.3 0,5.3 -1.5,11.9 -5.6,12.7 -4.2,0.9 -4.8,2.5 -4.8,2.5 h 0.9 0.9 47 0.9 0.9 c 0,0 -0.3,-0.1 -0.3,-0.1 -0.1,-0.1 -0.8,-1.6 -4.8,-2.5 -3.8,-0.8 -5.3,-6.2 -5.5,-11.2 v -68 c 0.3,-2.1 0.3,-4.6 0.5,-6.9"
   id="path370" />
</g>
</svg>
