<?xml version="1.0" encoding="UTF-8" standalone="no"?>
<svg
   xmlns:dc="http://purl.org/dc/elements/1.1/"
   xmlns:cc="http://creativecommons.org/ns#"
   xmlns:rdf="http://www.w3.org/1999/02/22-rdf-syntax-ns#"
   xmlns:svg="http://www.w3.org/2000/svg"
   xmlns="http://www.w3.org/2000/svg"
   xmlns:sodipodi="http://sodipodi.sourceforge.net/DTD/sodipodi-0.dtd"
   xmlns:inkscape="http://www.inkscape.org/namespaces/inkscape"
   version="1.1"
   id="layer"
   x="0px"
   y="0px"
   viewBox="0 0 599.90002 269.10001"
   xml:space="preserve"
   sodipodi:docname="creative_services_.svg"
   width="599.90002"
   height="269.10001"
   inkscape:version="1.0.2-2 (e86c870879, 2021-01-15)"><metadata
   id="metadata263"><rdf:RDF><cc:Work
       rdf:about=""><dc:format>image/svg+xml</dc:format><dc:type
         rdf:resource="http://purl.org/dc/dcmitype/StillImage" /><dc:title></dc:title></cc:Work></rdf:RDF></metadata><defs
   id="defs261" /><sodipodi:namedview
   pagecolor="#ffffff"
   bordercolor="#666666"
   borderopacity="1"
   objecttolerance="10"
   gridtolerance="10"
   guidetolerance="10"
   inkscape:pageopacity="0"
   inkscape:pageshadow="2"
   inkscape:window-width="1366"
   inkscape:window-height="705"
   id="namedview259"
   showgrid="false"
   inkscape:zoom="0.82515337"
   inkscape:cx="300.4"
   inkscape:cy="134.2"
   inkscape:window-x="-8"
   inkscape:window-y="-8"
   inkscape:window-maximized="1"
   inkscape:current-layer="layer" />
<style
   type="text/css"
   id="style204">
	.st0{fill:#717071;}
	.st1{fill:#F19000;}
	.st2{fill:#DF0071;}
	.st3{fill:#F9BC00;}
	.st4{fill:#009FE8;}
	.st5{fill:#8DC21F;}
</style>
<g
   id="g256"
   transform="translate(-25.6,-191.8)">
	<path
   class="st0"
   d="m 96.8,251.9 c -1.2,-15.2 -13.6,-23.1 -29.1,-23.1 -21.6,0 -33.2,19.1 -33.2,38.7 0,23.3 10.9,40.4 33.2,40.4 16.1,0 27.8,-11 30,-26.8 h 6.4 c -2.9,20.6 -17.8,32.3 -36.3,32.3 -28,0 -39.5,-21.9 -39.5,-45.9 0,-23.9 14.1,-44.2 39.5,-44.2 18.6,0 33.7,9 35.5,28.6 z"
   id="path206" />
	<path
   class="st0"
   d="m 136,244.4 h 0.5 c 3.4,-11.2 17.4,-20.3 33,-19.6 v 6.4 c -6.7,-0.8 -16.1,0.8 -23.8,8.4 -6.4,6.5 -9,11.9 -9.7,24.8 v 47.1 h -6.4 v -86.1 h 6.4 z"
   id="path208" />
	<path
   class="st0"
   d="m 187.1,269.2 c -0.3,20.3 10.4,38.7 31.6,38.7 16.2,0 27.8,-9.7 30.8,-25.6 h 6.4 c -3.4,20.1 -16.7,31.1 -37.2,31.1 -25.1,0 -38.3,-19.8 -38,-43.5 -0.3,-23.6 12.1,-46.6 38,-46.6 27,0 39,21.3 37.9,45.9 z m 63.2,-5.5 c -0.3,-18.1 -11.7,-34.8 -31.5,-34.8 -19.1,0 -30.3,17.8 -31.6,34.8 z"
   id="path210" />
	<path
   class="st0"
   d="m 345.7,295.5 c 0,5 0,10.4 5.7,10.4 1.2,0 2.7,-0.2 4.7,-0.5 v 5.4 c -1.8,0.3 -3.5,0.7 -5.2,0.7 -10,0 -11.6,-5.5 -11.6,-12.6 v -4.5 H 339 c -4,10.2 -15.6,19.1 -32,19.1 -16.2,0 -28.8,-6.2 -28.8,-24.3 0,-20.1 17.4,-24.3 31.7,-25.5 28.5,-2 29.6,-3.9 29.6,-17.9 0,-3.9 -4.3,-16.9 -23.9,-16.9 -15.4,0 -25.6,8 -26.5,22.9 h -6.4 c 0.8,-18.9 12.6,-28.5 32.8,-28.5 15.1,0 30.1,4.7 30.1,22.4 v 49.8 z m -6.4,-33 c -5,5.7 -18.8,5 -31.1,6.7 -15.1,1.7 -23.6,7 -23.6,19.9 0,10.4 7.5,18.8 22.6,18.8 29,0 32.2,-24.8 32.2,-29.3 v -16.1 z"
   id="path212" />
	<path
   class="st0"
   d="M 406.7,230.8 H 388 V 291 c 0,13.9 6.5,15.2 18.6,14.9 v 5.5 c -13.1,0.8 -25.6,-1 -25,-20.4 v -60.1 h -15.9 v -5.5 h 15.9 v -26.8 h 6.4 v 26.8 h 18.8 v 5.4 z"
   id="path214" />
	<path
   class="st0"
   d="m 429.7,191.8 h 6.4 v 17.3 h -6.4 z m 0,33.5 h 6.4 v 86.1 h -6.4 z"
   id="path216" />
	<polygon
   class="st0"
   points="457.7,225.3 465.1,225.3 496.2,304 496.6,304 525.7,225.3 532.7,225.3 500.3,311.4 492.4,311.4 "
   id="polygon218" />
	<path
   class="st0"
   d="m 552.5,269.2 c -0.3,20.3 10.4,38.7 31.7,38.7 16.2,0 27.8,-9.7 30.8,-25.6 h 6.4 c -3.3,20.1 -16.7,31.1 -37.2,31.1 -25.1,0 -38.3,-19.8 -38,-43.5 -0.3,-23.6 12.1,-46.6 38,-46.6 27,0 39,21.3 37.8,45.9 z m 63.1,-5.5 c -0.3,-18.1 -11.7,-34.8 -31.5,-34.8 -19.1,0 -30.3,17.8 -31.7,34.8 z"
   id="path220" />
	<path
   class="st0"
   d="m 29.4,442.5 c 0.6,9.5 7.7,15 17,15 6.7,0 16.3,-2 16.3,-10.9 0,-8.7 -8.8,-10 -17.6,-11.8 C 36.2,433 27.4,430.7 27.4,420.2 27.4,410 37.3,407 46,407 c 10.9,0 19,4.7 19,16.4 h -3.8 c -0.1,-9.3 -6.6,-13.1 -15.2,-13.1 -7,0 -14.8,2.6 -14.8,9.9 0,8.2 8.8,9.5 17.1,11.3 10.2,1.9 18.2,4.3 18.2,15.1 0,11.1 -11.1,14.2 -20.1,14.2 -11.7,0 -20.5,-6.3 -20.8,-18.3 z"
   id="path222" />
	<path
   class="st0"
   d="m 114.3,434.4 c -0.2,12.1 6.2,23.2 18.9,23.2 9.7,0 16.6,-5.8 18.4,-15.3 h 3.8 c -2,12 -10,18.6 -22.2,18.6 -15,0 -22.9,-11.8 -22.7,-26 -0.2,-14.1 7.2,-27.9 22.7,-27.9 16.1,0 23.3,12.7 22.6,27.4 z m 37.8,-3.3 c -0.2,-10.8 -7,-20.8 -18.8,-20.8 -11.4,0 -18.1,10.6 -18.9,20.8 z"
   id="path224" />
	<path
   class="st0"
   d="m 206.1,419.6 h 0.3 c 2,-6.7 10.4,-12.1 19.7,-11.7 v 3.8 c -4,-0.5 -9.6,0.5 -14.2,5 -3.8,3.9 -5.4,7.1 -5.8,14.8 v 28.2 h -3.8 v -51.5 h 3.8 z"
   id="path226" />
	<polygon
   class="st0"
   points="266.3,408.2 270.7,408.2 289.3,455.3 289.5,455.3 307,408.2 311.2,408.2 291.7,459.7 287,459.7 "
   id="polygon228" />
	<path
   class="st0"
   d="m 355.2,388.1 h 3.8 v 10.3 h -3.8 z m 0,20.1 h 3.8 v 51.5 h -3.8 z"
   id="path230" />
	<path
   class="st0"
   d="m 446.9,424.1 c -0.7,-9.1 -8.1,-13.8 -17.4,-13.8 -12.9,0 -19.8,11.4 -19.8,23.1 0,13.9 6.5,24.1 19.8,24.1 9.6,0 16.6,-6.6 17.9,-16 h 3.8 c -1.7,12.3 -10.6,19.3 -21.7,19.3 -16.7,0 -23.6,-13.1 -23.6,-27.4 0,-14.3 8.4,-26.5 23.6,-26.5 11.1,0 20.1,5.4 21.2,17.1 h -3.8 z"
   id="path232" />
	<path
   class="st0"
   d="m 499,434.4 c -0.2,12.1 6.2,23.2 18.9,23.2 9.7,0 16.6,-5.8 18.4,-15.3 h 3.8 c -2,12 -10,18.6 -22.2,18.6 -15,0 -22.9,-11.8 -22.7,-26 -0.2,-14.1 7.2,-27.9 22.7,-27.9 16.1,0 23.3,12.7 22.7,27.4 z m 37.8,-3.3 c -0.2,-10.8 -7,-20.8 -18.8,-20.8 -11.4,0 -18.1,10.6 -18.9,20.8 z"
   id="path234" />
	<path
   class="st0"
   d="m 588.4,442.5 c 0.6,9.5 7.7,15 17,15 6.7,0 16.3,-2 16.3,-10.9 0,-8.7 -8.8,-10 -17.6,-11.8 -8.9,-1.8 -17.7,-4.1 -17.7,-14.6 0,-10.2 9.9,-13.2 18.6,-13.2 10.9,0 19,4.7 19,16.4 h -3.8 c -0.1,-9.3 -6.6,-13.1 -15.2,-13.1 -7,0 -14.8,2.6 -14.8,9.9 0,8.2 8.8,9.5 17.1,11.3 10.2,1.9 18.2,4.3 18.2,15.1 0,11.1 -11.1,14.2 -20.1,14.2 -11.7,0 -20.5,-6.3 -20.8,-18.3 z"
   id="path236" />
	<path
   class="st1"
   d="m 55,369.7 c 0,2.2 -1.8,4 -4,4 H 32 c -2.2,0 -4,-1.8 -4,-4 v -19 c 0,-2.2 1.8,-4 4,-4 h 19 c 2.2,0 4,1.8 4,4 z"
   id="path238" />
	<path
   class="st2"
   d="m 126.1,369.7 c 0,2.2 -1.8,4 -4,4 h -19 c -2.2,0 -4,-1.8 -4,-4 v -19 c 0,-2.2 1.8,-4 4,-4 h 19 c 2.2,0 4,1.8 4,4 z"
   id="path240" />
	<path
   class="st3"
   d="m 196.8,369.7 c 0,2.2 -1.8,4 -4,4 h -19 c -2.2,0 -4,-1.8 -4,-4 v -19 c 0,-2.2 1.8,-4 4,-4 h 19 c 2.2,0 4,1.8 4,4 z"
   id="path242" />
	<path
   class="st4"
   d="m 267.6,369.7 c 0,2.2 -1.8,4 -4,4 h -19 c -2.2,0 -4,-1.8 -4,-4 v -19 c 0,-2.2 1.8,-4 4,-4 h 19 c 2.2,0 4,1.8 4,4 z"
   id="path244" />
	<path
   class="st5"
   d="m 338.7,369.7 c 0,2.2 -1.8,4 -4,4 h -19 c -2.2,0 -4,-1.8 -4,-4 v -19 c 0,-2.2 1.8,-4 4,-4 h 19 c 2.2,0 4,1.8 4,4 z"
   id="path246" />
	<path
   class="st1"
   d="m 409.8,369.7 c 0,2.2 -1.8,4 -4,4 h -19 c -2.2,0 -4,-1.8 -4,-4 v -19 c 0,-2.2 1.8,-4 4,-4 h 19 c 2.2,0 4,1.8 4,4 z"
   id="path248" />
	<path
   class="st2"
   d="m 480.5,369.7 c 0,2.2 -1.8,4 -4,4 h -19 c -2.2,0 -4,-1.8 -4,-4 v -19 c 0,-2.2 1.8,-4 4,-4 h 19 c 2.2,0 4,1.8 4,4 z"
   id="path250" />
	<path
   class="st3"
   d="m 551.3,369.7 c 0,2.2 -1.8,4 -4,4 h -19 c -2.2,0 -4,-1.8 -4,-4 v -19 c 0,-2.2 1.8,-4 4,-4 h 19 c 2.2,0 4,1.8 4,4 z"
   id="path252" />
	<path
   class="st4"
   d="m 622.2,369.7 c 0,2.2 -1.8,4 -4,4 h -19 c -2.2,0 -4,-1.8 -4,-4 v -19 c 0,-2.2 1.8,-4 4,-4 h 19 c 2.2,0 4,1.8 4,4 z"
   id="path254" />
</g>
</svg>
