<?xml version="1.0" encoding="UTF-8" standalone="no"?>
<svg
   xmlns:dc="http://purl.org/dc/elements/1.1/"
   xmlns:cc="http://creativecommons.org/ns#"
   xmlns:rdf="http://www.w3.org/1999/02/22-rdf-syntax-ns#"
   xmlns:svg="http://www.w3.org/2000/svg"
   xmlns="http://www.w3.org/2000/svg"
   xmlns:sodipodi="http://sodipodi.sourceforge.net/DTD/sodipodi-0.dtd"
   xmlns:inkscape="http://www.inkscape.org/namespaces/inkscape"
   version="1.1"
   id="layer"
   x="0px"
   y="0px"
   viewBox="0 0 600.11908 181.7627"
   xml:space="preserve"
   sodipodi:docname="humane-society-internationa_small.svg"
   width="600.11908"
   height="181.7627"
   inkscape:version="1.0.2-2 (e86c870879, 2021-01-15)"><metadata
   id="metadata369"><rdf:RDF><cc:Work
       rdf:about=""><dc:format>image/svg+xml</dc:format><dc:type
         rdf:resource="http://purl.org/dc/dcmitype/StillImage" /><dc:title></dc:title></cc:Work></rdf:RDF></metadata><defs
   id="defs367" /><sodipodi:namedview
   pagecolor="#ffffff"
   bordercolor="#666666"
   borderopacity="1"
   objecttolerance="10"
   gridtolerance="10"
   guidetolerance="10"
   inkscape:pageopacity="0"
   inkscape:pageshadow="2"
   inkscape:window-width="1366"
   inkscape:window-height="705"
   id="namedview365"
   showgrid="false"
   inkscape:zoom="0.82515337"
   inkscape:cx="305.5191"
   inkscape:cy="95.8"
   inkscape:window-x="-8"
   inkscape:window-y="-8"
   inkscape:window-maximized="1"
   inkscape:current-layer="layer" />
<style
   type="text/css"
   id="style264">
	.st0{fill:#024731;}
	.st1{fill-rule:evenodd;clip-rule:evenodd;fill:#024731;}
</style>
<g
   id="g268"
   transform="translate(-20.480899,-230.2)">
	<path
   class="st0"
   d="m 109.1,259.4 v 0 h -0.2 c -0.5,0 -1,-0.2 -1.5,-0.4 h -0.1 l -0.1,-0.1 c -0.6,-0.3 -1.3,-1.1 -1.8,-1.2 l -3.4,-0.1 -0.4,-0.1 c 0,0 -0.6,-0.1 -0.7,-0.3 -0.2,-0.1 -0.2,-0.5 -0.2,-0.6 0,-0.1 0.1,-0.3 0.3,-0.5 0.1,-0.2 0.4,-0.3 0.7,-0.4 0.3,-0.1 1.1,-0.2 1.3,-0.3 0.2,-0.1 0.1,-0.3 0.1,-0.3 v -0.4 c -0.3,-3.8 -3.5,-7.2 -3.7,-11.1 v -0.4 c 0,0 0,-0.4 -0.3,-0.5 -0.2,-0.1 -0.8,-0.3 -0.5,-0.2 0.3,0.1 -0.5,-0.1 -0.7,-0.2 -0.2,-0.1 -0.9,-0.6 -0.9,-0.6 0,0 -0.4,-0.2 -0.5,-0.4 -0.2,-0.2 -1.3,-1.2 -1.5,-1.3 -0.1,-0.2 -0.3,-0.2 -0.4,-0.3 -0.1,-0.1 -0.1,-0.1 -0.3,-0.2 -0.2,-0.1 -3.7,-1 -3.7,-1 l -2.8,-0.9 -0.3,-0.2 -1.5,-0.3 -0.3,-0.1 -0.3,-0.3 c 0,0 -1.5,-1.3 -1.4,-2.2 0,-0.4 1.4,-0.8 1.4,-0.8 h 0.2 0.1 c 4.8,-2.1 7.1,-3.7 12.9,-2.3 l 0.3,0.1 h 0.5 l 2.3,0.3 c 2.1,0.2 4.2,-0.5 6.3,-0.1 h 0.2 l 0.2,0.1 c 3.5,1.4 7.1,-0.5 10.6,-1.2 l 0.4,-0.1 0.4,-0.1 h 0.4 c 0,0 1.3,-0.1 1,-0.1 -0.3,0 0.6,-0.1 1.4,-0.1 0.8,0 3.7,1.5 4.2,1.7 0.5,0.2 0.7,0.2 1,0.4 0.3,0.2 0.5,0.3 0.7,0.5 0.3,0.2 0.9,1.2 1.3,1.9 0.3,0.7 0.4,1.1 0.5,1.4 0.1,0.4 0.5,1.2 0.6,1.9 0.1,0.7 0.5,2.1 0.4,3.1 -0.1,1 -0.3,1.9 -0.4,2.2 -0.1,0.3 -0.4,1 -0.4,1 l -0.1,0.4 -0.1,0.4 c -0.4,1.8 -1.1,3.6 -1.8,5.3 l -0.2,0.4 -0.1,0.2 c -0.5,0.6 -0.7,1.1 -0.8,1.9 v 0.2 0.1 c 0,0 -1.3,3.4 -1.4,3.6 -0.1,0.2 -0.5,0.4 -0.7,0.5 -0.2,0 -1.1,0 -1.3,0.1 -0.3,0.1 -1.1,0.5 -1.4,0.5 -0.2,0.1 -4.1,-0.1 -4.1,-0.1 h -0.1 c -0.5,-0.1 -1,-0.3 -1.4,-0.6 l -0.1,-0.1 c 0,0 -1.7,-0.5 -1.9,-0.4 -0.2,0 -0.1,0.9 -0.2,1.2 -0.1,0.3 -0.5,0.7 -0.7,0.7 -0.2,0 -4.4,0.4 -4.4,0.4 m -1.7,-1.9 c 0.3,0 0.8,-0.4 1.1,-0.7 0.3,-0.3 0.3,-0.4 0.3,-0.8 0.1,-0.4 0,-1.7 -0.3,-2.3 -0.3,-0.6 -1,-1.9 -1.3,-1.8 -0.3,0.1 -0.9,4 -0.8,4.5 0.1,0.5 0,1.1 0.3,1.2 m 7.7,-2.6 c 0.3,0.2 2.9,-0.8 2.9,-1.2 0.1,-0.4 -0.1,-1.1 -0.1,-1.6 0,-0.5 0.4,-2 0.4,-1.8 -0.1,0.4 0.1,-0.6 0.1,-0.9 0,-0.4 0.3,-0.6 0.1,-0.8 -0.2,-0.2 -3.6,-0.2 -3.8,0 -0.2,0.3 0,0.7 0,0.7 v 0.2 c 0.1,1 0.6,2.2 0.2,3.2 l -0.2,0.7 c 0,0 -0.3,0.2 -0.3,0.5 0,-0.1 0.4,0.8 0.7,1"
   id="path266" />
</g>
<path
   class="st0"
   d="m 143.0191,35 c 0.3,-1.1 0.9,-5.2 0.9,-7.9 0,-1.3 -0.4,-2.6 -0.3,-4 0,-1.5 -0.7,-3.5 1.1,-4.5 0.9,-0.4 2,-0.5 2.9,-0.4 0.4,-0.2 0.2,-0.6 0.1,-0.8 -1.9,-1.9 -4.7,-2.8 -7.4,-3.1 -2.1,-0.5 -3.3,-3 -5.4,-4 -2.2,-1.7 -4.6,-3.4 -7.1,-4.2 -3.3,-1.2 -6.5,-1.7 -9.6,0 -0.5,0 -1.2,0.2 -1.7,0.2 -0.5,0 -0.7,0 -0.7,0 0,0 -0.2,-0.1 -0.4,0 -0.2,0 -0.3,0 -0.5,0.1 -0.2,0 -0.4,0.2 -0.5,0.4 -0.1,0.2 -0.2,0.4 -0.1,0.5 0.1,0.2 0.3,0.4 0.5,0.5 0.1,0 0.5,0.2 0.5,0.2 l 1,0.3 c 0,0 0.1,0.1 0.1,0.1 2.7,1.2 5,3.4 7.6,4.9 0,2.1 0.7,4.5 2.4,6 0.9,0.6 1.4,2.1 2.6,1.5 0.3,-0.4 -0.4,-0.7 -0.5,-1.2 -0.3,-0.7 -0.8,-1.7 -0.7,-2.6 2.4,2.4 4.5,5.2 6.9,7.6 0.7,1.1 1.8,2.8 2,3.2 0.1,0.4 0.3,0.7 0.3,1.2 1,2.6 0.2,5.5 0.3,7.8 0,0 0,1.7 -0.1,2.8 -1.2,0.2 -2.2,2.5 -2.1,3.1 0,0.6 0.2,1.1 0.8,1.6 0.6,0.5 1.3,0.4 1.8,0.9 0.6,0.7 0.2,4.2 0.4,4.2 0.3,0 0.2,0.1 0.5,-0.2 0.1,-0.2 0.8,-1.7 1.1,-4.3 0.1,-0.6 -0.1,-3.1 -0.1,-3.4 0,-0.3 0.1,-0.3 0.3,-0.5 0.2,-0.2 0.5,-0.7 0.7,-1 1,-1.5 1.5,-2.5 2.1,-4.1"
   id="path270" />
<g
   id="g274"
   transform="translate(-20.480899,-230.2)">
	<path
   class="st0"
   d="m 22,312.5 c -0.8,0.8 -0.8,2 -1.3,2.9 -0.4,1.6 -0.3,3.7 0.7,5.2 0.4,0.6 1.5,2.2 2.3,2.6 2.1,1.6 4.7,3.6 5.1,6.4 -0.1,0.1 0,0.3 0,0.4 -1.1,1.1 -2.4,2.3 -2.1,4.1 0.2,0.7 0.3,1.4 0.4,2.2 0.1,0.3 -0.4,0.6 -0.1,0.9 0.2,0.5 0.7,0.9 0.5,1.5 -0.3,0.5 -0.4,0.8 -0.7,1.5 0.1,1 -0.3,2.1 0.1,2.9 0.4,0.7 -0.1,1.5 -0.5,2 -0.2,0.8 -0.5,1.6 -0.4,2.4 0,0 -0.1,0 0.2,0.2 0.3,0.2 0.4,0.1 0.5,0.5 l 0.1,0.1 0.2,0.1 c 0.2,0.1 -0.1,0.1 0.6,0.3 0.4,-1.1 0.4,-1.1 0.7,-0.6 0.1,0 0.1,0 0.2,-0.1 0,-0.9 -0.2,-1.7 -0.3,-2.5 l 0.2,-0.4 c 0.1,0.5 0.5,0.9 0.7,1.3 0.2,0.1 0.4,0 0.5,-0.2 -0.2,-0.6 -0.9,-1.2 -1,-1.9 0,-0.2 0.1,-0.4 0.1,-0.6 0.1,-0.3 0.1,-0.5 0.4,-0.8 0,-0.9 0.1,-1.5 -0.1,-2.4 -0.1,-0.5 0.5,-0.8 0.6,-1.2 0.5,-1 0.4,-2.3 1.3,-3.1 0.4,-0.1 0.8,0.2 1.1,0.6 -0.2,1 0,2 -0.3,2.9 -0.1,0.4 0.2,0.6 0.2,1 0.3,0.6 0,1.4 0.4,2 -0.1,0.9 0.2,1.7 0.5,2.5 0.3,0 0.3,-0.3 0.4,-0.5 0,-0.5 -0.2,-0.9 -0.2,-1.4 0.3,-0.1 0.5,0.3 0.7,0.4 0.4,0.7 0.7,1.4 1.4,1.8 0.2,-0.2 0,-0.4 0.1,-0.6 -0.3,-0.2 -0.3,-0.6 -0.5,-0.9 0.2,0 0.5,0.3 0.6,0.6 0.5,0.9 1.8,1.4 1.8,2.6 0,0.6 -0.5,1.5 0,2 l 0.1,0.1 c 0.2,0.5 0.4,0.7 0.6,1 0.1,0.1 0.2,0 0.2,-0.1 0.1,-0.5 0.2,0.1 1,0.3 0.1,-0.1 0.1,-0.3 0.1,-0.4 -0.1,-0.4 -0.1,-0.8 0.1,-0.7 0.2,0.2 0.5,0.3 0.6,0.6 0.1,0 0.2,0 0.2,-0.1 0,-0.9 -1.2,-1.2 -1,-2.2 0,-0.1 -0.2,-0.3 -0.1,-0.5 0.3,0.4 0.7,1 1.3,0.9 l 0.1,-0.1 c -0.3,-0.4 -0.9,-0.5 -1.1,-1.1 -0.4,-0.4 -1.2,-0.6 -1,-1.4 -0.1,-0.9 0.2,-1.8 0,-2.7 l 0.2,-1 c 0.4,0.1 0.9,0.1 1.3,0.1 0.3,0 0.2,0.5 0.4,0.7 0.4,0.6 1.1,0.9 1.1,1.7 -0.3,0.5 -0.9,0.8 -0.9,1.4 0.3,0.4 0.6,-0.3 0.9,-0.3 -0.3,0.4 -0.3,1.2 -1,1 -0.4,-0.1 -0.7,-0.3 -1,0 -0.2,0.5 0.6,0.8 0.8,0.9 0.5,0.3 1,0.6 1.7,0.3 0.4,-0.3 0.4,-0.9 0.7,-1.3 0.2,-0.6 0.1,-1.3 0.4,-1.9 -0.2,-1 0.5,-1.9 -0.1,-2.8 -0.3,-0.9 0.4,-1.5 0.5,-2.4 0.3,-0.2 0.1,-0.6 0.6,-0.7 0.4,-0.1 0.6,0.1 0.9,0.4 0.3,0 0.5,0.1 0.8,0.1 0.5,-0.3 1.2,-0.6 1.4,-1.1 0.1,-0.4 -0.4,-0.2 -0.5,-0.5 v 0 c -0.2,-0.7 0.2,-1.4 -0.5,-1.9 -0.1,-0.4 -0.4,-0.7 -0.7,-1 -0.1,-0.4 -0.4,-0.9 -0.9,-1 -0.3,0 -0.2,0.4 -0.4,0.5 -0.5,-0.2 -1.2,-0.7 -1.8,-0.3 -0.5,-0.3 -1.1,-0.6 -1.7,-0.8 -0.5,0 -1,0.1 -1.6,0.2 0,-0.2 -0.3,-0.1 -0.4,-0.2 -0.8,-0.9 -1.7,-1.7 -2.4,-2.7 -1.1,-1 -2.7,-1.2 -4.1,-1.2 -0.2,0.3 -0.6,0 -0.9,0.2 l -0.1,-0.1 c -0.2,-3.1 -2.4,-5.8 -4.8,-7.7 -1.4,-1.6 -1.8,-3.5 -1.6,-5.5 0.2,-0.2 0,-0.6 0.2,-0.9 0.2,-1.1 1.2,-2 2.2,-2.2 1.2,0 2.3,0.8 2.9,1.9 0.5,1.2 0.5,2.8 -0.4,3.8 -0.2,0.2 -0.1,0.5 -0.3,0.7 0.1,0.5 0.4,0.8 0.7,1.1 0.5,0.2 1.2,0.5 1.7,0 0.7,-0.3 1,-1 1.5,-1.6 0.4,-0.8 0.5,-1.8 0.5,-2.7 -0.1,-0.2 -0.2,-0.5 -0.2,-0.8 -0.8,-2 -2,-4.1 -3.9,-5.3 -0.5,-0.1 -0.8,-0.6 -1.3,-0.5 -1.1,-0.4 -2.5,0 -3.5,0.5 -1.1,0.6 -2.1,1.4 -2.6,2.6"
   id="path272" />
</g>
<path
   class="st0"
   d="m 30.619101,78.1 c -0.2,1 -0.6,4.2 -1.3,4.9 -0.3,0.8 -0.4,1.8 -1.3,2.2 -0.6,0.9 -1.7,1.7 -1.5,2.8 -0.5,1.1 -0.6,2.4 -1.4,3.4 -0.1,0.3 -0.2,0.7 -0.3,0.8 -0.1,0.1 0,0.2 -0.1,0.3 -0.4,0.5 -1.1,0.7 -0.8,1.5 -0.3,0.6 0.2,1.4 0.3,1.6 0.2,0.5 0.1,1.1 0.7,1.2 0.6,-0.1 1.5,-0.2 2.1,-0.1 0.5,-0.3 0.4,-1 1,-1.3 0.2,-0.2 0.3,-0.1 0.5,-0.2 0.8,-0.7 2,-0.1 2.8,-0.7 0.8,1.4 1,3.1 1.1,4.8 -0.3,1 -0.4,1.9 0.1,2.7 0.6,1.3 0.3,3 1.4,4.1 0,1.9 1.2,3.3 1.6,5.1 1.7,1.5 0.1,4 1.3,5.6 0.1,1.1 -0.1,2.4 -0.5,3.5 -0.9,0.7 0,2 -1.1,2.6 -0.2,0.5 -0.6,1 -0.7,1.6 0.5,0.2 1,0.4 1.5,0.2 0.1,0.2 -0.1,0.5 0.2,0.6 0.3,0 1.3,0.4 2.6,0.3 0.7,-0.1 -0.1,-2.5 -0.1,-2.5 -0.3,-0.2 0,-0.8 -0.1,-1 0.2,-0.3 0.5,0 0.6,-0.3 0.2,-1.1 0.4,-2.3 0.1,-3.4 0,-1.2 0.4,-2.3 0.9,-3.3 0.2,-0.7 -0.2,-1.2 -0.1,-1.9 0.7,-1.8 0.9,-3.7 1.7,-5.4 0,-0.4 -0.1,-0.7 -0.2,-1 1.9,1.4 4.9,0.8 7.2,0.1 -0.2,1.6 1.3,2.6 2.4,3.5 1,0.7 0.2,1.9 0.8,2.8 0.1,0.8 -0.5,1.3 -0.5,2.1 -0.1,1.1 -0.9,1.9 -1.6,2.8 -0.6,0.7 -0.3,2 -1.5,2.1 -0.3,0.7 -0.5,1.4 -0.8,2.1 0.8,0.3 1.9,0.5 2.8,0.2 0.4,-0.6 0.8,-1.1 0.7,-1.9 0,-0.2 -0.2,-0.3 -0.3,-0.4 0.2,-0.4 0.3,-0.8 0.7,-1 0,0 0.2,0 0.7,-0.1 0.5,-0.1 0.8,-1.9 0.6,-3.4 0,-0.2 0.3,-1.1 0.9,-2.3 0.4,-0.8 1.5,-1.3 1.1,-2.3 -0.5,-1.1 -1.7,-1.9 -1.5,-3.2 -0.2,-1.3 0.2,-2.5 0.4,-3.8 0.2,-0.1 0.4,-0.3 0.7,-0.4 0.2,1.1 0.8,2.2 1.5,3.1 0.1,1.2 0.3,2.6 0.8,3.7 -0.7,1.2 0.2,2 0.2,3.1 0.3,1 0.8,2.3 0.8,3 0,0.7 -0.4,1.5 -0.4,2.3 0.1,0.6 -0.3,1.6 0.6,1.7 0.2,0.8 -0.5,1.5 -0.4,2.2 -0.4,1.2 2.8,0.6 2.6,0.3 -0.2,-0.8 0.1,-1.8 -0.7,-2.1 -0.2,-0.1 -0.3,-0.2 -0.4,-0.2 0.2,-0.8 0.6,-1.8 0.2,-2.6 -0.2,-0.5 -0.5,-2.5 -0.5,-4.1 0,-1.1 0.2,-1.8 0.1,-2.1 -0.1,-0.5 -0.1,-2.5 -0.7,-3.5 0.2,-1.7 1.1,-3.7 0.4,-5.3 0.2,-2.2 0.8,-4.6 0,-6.6 l 0.1,-0.1 c 0.4,1.4 1.1,3.6 1.2,4.1 0.2,0.5 0.9,1.8 1.1,2.7 0.3,1.3 0.2,2.7 0.1,4.1 0,0.4 0.1,0.6 0,0.9 -0.1,1.2 0,2.3 -0.3,3.5 0,0 -0.1,0.2 0.1,0.2 0.1,0 0.2,-0.4 0.3,-0.6 0.6,0.1 0.4,-0.8 0.7,-1 0,0.7 -0.3,1.3 -0.5,1.9 0,0.1 0,0.3 0.1,0.2 1.2,-2 1.8,-4.5 1.6,-6.8 -0.4,-2.1 -2,-3.8 -2.8,-5.8 -0.6,-1.9 -0.7,-4.2 -2.2,-5.7 -0.7,-1.2 -2,-1.6 -3.1,-2.3 -1.8,-0.9 -4,-1.8 -6.1,-0.7 -1.8,0.7 -3.9,1.8 -5.8,0.9 -0.6,-0.7 -1.9,-0.9 -1.7,-2.1 -0.8,-1 -1.2,-2.7 -2.8,-2.9 -1.4,-0.5 -2,-2.3 -3.4,-2.9 0,-0.4 2,-3.2 2.2,-3.6 0.1,-0.9 0,-2 0.3,-2.9 v -0.4 c -0.9,0.2 -1.1,1.2 -1.8,1.7 -1,0.4 -3.1,4.6 -4.2,3.7 0.3,-1.1 0.2,-4.2 -0.1,-5.2 -0.1,-0.1 -0.2,-0.3 -0.4,-0.1 -0.3,-0.1 -0.3,0.4 -0.5,0.7"
   id="path276" />
<path
   class="st1"
   d="m 19.919101,142.7 0.1,-0.2 c 0,0 -0.2,-0.6 -0.3,-0.7 -0.1,-0.1 -0.3,-0.4 -0.3,-0.6 -0.3,-0.7 -0.2,-0.3 -0.5,-1.3 -0.3,-0.9 -0.3,-1.5 -0.3,-2.2 0.1,-0.5 0.1,-0.9 0,-1.3 0,-0.4 -0.1,-0.7 -0.1,-1.1 0,-0.1 0,-0.3 0,-0.5 0,-0.1 0,-0.3 0.1,-0.4 0,-0.1 0,-0.3 0.1,-0.4 0,-0.2 0.1,-0.5 0.1,-0.7 0,-0.2 0,-0.4 0,-0.6 -0.1,-0.3 0,-0.6 -0.1,-0.9 -0.1,-0.2 -0.1,-0.3 -0.1,-0.5 0,-0.2 -0.2,-0.5 -0.2,-0.6 0,-0.2 -0.2,-0.3 -0.2,-0.5 -0.1,-0.1 -0.2,-0.3 -0.2,-0.4 -0.1,-0.2 -0.1,-0.4 -0.2,-0.6 0,-0.2 0,-0.3 0,-0.5 0,-0.1 0,-0.3 0,-0.4 0,-0.2 -0.2,-0.2 -0.2,-0.4 -0.1,-0.1 -0.1,-0.3 -0.2,-0.5 0,-0.2 0,-0.3 0,-0.5 -0.2,0 -0.5,0 -0.6,0 -0.2,0 -0.4,0 -0.6,0 -0.2,0 -0.4,0 -0.6,0 -0.2,0 -0.4,0 -0.5,-0.1 -0.1,-0.4 0.2,-0.3 0.5,-0.3 0.5,0 0.8,0 1.2,0 0.1,0 0.3,0 0.5,0 0,0 0.1,0 0.2,0 0,0 0.1,-0.1 0.1,-0.2 0,-0.2 -0.1,-0.2 -0.2,-0.2 -0.1,0 -0.2,-0.1 -0.3,-0.1 -0.2,-0.1 -0.5,-0.1 -0.7,-0.2 -0.3,0 -0.5,-0.1 -0.7,-0.2 -0.3,-0.1 -0.5,-0.1 -0.4,-0.3 0,-0.1 0.1,-0.1 0.3,-0.1 0.4,0 0.7,0.1 1,0.2 0.2,0.1 0.5,0.1 0.7,0.2 0.1,0 0.2,0 0.3,0.1 0.1,0 0.2,0 0.3,-0.1 0,-0.1 -0.2,-0.2 -0.3,-0.2 -0.1,-0.1 -0.2,-0.1 -0.3,-0.1 -0.2,-0.1 -0.4,-0.2 -0.6,-0.3 -0.2,-0.1 -0.4,-0.2 -0.6,-0.3 -0.1,-0.1 -0.2,-0.1 -0.3,-0.1 -0.1,-0.1 -0.3,-0.1 -0.3,-0.2 0,-0.1 0,-0.1 0.1,-0.2 0,0 0.1,0 0.1,0 0.1,0 0,0 0.2,0.1 0.2,0.1 0.4,0.2 0.6,0.3 0.2,0.1 0.4,0.2 0.6,0.3 0.4,0.1 1.1,0.6 1.2,0.5 0.2,-0.1 0.3,-0.2 0.4,-0.2 0.2,0 0.3,-0.2 0.4,-0.2 0,0 0.1,0 0.1,0 0.5,0.1 0.8,0.5 1.1,0.7 0.2,0.1 0.3,0.3 0.5,0.4 0.2,0.1 0.4,0.2 0.6,0.3 0.1,0 0.2,0 0.3,0.1 0,0 0.1,0 0.1,0 0,0 0.1,0 0.2,0 0.2,0 0.4,0.1 0.6,0.2 0.2,0 0.4,0.2 0.5,0.2 0.2,0.1 0.4,0.2 0.5,0.3 0.1,0.1 0.3,0.2 0.5,0.3 0.2,0.1 0.3,0.2 0.4,0.4 0.1,0.1 0.3,0.2 0.4,0.4 0.1,0.1 0.2,0.3 0.3,0.5 0.1,0.2 0.2,0.4 0.3,0.5 0.1,0.2 0.1,0.4 0.2,0.6 0.1,0.4 0.3,0.8 0.4,1.2 0.2,0.6 0.4,1.2 0.7,1.8 0,0.1 0.1,0.2 0.1,0.3 0.1,0.1 0.1,0.2 0.2,0.2 0.1,0.2 0.2,0.3 0.4,0.4 0.3,0.4 0.5,0.5 0.9,0.8 0,0 0.1,0.1 0.1,0.1 0,0 0,0 0.1,0 0.2,0.2 0.4,0.3 0.5,0.5 0.2,0.2 0.3,0.3 0.5,0.5 0.2,0.2 0.4,0.4 0.6,0.5 0.1,0.1 0.1,0.1 0.2,0.2 0.3,0.2 0.5,0.5 0.8,0.8 0.2,0.3 0.5,0.5 0.8,0.8 0.3,0.3 0.6,0.5 0.8,0.8 0.2,0.3 0.5,0.6 0.7,0.9 0.3,0.3 0.5,0.5 0.7,0.8 0.2,0.3 0.5,0.6 0.7,0.9 0.3,0.3 0.4,0.6 0.7,0.9 0.2,0.3 0.4,0.7 0.6,1 0.2,0.3 0.4,0.7 0.6,1 0.2,0.3 0.3,0.7 0.6,1 0.1,0.4 0.4,0.7 0.5,1.1 0.2,0.3 0.3,0.7 0.5,1.1 0,0.2 0.1,0.3 0.2,0.4 0.1,0.2 0.2,0.5 0.3,0.7 0.1,0.2 0.1,0.4 0.2,0.6 0.1,0.2 0.1,0.3 0.2,0.5 0.1,0.2 0.2,0.5 0.3,0.6 0.1,0.2 0.2,0.4 0.3,0.5 0.1,0.2 0.1,0.4 0.2,0.6 0,0.1 0.1,0.2 0.1,0.3 0.1,0.2 0.1,0.4 0.2,0.5 0,0 0,0.1 0,0.1 0,0.1 0.1,0.3 0.2,0.4 0.1,0.1 0.1,0.2 0.2,0.3 0.1,0.2 0.2,0.4 0.3,0.6 0.1,0.2 0.2,0.3 0.3,0.5 0.1,0.1 0.2,0.4 0.3,0.5 0.1,0.2 0.3,0.3 0.4,0.4 0.1,0.1 0.2,0.3 0.3,0.4 0.1,0.2 0.3,0.3 0.3,0.4 0.1,0 0.1,0.1 0.2,0.1 0.1,0 0.1,0.1 0.2,0.2 0.1,0.1 0.1,0.1 0.3,0.2 0.2,0.1 0.4,0.4 0.6,0.5 0.2,0.2 0.5,0.4 0.7,0.5 0.2,0.2 0.4,0.3 0.7,0.5 0.3,0.1 0.5,0.3 0.8,0.4 0,0.1 0.1,0.1 0.2,0.1 0.1,0.1 0.1,0.1 0.2,0.1 0.1,0.1 0.2,0.1 0.3,0.2 0.1,0.1 0.2,0.2 0.4,0.2 0.1,0 0.2,0.2 0.4,0.2 0.2,0.2 0.5,0.3 0.7,0.5 0.1,0.1 0.2,0.2 0.3,0.3 0.1,0.1 0.2,0.2 0.3,0.2 0.1,0.1 0.2,0.2 0.3,0.3 0.4,0.3 0.7,0.7 1,1 0,0 0,0 0,0 0,0 0.1,0.1 0.1,0.1 0.1,0.1 0.2,0.2 0.3,0.3 0.2,0.2 0.4,0.4 0.5,0.7 0.2,0.3 0.3,0.5 0.5,0.8 0.1,0.2 0.2,0.4 0.3,0.6 0.1,0.2 0.2,0.4 0.3,0.6 0,0.1 0,0.1 0.1,0.2 0,0 0.1,0.1 0.1,0.1 0.1,0.2 0.1,0.4 0.1,0.6 0,0.2 0,0.4 -0.1,0.5 -0.3,0.1 -0.5,-0.1 -0.7,-0.2 -0.2,-0.1 -0.4,-0.3 -0.6,-0.4 -0.2,-0.1 -0.3,-0.2 -0.5,-0.2 -0.1,0 -0.3,-0.1 -0.4,0 -0.1,0 -0.3,0 -0.5,-0.1 -0.1,-0.1 -0.3,-0.2 -0.4,-0.4 -0.1,0 -0.2,-0.1 -0.3,-0.1 0,0 -0.1,0 -0.2,-0.1 -0.2,-0.1 -0.3,-0.2 -0.4,-0.3 -0.3,-0.2 -0.6,-0.4 -0.8,-0.7 -0.1,-0.1 -0.2,-0.3 -0.3,-0.4 -0.1,-0.1 -0.1,-0.1 -0.2,-0.2 0,-0.1 -0.1,-0.1 -0.2,-0.2 -0.1,-0.2 -0.2,-0.2 -0.4,-0.4 -0.1,-0.1 -0.1,-0.1 -0.2,-0.2 -0.1,-0.1 -0.2,-0.1 -0.3,0 0,0 0,0.1 -0.1,0.1 0,0.1 0,0.2 0.1,0.3 0.1,0.1 0.1,0.2 0.2,0.3 0.1,0.2 0.2,0.4 0.3,0.6 0,0.2 0.1,0.3 0.2,0.5 0.1,0.2 0.1,0.4 0.2,0.5 0,0.2 0,0.2 0,0.4 -0.1,0.1 0,0.2 -0.1,0.3 -0.1,0.2 -0.2,0.3 -0.2,0.5 0,0 0,0.1 0,0.2 0,0.2 0.1,0.4 0.1,0.6 0,0.3 0,0.5 -0.2,0.5 -0.1,0 -0.2,0 -0.3,-0.1 -0.1,-0.1 -0.2,-0.1 -0.2,-0.2 -0.1,-0.2 -0.3,-0.3 -0.4,-0.5 -0.2,-0.1 -0.2,-0.2 -0.4,-0.4 -0.1,-0.1 -0.3,-0.3 -0.4,-0.5 -0.1,-0.2 -0.3,-0.3 -0.4,-0.5 -0.1,-0.2 -0.2,-0.3 -0.3,-0.5 -0.2,-0.3 -0.7,-1.3 -0.8,-1.4 0,-0.1 -0.1,-0.2 -0.1,-0.3 -0.1,-0.2 -0.2,-0.4 -0.3,-0.6 -0.2,-0.5 -0.4,-0.8 -0.5,-1.2 -0.1,-0.1 -0.1,-0.2 -0.2,-0.4 0,0 0,0 0,-0.1 0,-0.1 -0.1,-0.2 -0.1,-0.2 -0.1,-0.1 -0.2,-0.3 -0.3,-0.5 -0.3,-0.3 -0.6,-0.5 -1,-0.7 -0.1,-0.1 -0.1,-0.1 -0.2,-0.2 0,0 -0.1,0 -0.1,-0.1 0,-0.1 -0.2,-0.2 -0.2,-0.2 0,0 0,-0.1 -0.1,-0.1 0,-0.1 -0.1,-0.1 -0.2,-0.2 -0.2,-0.3 -0.4,-0.4 -0.6,-0.5 -0.4,-0.2 -0.8,-0.4 -1.3,-0.4 -0.5,-0.1 -0.8,-0.3 -1.3,-0.4 -0.4,-0.2 -0.8,-0.4 -1.2,-0.5 -0.3,0 -0.4,-0.2 -0.6,-0.3 -0.2,-0.1 -0.4,-0.2 -0.6,-0.3 -0.2,-0.1 -0.4,-0.2 -0.6,-0.3 -0.2,-0.1 -0.4,-0.2 -0.6,-0.3 -0.2,-0.1 -0.4,-0.2 -0.6,-0.3 -0.2,-0.1 -0.4,-0.2 -0.6,-0.3 -0.1,-0.1 -0.3,-0.2 -0.4,-0.2 0,0 0,0 0,0 0,0 -0.1,0 -0.1,0 -0.2,-0.1 -0.4,-0.2 -0.6,-0.3 -0.5,-0.4 -1.1,-0.7 -1.6,-1 -0.2,-0.1 -0.3,-0.3 -0.5,-0.4 -0.3,-0.3 -0.7,-0.5 -1,-0.8 -0.3,-0.2 -0.6,-0.6 -0.9,-0.8 -0.1,0 -0.2,-0.1 -0.2,-0.2 0,0 -0.1,0 -0.1,-0.1 -0.1,0 -0.1,-0.1 -0.2,-0.2 -0.1,0 -0.1,-0.2 -0.2,-0.2 0,-0.1 -0.2,-0.1 -0.2,-0.2 0,0 -0.1,-0.1 -0.1,-0.1 0,0 -0.1,-0.1 -0.1,-0.1 0,-0.1 -0.1,-0.1 -0.2,-0.2 0,0 0,0 0,0 0,0 0,0 -0.1,-0.1 -0.1,0 -0.2,-0.2 -0.3,-0.2 -0.1,-0.1 -0.2,-0.3 -0.4,-0.4 0,-0.1 -0.2,-0.2 -0.2,-0.3 -0.1,-0.1 -0.1,-0.1 -0.2,-0.2 -0.1,-0.1 -0.1,-0.2 -0.2,-0.2 -0.1,-0.2 -0.3,-0.3 -0.4,-0.5 -0.2,-0.2 -0.3,-0.3 -0.4,-0.5 -0.1,-0.2 -0.2,-0.3 -0.4,-0.5 -0.1,-0.2 -0.3,-0.3 -0.5,-0.4 -0.1,0 -0.2,0 -0.3,0.1 -0.2,0.2 -0.2,0.6 -0.2,1 0,0.4 0.3,1 0.3,1.5 0,0.1 0,0.2 0,0.3 0,0.1 -0.1,0.1 -0.1,0.1 -0.3,0 -0.4,-0.2 -0.6,-0.3 -0.1,-0.1 -0.2,-0.2 -0.3,-0.3 0,0 -0.1,-0.1 -0.1,-0.1 0,0 0,-0.1 0,-0.1 0,-0.1 -0.2,-0.2 -0.2,-0.2 0,0 -0.1,-0.1 -0.1,-0.2 0,0 -0.1,-0.1 -0.1,-0.2 -0.1,-0.2 -0.1,-0.2 -0.2,-0.3 -0.1,-0.1 -0.1,-0.2 -0.2,-0.3 -0.1,-0.3 -0.2,-0.6 -0.3,-0.9 0,-0.2 -0.1,-0.4 -0.1,-0.6 0,-0.4 -0.1,-0.5 -0.1,-0.9 0,0.1 0,-0.7 0.1,-1.2 0,-0.2 0.2,-0.6 0.2,-0.8"
   id="path278" />
<path
   class="st0"
   d="m 28.819101,46.3 c -0.4,0.3 -2,0.2 -2.1,0.2 -0.1,0 -0.1,-0.1 -0.3,-0.1 0,0 -0.4,-0.2 -0.5,-0.4 -0.2,-0.1 -0.2,-0.2 0,-0.2 0.2,0 0.4,0 0.6,-0.1 0.2,-0.1 0.7,-0.3 0.8,-0.3 -0.4,0 -1.1,-0.4 -1.2,-0.5 -0.1,-0.1 -0.1,-0.2 0.1,-0.2 0.2,0 0.4,0 0.7,0 0.1,0 0.1,0 0.2,0 0.5,0.2 0.9,0 1.2,-0.3 0.2,-0.3 0.3,-0.3 0.3,-0.7 0.3,-2.1 1.2,-5.1 1.3,-6.5 0.1,-0.9 0.3,-1.2 0.7,-1.3 2,-0.7 4.1,-2.8 5.1,-3.9 0.9,-1 1.5,-1.9 1.8,-2.7 0.2,-0.4 -0.5,-1.6 -0.9,-1.9 -0.7,-0.5 -1.3,-0.7 -1.8,-1 -0.5,-0.2 -0.8,-0.4 -1.2,0 -3.6,3 -2.3,7 -5.9,11.7 -3.9,5.2 -9.5,5.1 -11.4,0.5 -0.2,-0.5 0.3,-0.8 0.6,-0.3 2.3,3 7.2,3 9.8,-3.5 1.8,-4.6 2,-8.2 4.7,-12 2,-2.7 4.2,-4.1 6.4,-5.3 1.8,-1 2.9,-1.8 7.1,-2.3 3.7,-0.4 3.6,0.3 8.1,0.2 0.3,0 1.2,-0.2 1.4,-0.2 0.7,-0.2 0.5,-0.1 0.9,-0.3 0.2,-0.1 0.4,-0.2 0.5,-0.5 0.4,-0.8 0.7,-1 0.9,-1.6 0,-0.2 0,-1.9 0.1,-2.1 0,-0.1 -0.1,-0.4 -0.4,-0.5 -0.6,-0.3 -0.8,-0.4 -1.2,-1 -0.5,-0.9 -0.4,-1.8 0.1,-1.8 0.5,0 1.4,0.2 2.5,1.2 0.4,0.3 0.6,1.2 1.7,1.5 1.4,0.4 2.2,0.8 2.9,1.5 0.5,0.4 1.2,0.9 1.6,1.2 0.6,0.4 0.6,0.7 0.6,1.2 0,0.2 -0.1,0.3 -0.3,0.5 -0.4,0.7 -1.6,0.7 -2.2,0.5 -0.9,-0.2 -1.2,-0.2 -2,-0.4 -0.5,-0.1 -0.4,0.8 -0.6,1.5 -0.3,1.1 0.2,0.1 -0.9,2.4 -0.6,1.2 -2.4,2.2 -3.4,3.1 -0.1,0.1 1.4,2.4 1.8,3.1 0.5,0.8 0.5,1.2 0.5,1.5 0,0.6 -0.1,0.9 -0.7,1.2 -0.4,0.2 -0.6,0.3 -1,0.5 -1.4,0.5 -2.3,-0.2 -2.4,-0.2 -0.5,-0.5 -0.2,-0.9 0,-1.2 0,0 0.4,-0.3 0.6,-0.3 0,0 0.3,0 0.3,0.1 0,-0.1 0.1,0.4 0.4,0.3 0.9,-0.1 0.7,-0.5 0.7,-0.4 -0.5,-2.4 -1.9,-2.6 -2.2,-3.2 -2.1,1.3 -5.4,2 -8.6,2.2 0,1.3 -0.1,2.3 -0.4,3.1 -0.6,1.5 -1.3,2.4 -2.3,3.1 -2,1.6 -1.5,0.2 -6.5,4.7 -3.3,3 -4.1,3.6 -4.5,7 -0.3,2.1 -1.2,3 -2.1,3.2"
   id="path280" />
<path
   class="st0"
   d="m 176.3191,68.6 c 0.1,0.4 0.3,1.2 0.6,1.5 0.3,0.3 1.1,1.8 1.6,2.8 0.6,1.3 1,2.8 0.1,4.1 -0.3,0.4 -0.2,0.8 -0.8,1 -0.6,0.2 -1.1,0.3 -1.7,0.5 -3.4,0.1 -6.8,0.7 -10.1,-0.2 -0.9,-0.1 -1.8,-0.2 -2.7,-0.5 -1.3,-0.4 -3.5,-0.2 -3.7,-2 0.1,-0.2 0.5,-0.5 0.1,-0.7 -1.3,-0.7 -1.8,-2.3 -1.9,-2.6 -0.1,-0.2 -0.5,-1.1 -1.1,-1.4 -0.6,-0.4 -1.2,-0.4 -1.6,-0.5 -0.3,-0.1 -1.2,-0.2 -2,-0.2 -0.6,0 -0.8,0.2 -1.3,0.5 -0.2,0.1 -0.3,0.2 -0.5,0.3 -0.1,0.1 -0.2,0.1 -0.3,0.2 -0.4,0.3 -1.2,0.3 -0.9,1.1 -0.5,0.7 -1.4,0.8 -2.2,0.8 -0.3,0 -0.5,0 -0.8,0 -0.4,0.3 -0.1,0.8 0,1.3 -0.1,0.3 -0.2,0.3 -0.1,1 0.3,0.8 0.9,1.6 1.7,1.7 1.1,0.2 2.4,1 2.8,0.7 0.3,-0.2 0.5,-0.1 0.8,-0.1 0.4,0 0.5,0.9 0.8,1.6 0.3,0.6 0.7,1.2 0.8,1.4 0.2,0.4 -0.1,2.9 0.8,4.2 -0.2,1.3 1.2,1.9 0.8,3.2 0.1,1.1 0.2,2.2 0.4,3.4 0,0.5 0.1,1.2 0,1.8 -0.2,0.6 0.1,1.7 -0.8,1.8 -0.5,0.2 -1.2,0.9 -1.2,1.2 0,0.2 0,0.8 0.4,0.9 0.8,0.1 1.9,0.3 2.4,-0.3 1.1,-0.5 0.2,-1.8 1.2,-2.5 0.2,-0.2 0.1,-0.6 0,-0.8 -0.2,-1.5 0,-3 0.3,-4.3 0.6,0.3 0.6,1.1 0.8,1.6 0.3,2 -0.1,3.5 -0.2,5.4 -0.1,0.2 -0.3,0.5 -0.5,0.6 -0.2,0.1 -0.5,0.3 -0.6,0.4 -0.2,0.2 -1.4,0.9 -1,1.7 0.5,0.7 2.4,0.5 2.5,0.4 0.1,0 0.2,-0.1 0.2,-0.1 0.4,-0.3 0.3,-0.9 0.7,-1.1 0.1,-0.6 0.5,-1.1 0.9,-1.7 0.2,-0.1 0.1,-0.5 0,-0.6 0,-0.1 0.1,-0.9 0,-1.4 0.1,-0.9 -0.1,-1.9 0.1,-2.8 0.3,-0.6 0.3,-1.3 0.4,-2 0,-0.2 0.2,-0.6 0.2,-0.9 0,-0.3 0.2,-0.4 0.5,-0.4 0.3,0 2.8,0 4.8,-0.4 0.4,-0.1 0.8,-0.2 1.2,-0.2 1.2,-0.2 2.3,-0.8 3.7,-0.4 0.3,0.1 0.5,0.3 0.8,0.4 0.6,0.2 0.7,0.3 1.1,0.4 0.6,0.1 0.4,1 0.8,1.4 0.2,0.9 0.3,1.9 -0.1,2.9 -0.5,0.4 -0.8,1.5 -1.7,1.5 -0.6,0.3 -1.5,0.8 -1.1,1.5 0.9,0.3 2.7,0.3 2.9,0 0.2,-0.3 0.4,-0.5 0.6,-0.7 0.7,-1.1 1.1,-2.4 2.2,-3.1 0.3,-0.4 -0.1,-1.1 0.4,-1.6 0.5,0 0.5,0.5 1,0.6 1,0.7 1,1.8 1.8,2.6 0.2,1.3 1.2,2.7 0.2,4 -0.5,0.3 -0.8,0.8 -1,1.3 0.3,0.5 1.4,0.4 1.6,0.5 0.2,0.1 1.3,0 1.3,-0.1 0,-0.1 0.9,-1 0.5,-1.7 0.2,-1.3 -0.3,-2.8 0,-4.2 -0.1,-0.4 -0.5,-0.5 -0.7,-0.9 -0.1,-0.7 -0.7,-1.6 -0.9,-2.3 -0.1,-0.5 0.3,-1 0.4,-1.3 0.1,-0.7 0,-1.6 -0.1,-2.5 0,0 -0.7,-3.3 -0.9,-3.6 -0.1,-0.4 -0.3,-0.6 -0.4,-0.8 0,-0.3 -0.6,-1.4 -0.5,-2.3 0,-0.4 0.4,-0.9 0.7,-1.5 0.3,-0.7 0.5,-1.2 0.6,-1.7 0.2,-1.3 -0.4,-3.1 -0.6,-3.6 -0.2,-0.4 -1.6,-2.1 -1.8,-2.3 -0.2,-0.2 -0.5,-0.6 -1,-1.1 -0.5,-0.5 -0.9,-2 -1,-2.3 -0.1,-0.4 -0.2,-0.6 -0.1,-0.9 -0.4,0.4 -0.9,1.4 -0.6,2.4"
   id="path282" />
<g
   id="g286"
   transform="translate(-20.480899,-230.2)">
	<path
   class="st0"
   d="m 150.4,391.6 c -0.2,-1.4 -2,-0.8 -3.1,-1.1 0.6,-0.2 1.5,-0.5 0.9,-1 -1.2,-1 -2.8,-0.6 -4.3,-0.6 -0.7,0 -1.4,0.1 -2,0.1 -2.2,0 -4.2,0.2 -6.4,-0.2 -2.2,-0.4 -4.2,-1.3 -6.4,-1.8 -3,-0.6 -5.9,0.5 -9,0.3 -5.9,-0.4 -11.6,1.4 -17.5,1.3 -1.6,0 -3.2,0 -4.9,-0.4 -3.1,-0.8 -5.9,-1.4 -8.7,-2.7 -2.9,-1.3 -5,-3.5 -6.4,-6.3 -0.8,-1.4 -1.5,-2.8 -2.3,-4.2 1.5,-2.2 3.4,-4.1 4.1,-7 0.2,-0.8 0.3,-2.7 -0.5,-2.2 -2.6,1.8 -5.4,2 -8.1,3 -0.2,0.1 -0.4,0.1 -0.6,0.3 -0.2,-0.4 -0.4,-0.7 -0.7,-0.9 -3,-2.5 -6.7,-4 -8.8,-7.7 -0.2,-0.3 -0.6,-0.6 -0.9,-0.3 -0.2,0.1 0,0.6 0,0.7 1.2,4.7 3.8,8.8 6.9,12.4 0.6,0.6 1.1,1.3 1.6,1.9 0,7.3 3.4,14.1 7.5,20.3 2.5,3.8 5.4,7.1 9.4,9.4 4.4,2.6 9.1,3.8 13.9,4.5 0,0 -0.1,0.1 -0.1,0.1 -0.6,0.6 -1.8,2.2 -0.6,2.4 2.6,0.3 4.7,-0.5 6.7,-1.9 h 0.1 c 13.4,2.4 25.7,-3.6 29.7,-5.7 4.1,-2.1 6.9,-5.7 9.1,-9.7 0.9,-0.5 1.5,-1.9 1.4,-3"
   id="path284" />
</g>
<path
   class="st0"
   d="m 69.919101,140.1 c 0.2,-0.1 0.5,-0.1 0.6,-0.4 0,-0.1 -0.1,0 -0.2,-0.1 -0.1,-0.1 -0.1,-0.1 -0.2,-0.1 -0.1,-0.1 -0.1,-0.1 -0.2,-0.2 -0.1,-0.2 -0.2,-0.2 -0.3,-0.5 -0.1,-0.3 0,-0.4 0,-0.7 0.1,-0.3 0.3,-0.6 0.5,-0.8 0.1,-0.1 0.2,-0.2 0.4,-0.2 0.6,-0.1 0.9,0.1 1.2,0.4 0.1,0.1 0.1,0.2 0.2,0.3 0.1,0.1 0.1,0.3 0.2,0.3 0.1,0 0.1,-0.2 0.2,-0.3 0.1,-0.1 0.1,-0.2 0.2,-0.3 0.1,-0.1 0.1,-0.1 0.1,-0.2 0,0 0.3,-0.4 0.7,-0.6 0.4,-0.4 0.8,-0.7 1.2,-1 0.3,-0.1 0.5,-0.2 0.8,-0.4 0.3,-0.2 0.4,-0.2 0.8,-0.4 0.3,-0.1 0.6,-0.2 1,-0.3 0.1,0 0.2,-0.1 0.5,-0.2 0.3,-0.1 0.6,-0.1 1,-0.2 0.3,0 0.4,0 0.9,-0.1 0.6,-0.1 1.2,-0.1 1.8,0 0.9,0.1 1.5,0.1 2.2,0.3 0.4,0.1 0.6,0.2 1,0.3 0.6,0.2 1.2,0.5 2,0.6 0.7,0.1 1.5,0.3 2.3,0.3 0.4,0 0.7,0 1.1,0 0.6,0.1 2,0.2 2.2,0.2 0.9,0.2 1.9,0.3 2.8,0.5 0.5,0.1 1.1,0.3 1.5,0.5 0.4,0.1 0.7,0.1 1,0.3 0.2,0.1 0.4,0.1 0.7,0.2 0.1,0 0.3,0.1 0.3,0.2 0.4,0.2 1.3,0.5 1.899999,0.8 0.3,0.2 0.5,0.4 0.8,0.6 0.3,0.2 0.6,0.4 0.8,0.6 0.4,0.3 0.5,0.6 0.7,0.9 0.3,0.3 0.5,0.6 0.8,0.9 0.1,0.1 0.3,0.3 0.5,0.4 0.1,0 0.2,0 0.3,0.1 0.4,0.1 0.8,0.2 1.3,0.2 0.5,0.1 0.9,0.1 1.4,0.3 0.3,0.1 0.5,0.2 0.7,0.3 0.1,0.1 0.2,0.1 0.3,0.2 0,0 0,0 0,0 0.1,0.1 0.1,0.2 0.1,0.4 -0.1,0.2 -0.2,0.1 -0.4,0.1 -0.5,0.1 -1,0.1 -1.3,0.2 -0.1,0.1 -0.3,0.2 -0.4,0.3 -0.2,0.1 -0.3,0.1 -0.5,0.2 -0.3,0.1 -0.3,0.2 -0.4,0.4 0,0.4 0.2,0.7 0.4,0.9 0.1,0.2 0.1,0.2 0.2,0.4 0.1,0.1 0.1,0.3 0.2,0.5 0.1,0.1 0.2,0.2 0.3,0.2 0.4,0.2 0.9,0.3 1.4,0.4 0.1,0 0.1,0.1 0.1,0.2 0.1,0.3 0,0.6 -0.1,0.9 -0.1,0.2 -0.2,0.3 -0.2,0.4 -0.1,0.2 -0.2,0.4 -0.3,0.6 -0.1,0.1 -0.1,0.2 -0.3,0.2 -0.3,0.1 -0.5,0.1 -0.8,0 -0.2,0 -0.3,0 -0.5,0 -0.2,0 -0.3,-0.1 -0.5,-0.1 -0.2,0 -0.3,0 -0.5,0 -0.3,0.1 -0.6,0.3 -0.8,0.4 -0.2,0.2 -0.3,0.1 -0.5,0.2 -0.2,0 -0.3,0.1 -0.5,0.2 -0.2,0 -0.3,0 -0.5,0 -0.6,0 -1.1,0 -1.6,-0.1 -0.2,0 -0.4,-0.1 -0.599999,-0.2 -0.2,-0.1 -0.4,-0.2 -0.6,-0.2 -0.2,-0.1 -0.4,-0.2 -0.6,-0.2 -0.3,-0.1 -0.4,-0.2 -0.7,-0.1 0.1,0.3 0.3,0.5 0.5,0.7 0.1,0.1 0.2,0.1 0.3,0.2 0.1,0.1 0.2,0.2 0.3,0.3 0.2,0.1 0.5,0.3 0.7,0.5 0.199999,0.2 0.499999,0.3 0.699999,0.5 0,0 0.1,0.2 0.1,0.2 0.1,0.2 0.2,0.4 0.3,0.7 0,0.1 0,0.2 0.1,0.2 0.1,0.3 0.2,0.5 0.2,0.7 0,0.2 0.1,0.5 0.1,0.7 -0.3,0.1 -0.6,0 -0.9,-0.1 -0.2,-0.1 -0.4,-0.3 -0.599999,-0.4 -0.2,-0.1 -0.3,-0.4 -0.6,-0.4 -0.2,0 -0.3,0.1 -0.5,0 0,0 0,0 -0.1,-0.1 -0.2,-0.2 -0.2,-0.5 -0.3,-0.8 -0.1,-0.2 -0.3,-0.4 -0.5,-0.5 -0.3,-0.1 -0.6,-0.1 -0.9,-0.1 -0.1,0 -0.2,-0.1 -0.3,-0.1 -0.2,-0.1 -0.4,-0.2 -0.7,-0.3 -0.3,-0.1 -0.4,-0.1 -0.7,-0.3 -0.2,-0.1 -0.5,-0.2 -0.7,-0.4 -0.3,-0.2 -0.6,-0.4 -0.9,-0.6 -0.1,-0.1 -0.3,-0.1 -0.5,-0.2 -0.2,-0.2 -0.5,-0.3 -0.7,-0.5 -0.2,-0.1 -0.5,-0.4 -0.8,-0.4 -0.1,0 -0.1,0.1 -0.1,0.1 0,0.1 -0.1,0.1 -0.1,0.2 -0.1,0.3 -0.2,0.5 -0.1,0.8 -0.2,0.5 -0.4,1.1 -0.7,1.6 -0.2,0.2 -0.4,0.4 -0.6,0.5 0,0.1 -0.2,0.1 -0.3,0.3 -0.1,0.1 -0.2,0.2 -0.2,0.3 0,0.3 0.2,0.4 0.3,0.6 0.1,0.1 0.2,0.2 0.3,0.3 0.1,0.1 0.2,0.2 0.3,0.3 0.2,0.2 0.5,0.4 0.4,0.8 -0.5,0 -0.8,0.1 -1.3,0.1 0,0 0,0 -0.1,0 -0.2,0 -0.5,0 -0.7,0 0,0 0,0 0,0 -0.1,0 -0.2,-0.1 -0.3,-0.1 -0.1,-0.1 -0.1,-0.3 -0.2,-0.5 -0.1,-0.1 -0.2,-0.2 -0.3,-0.3 -0.1,-0.1 -0.2,-0.1 -0.3,-0.2 -0.3,-0.1 -0.4,-0.3 -0.5,-0.6 0,-0.3 0.2,-0.4 0.3,-0.7 0,-0.7 -0.2,-1.1 -0.3,-1.7 0,-0.3 -0.1,-0.5 0,-0.8 0,-0.3 0,-0.5 -0.1,-0.6 -0.4,0 -0.7,0.1 -0.9,0.2 -0.5,0.1 -1.1,0.1 -1.5,0.1 0,0 -0.1,0 -0.1,0 -0.5,0 -0.8,-0.1 -1.2,-0.1 -0.2,-0.1 -0.4,-0.1 -0.6,-0.1 -0.2,0 -0.5,-0.1 -0.7,-0.1 -0.4,0 -0.8,-0.2 -1.1,-0.4 -0.4,0 -0.7,-0.2 -1.2,-0.2 -0.1,0.1 -0.2,0.2 -0.3,0.3 -0.1,0.2 -0.1,0.3 -0.2,0.5 -0.1,0.2 -0.3,0.5 -0.5,0.7 0,0.1 0,0.1 -0.1,0.2 0,0.1 0,0.1 -0.1,0.2 0,0.1 -0.1,0.1 -0.2,0.2 -0.1,0.1 -0.2,0.2 -0.3,0.3 0,0 0,0 0,0 -0.1,0.1 -0.2,0.2 -0.2,0.3 -0.1,0.7 0.2,1 0.2,1.6 0.2,0.3 0.3,0.5 0.6,0.7 0.1,0.3 0.5,0.4 0.6,0.8 -0.3,0.2 -0.9,0.1 -1.3,0.1 -0.2,0 -0.3,0 -0.5,0 -0.2,0 -0.4,0 -0.5,0 -0.2,-0.2 -0.2,-0.4 -0.3,-0.6 -0.2,-0.2 -0.3,-0.3 -0.5,-0.5 -0.1,-0.3 -0.2,-0.5 -0.2,-0.9 -0.1,-0.1 -0.1,-0.3 -0.2,-0.4 -0.3,-0.4 -0.5,-0.9 -0.7,-1.3 0,-0.1 -0.1,-0.3 0,-0.3 0,0 0.1,-0.1 0.1,-0.1 0,0 0.1,0 0.2,-0.1 l 0.1,-0.1 c 0.1,-0.1 0,0 0.1,-0.1 l 0.1,-0.1 0.1,-0.1 0.1,-0.1 0.1,-0.1 c 0,0 0,0 0,-0.1 0,-0.1 -0.4,-0.2 -0.5,-0.1 -0.1,0.1 -0.1,0.1 -0.1,0.1 l -0.1,0.1 -0.1,0.1 -0.1,0.1 -0.1,0.1 h -0.1 c -0.1,0 -0.1,0 -0.2,0.1 l -0.1,0.1 c 0,0 -0.1,0.1 -0.2,0.1 -0.1,0 -0.2,0 -0.2,0.1 -0.2,0.1 -0.4,0.1 -0.6,0.2 -0.1,0.2 -0.1,0.4 -0.2,0.6 0,0.2 -0.1,0.4 -0.2,0.6 -0.1,0.2 -0.1,0.4 -0.2,0.5 0,0.2 -0.2,0.3 -0.2,0.5 -0.1,0.1 -0.2,0.2 -0.3,0.4 -0.1,0.1 -0.2,0.2 -0.3,0.3 -0.1,0.1 -0.3,0.2 -0.4,0.3 -0.2,0.1 -0.3,0.2 -0.4,0.2 -0.2,-0.1 -0.3,-0.3 -0.3,-0.6 0,-0.3 0,-0.4 0,-0.8 0,-0.2 0.1,-0.3 0.1,-0.5 0,-0.2 0.1,-0.3 0.1,-0.5 -0.1,-0.2 -0.2,-0.4 -0.2,-0.7 0.2,-0.4 0.4,-0.7 0.6,-1.1 0.1,-0.3 0,-0.7 0.1,-1 0,-0.4 0,-0.7 0.1,-1 0.1,-0.1 0.2,-0.2 0.4,-0.2 0.2,0 0.3,-0.1 0.5,-0.1 0.3,-0.2 0.6,-0.5 0.4,-0.9 -0.1,-0.1 -0.2,-0.2 -0.3,-0.3 -0.1,-0.1 -0.2,-0.2 -0.3,-0.3 0,-0.1 -0.1,-0.1 -0.1,-0.2 -0.1,0 -0.1,-0.1 -0.2,-0.1 -0.1,-0.1 -0.2,-0.2 -0.3,-0.3 -0.1,-0.2 -0.2,-0.4 -0.3,-0.5 -0.1,-0.2 -0.2,-0.4 -0.3,-0.5 -0.1,-0.5 -0.3,-0.9 -0.3,-1.6 0,-0.2 -0.1,-0.3 -0.1,-0.5 0,-0.3 0,-0.6 0.1,-0.8 0,-0.3 0.1,-0.5 -0.2,-0.6 -0.2,0 -0.1,0.1 -0.3,0.1 -0.1,0 -0.2,0.1 -0.3,0.1 -0.1,0 -0.1,0.1 -0.2,0.1 -0.3,0 -0.5,0 -0.8,-0.1 -0.1,-0.1 -0.4,-0.3 -0.2,-0.5 0.4,-0.3 0.6,-0.2 0.9,-0.2 m 0.8,-1.6 c 0,0 0.1,0.2 0.2,0.2 0.1,0 0.2,0.1 0.2,0.1 l 0.1,-0.4 -0.1,-0.3 c 0,0 -0.1,-0.1 -0.2,-0.2 -0.1,0 -0.2,0 -0.2,0 h -0.1 l -0.1,0.2 z"
   id="path288" />
<path
   class="st0"
   d="m 108.2191,41.8 -0.8,-0.4 -0.2,-0.1 -0.5,-0.2 -0.3,-0.2 h -0.2 l -0.2,-0.2 v -0.4 l 0.1,-0.2 0.3,-0.4 0.3,-0.5 0.3,-0.9 c 0.3,-3.3 -3.6,-3.1 -4.6,-5.5 l -0.5,-1.3 -0.2,-0.2 h -0.1 v 0.1 0.1 l 0.1,0.1 0.2,1.3 0.2,0.3 0.3,0.6 0.9,1 0.4,0.4 0.5,0.4 h 0.1 c 1.5,1 1.2,2.3 0,3.4 l -0.3,0.3 h -0.1 l -0.4,0.5 -0.1,0.5 -0.1,0.6 v 0.5 l 0.1,0.4 0.1,0.3 0.4,0.4 0.4,0.3 0.8,0.3 0.1,0.1 h 0.2 l 0.3,0.1 c 1.6,0.2 2.8,1.4 3.4,2.9 v 0.4 l -0.1,0.1 h -0.1 l -0.1,0.2 -0.1,-0.1 -0.3,-0.2 v 0 l -0.1,-0.1 -0.2,-0.1 -0.1,-0.2 -0.5,-1 -0.1,-0.3 -0.2,-0.1 c -0.6,-0.9 -1.3,-0.6 -2.2,-0.6 l -0.2,0.1 -0.6,-0.1 -0.3,0.3 v 0.2 l 0.1,0.1 v 0.1 0.1 0.3 l 0.2,0.3 v 0.3 l 0.1,0.2 0.3,0.2 v 0 l -0.1,0.1 v 0.2 l 0.3,0.3 0.5,0.4 v 0 l 0.4,0.2 0.3,0.1 h 0.3 l 0.1,0.1 0.9,0.2 0.1,0.1 0.3,0.1 0.3,0.2 0.2,0.4 0.1,0.4 -0.1,0.8 0.1,0.7 0.1,0.2 V 51 l 0.2,0.2 v 0.5 l 0.1,0.7 0.1,0.3 v 2.2 1.1 l 0.1,1 v 0.6 l 0.2,0.9 0.3,0.7 v 0.3 l -0.1,1 0.2,0.7 h 0.1 v -0.9 l 0.1,-0.1 v 0 l 0.2,1 0.4,1 0.2,0.3 0.1,-0.1 v -0.1 0 l -0.1,-0.5 0.1,-0.2 v 0 0.2 l 0.1,0.5 0.3,0.8 v 0 0 -0.2 l -0.1,-0.3 0.1,-0.7 0.1,0.1 0.1,0.6 0.2,0.6 0.3,0.6 h 0.1 v -0.1 l -0.1,-0.1 v -0.4 l 0.1,-0.1 v 0 l 0.1,0.4 0.4,0.6 h 0.1 v -0.2 l -0.1,-0.2 0.1,-0.1 0.1,0.1 v 0 l 0.6,0.8 h 0.1 v -0.1 -0.1 l -0.1,-0.1 v -0.1 0 l 0.5,0.7 0.1,-0.1 v -0.1 l -0.1,-0.2 v -0.2 l 0.9,1 v 0.1 h 0.1 v 0 0 -0.4 0 0 l 0.2,0.3 0.1,-0.1 v 0 l 0.2,-0.4 0.2,0.2 h 0.1 l 0.2,-0.2 v 0.1 h 0.1 l 0.2,0.2 v 0 -0.2 0 c 0,-0.1 0,-0.1 0,-0.2 l 0.1,0.3 0.1,0.7 c 0.3,2 0.7,4 0.7,6 l 0.2,0.5 v 0.2 l 0.2,0.3 0.2,0.7 0.1,0.5 0.1,0.6 -0.1,0.9 -0.1,1.6 -0.2,1 -0.4,0.9 -0.6,0.7 -0.7,1.3 -0.1,0.6 0.3,0.1 0.9,0.1 0.2,-0.1 h 0.3 l 0.2,-0.1 v -0.1 l 0.1,-0.1 v -0.7 l 0.1,-0.3 0.1,-0.2 h 0.1 0.2 l 0.4,-0.3 0.1,-0.2 v -0.4 -0.3 l 0.1,-0.5 0.1,-0.9 0.1,-0.4 v -0.4 l 0.1,-0.3 c 0.2,-2.3 -0.5,-2.6 0.2,-4.8 V 71 l 0.1,-0.3 0.2,0.3 0.3,1.1 c 0.2,1.6 0.3,3.1 0.4,4.7 l -0.1,0.2 v 0.4 c -0.5,1 0,1.4 -0.9,2.5 l -0.2,0.6 0.1,0.2 h 0.1 0.3 0.3 l 0.2,0.1 h 0.9 l 0.2,-0.1 0.2,-0.7 v -0.4 l 0.1,-0.4 0.4,-0.6 0.1,-0.4 -0.1,-0.4 -0.2,-1.1 v -0.3 c -0.3,-3.4 -0.6,-6.6 -0.4,-10 l 0.2,-1.2 -0.1,-0.2 0.1,-0.1 0.9,-0.2 0.2,-0.1 h 0.8 l 0.4,0.1 1.5,0.1 0.3,0.1 1.3,-0.1 0.7,-0.2 v 0 h 0.1 0.2 c 1,-0.3 2.6,-1.1 3.6,-1 l 0.3,0.1 0.8,0.1 0.3,0.2 c 3.3,6.6 4.2,6.6 2.2,13.7 l -0.6,1.3 -0.3,0.5 h -0.1 v 0.1 l -0.4,0.8 v 0.2 l 0.2,0.1 h 0.4 c 1.7,0 1.6,0.2 1.4,-1.6 l 0.4,-0.4 0.2,-0.5 c 0.6,-2.4 1.1,-4.2 1.9,-6.5 l 0.2,-0.3 v -0.6 0 l 0.1,0.2 c 0.9,2.9 2.2,6.6 0.5,9.4 l -0.3,0.8 0.2,0.2 h 0.6 l 0.3,0.1 0.2,-0.1 h 0.2 l 0.1,0.1 0.4,-0.1 0.1,-0.2 0.1,-0.2 v -0.9 l 0.1,-0.6 0.2,-0.3 0.3,-0.3 0.1,-0.2 v -0.2 l -0.2,-0.7 v -0.1 l -0.3,-1.4 -0.1,-0.5 v -0.5 l -0.1,-0.2 -0.2,-1 -0.1,-2 0.1,-0.3 v -1.1 l 0.1,-1 0.2,-1.2 -0.1,-0.3 -0.8,-0.5 -0.4,-0.5 -0.9,-1.2 -0.3,-0.8 V 65 l 0.1,0.2 h 0.1 l 0.1,-0.1 0.2,0.3 h 0.1 l 0.1,-0.1 0.1,0.1 v 0.1 h 0.2 l 0.5,0.5 v 0 l 0.2,-0.1 -0.3,-0.7 c -0.6,-1.3 -0.5,-1.9 -0.4,-3.3 l 0.1,-0.2 h 0.1 l 0.1,-0.7 0.1,-0.1 0.1,-1 h 0.2 l 0.1,-0.6 0.1,-0.2 v 0 l 0.1,-0.1 v 0 l -0.2,-1.1 0.2,-0.1 v 0 l -0.2,-0.4 0.2,-0.1 v -0.2 l -0.3,-0.5 -0.1,-0.2 0.1,-0.1 -0.5,-0.6 -0.2,-0.4 -0.3,-0.3 -0.6,-0.3 -0.9,-0.5 -1.1,-0.5 -1,-0.5 -0.3,-0.1 -0.1,-0.1 h -0.2 l -1.3,-0.4 c -2.4,-0.5 -3,-0.8 -5.5,-0.4 h -0.9 -0.1 v 0 0 l -0.3,-0.1 v 0 h -0.5 l 0.4,-0.3 -0.1,-0.2 -0.7,-0.3 v -0.1 l 0.1,-0.1 V 51 l -0.3,-0.1 -0.3,-0.2 v 0 l 0.2,-0.1 v -0.1 l -0.1,-0.1 h -1 v 0 l 0.2,-0.1 v -0.1 l -0.2,-0.1 -0.9,-0.1 v 0 0 h 0.1 l 0.2,-0.2 v 0 l -0.2,-0.1 h -0.5 l -0.1,-0.1 0.1,-0.1 -0.1,-0.1 h -0.3 l -0.4,-0.1 v 0 0 l 0.1,-0.1 h -1.2 v 0 l 0.1,-0.1 v 0 -0.2 l -0.2,-0.1 v 0 0 l 0.1,-0.1 v -0.1 h -0.1 l -0.6,0.2 -0.2,0.1 -0.7,0.3 h -0.1 l 0.1,-0.1 0.1,-0.3 h -0.1 l -0.9,0.5 v 0 l 0.3,-0.3 v -0.1 h -0.1 l -0.3,0.3 v 0 l -0.3,0.2 -0.6,0.4 v 0 l 0.1,-0.1 v -0.3 h -0.1 l -0.3,0.2 -0.8,0.9 v 0 -0.1 l 0.3,-0.4 v -0.2 h -0.1 l -0.5,0.3 -0.5,0.7 -0.1,-0.2 -0.1,0.1 -0.1,0.3 v 0 0 l -0.1,-0.3 h -0.1 v 0.4 l -0.1,0.1 v 0 l -0.2,-0.6 h -0.1 v 0.2 l -0.2,0.3 -0.2,-0.1 -0.2,-0.3 -0.2,-0.2 v 0 l -0.1,0.1 v 0 l -0.3,-0.6 -0.2,-0.2 -0.1,-0.2 0.1,-0.6 0.3,-0.6 0.2,-0.2 h 0.2 l 0.6,-0.3 0.1,-0.1 h 0.3 l 0.7,-0.3 0.2,-0.2 0.9,-0.9 0.4,-0.8 0.1,-0.5 v -0.7 l -0.1,-0.2 h -0.3 l -0.1,-0.1 h -0.6 l -0.7,0.2 -0.1,0.1 -0.3,0.1 v 0 l -0.5,0.3 -0.7,0.7 -0.2,0.2 -0.5,0.6 -0.4,0.3 h -0.2 l -0.1,-0.1 v -0.2 0 0 l 0.4,-0.6 0.1,-0.2 0.6,-0.7 v 0 l 0.5,-0.7 0.6,-0.5 c 1.4,-1.3 3.3,-0.6 4.4,-1.7 l 0.3,-0.4 0.2,-0.8 -0.1,-0.5 -0.3,-0.5 -0.6,-1 -0.3,-0.5 -0.1,-0.5 -0.2,-0.6 v -2 l 0.1,-0.5 0.4,-0.7 2.3,-2.5 0.3,-0.3 V 31 h -0.1 c -3.2,1.2 -6.5,6 -4,9.2 v 0.2 h -0.5 c -1.4,0.1 -2.9,0.9 -3.8,1.9 l -0.9,1 v 0 0 l -0.1,0.2 v 0 0.1 0 0 l -0.7,1.5 -0.4,-1 -0.7,-1.1 -0.7,-0.6"
   id="path290" />
<line
   class="st0"
   x1="115.5191"
   y1="50.900005"
   x2="115.5191"
   y2="50.900005"
   id="line292" />
<path
   class="st0"
   d="m 127.9191,121.6 c -0.1,-0.7 -1.6,-1 -1.6,-2.3 0,-0.5 0.3,-0.7 0.7,-0.7 0.4,0 0.6,0.2 0.8,0.4 0.1,-0.1 0.1,-0.3 0.1,-0.5 0,-0.7 -0.6,-0.9 -1.1,-1 -0.2,-0.7 0.7,-1.4 0.7,-1.4 -0.2,-0.1 -0.7,-0.3 -0.8,0 0,-0.5 -0.2,-0.6 -0.2,-1 -0.4,0 -0.7,0.2 -0.7,0.2 -0.2,0 -0.8,-1.3 -1.2,-0.5 -0.4,-0.3 -0.9,-0.6 -1.5,-0.7 0.1,0.3 0.1,0.5 0.2,0.9 -1.1,-0.6 -2.1,-0.4 -2.1,-0.4 0,0 0,0.3 0.2,0.7 -0.4,0 -0.6,0 -1,-0.1 0.5,1.3 1,2.3 3.1,1.9 -0.8,0.7 -1.6,1.6 -2,2.6 -0.4,0.8 -0.6,2.1 -0.7,2.4 0,0.3 0,0.8 0,1.1 0,0.3 -0.1,1 -0.2,1.5 -0.1,0.6 -0.3,0.9 -0.6,1.4 -0.4,0.7 -1.1,0.8 -1.7,1.3 -0.7,0.5 -1.2,1.2 -1.9,1.6 -0.3,0.2 -0.7,0.2 -1.2,0.2 0,-0.4 -0.3,-0.5 -0.4,-0.8 -0.6,-1.6 -1.5,-2.5 -2.8,-3.4 -1,-0.3 -1.3,-0.8 -2.2,-1.2 -0.6,-0.2 -0.8,-0.4 -1.1,-0.4 -0.4,0 -2.6,0 -3,0.1 -0.4,0.1 -0.4,0.4 -0.7,0.6 -1,0.8 -1.8,2.9 -2.2,4.2 -0.4,1.5 -0.3,2.3 -1.3,3 0.1,0 0.2,0.1 0.2,0.1 0.4,0 1.9,-0.4 2.2,-0.7 0.8,-1.3 0.5,-3.2 1.8,-4.4 0,0.6 -0.2,1 -0.2,1.5 0.1,0 0.7,0 0.8,0 0.6,-0.2 0.6,-1.2 1.5,-1.2 0.3,0 0.4,0.1 0.7,0.2 -0.5,0.1 -1,0.4 -1.1,0.8 0.4,0.1 0.9,0 1.3,0.3 -0.7,0.7 -1.4,1.4 -1.4,2.7 0,0.7 0.2,1.1 0.5,1.5 0.1,-0.2 0.3,-0.6 0.5,-0.6 0.3,0 0.3,0.6 0.5,0.8 0.4,0.6 1.2,2.1 1.9,2.1 -0.1,0 0.5,0.1 -0.2,0.9 -0.3,0.4 -0.3,0.8 -0.9,0.9 h 0.4 c 0.8,0 1.1,-0.2 1.4,-0.7 0.2,0.5 0.2,1.1 0.4,1.7 0,1.5 0,1 0,1.5 0.5,-0.2 0.9,-0.6 1.1,-1 0.2,-0.5 0.2,-0.9 0.5,-1.2 0.2,0.4 0.3,1.1 0.5,1.5 0.4,-0.1 0.6,-0.7 0.7,-1.1 0.2,0.3 0.6,0.9 0.9,1.1 h 1 l 0.3,0.1 c 0.3,0.5 0.1,1.2 0.6,1.2 0.2,0 0.4,-0.2 0.5,-0.2 0.1,0.6 -0.6,0.6 -0.6,0.9 0,0.2 0,1.1 0,1.6 -0.1,-0.1 -0.5,-0.5 -0.8,-0.5 -0.1,0 0,0.6 0,0.7 0.1,0.4 0.7,0.1 0.7,0.9 0,0.8 -1.1,1.6 -1.5,1.9 l 0.3,0.2 c 0.2,0 0.4,-0.1 0.5,-0.1 0.5,0 0.6,-0.2 0.9,-0.2 0.2,0 0.4,0.4 0.4,0.4 0.3,0 0.8,0.1 1.2,0.7 0.8,-0.2 1.3,0.4 1.6,0 -0.2,-0.6 -0.6,-0.5 -1.1,-0.8 0.2,-0.1 0.3,0 0.5,0 0.4,0 0.7,0.1 1.1,0.1 -0.4,-0.8 -1.2,-1.1 -2.5,-0.8 -0.2,0.1 -0.2,-1.8 -0.2,-2.5 0,-0.1 0.2,-0.5 0.3,-0.5 0.1,0.4 0.3,1.1 -0.3,1.3 v 0.2 c 0.8,0 1.1,0.6 1.2,0.5 0.5,-0.1 1.2,0.2 1.4,0.5 0.4,0.1 0.5,0.1 0.8,0.1 0.5,0 0.6,0.1 1,0.3 0,-0.3 -0.5,-0.6 -1.1,-1 0.5,0 0.9,0.1 1.1,0.4 -0.1,-1 -0.4,-0.7 -1.2,-1.1 -0.2,-0.1 -0.3,-0.4 -0.6,-0.4 -0.3,0 -0.8,0.1 -1,0.1 -0.5,0 -0.5,0 -0.5,-0.7 0,-0.4 0.3,-0.6 0.3,-0.9 0,-0.4 -0.2,-0.9 -0.2,-1.2 0.5,-0.5 1,-0.7 1.3,-1.2 0.1,-0.2 0.1,-0.7 0.3,-0.7 1.3,0 1.1,-1.8 1.7,-1.8 0.7,0 1.8,-0.9 2.1,-1.7 0.1,-0.2 0,-0.6 0.1,-0.8 0.5,-0.7 1.3,-0.9 1.7,-1.5 0.5,-0.7 0.6,-0.8 0.8,-1.7 0,0 0.5,-2.3 0.1,-3.7 -0.3,-0.8 -0.7,-1.4 -1.2,-1.9 -0.5,-0.5 -0.8,-1.5 -0.8,-2 0.2,0.4 0.7,1 1.3,1 0.9,0 0.6,-0.2 0.9,-0.8 -0.1,0.2 0.1,-0.1 0,-0.8"
   id="path294" />
<path
   class="st1"
   d="m 137.2191,167.2 0.1,-0.1 c 3.1,-1.4 2.2,-3 7.3,-4.6 h 0.1 c 0,0 0.2,-0.1 0.2,0 0,0 0.1,0.1 0.2,0.4 0.1,0.2 0.1,0.8 0.3,0.8 0.4,-0.1 0.4,-0.4 0.6,-0.7 0,-0.1 0.2,-0.4 0.2,-0.5 0,-0.1 0.3,-0.2 0.3,-0.2 0,0 0.7,-0.3 1.4,-0.7 0.6,-0.4 1.3,-0.9 1.4,-0.9 0.2,-0.2 0.5,-0.3 0.6,-0.5 0.2,-0.2 0.8,-0.7 0.9,-0.9 0.1,-0.2 0.2,-0.3 0.2,-0.3 l 0.2,-0.3 0.2,-0.3 0.2,-0.3 0.2,-0.3 c 1.1,-1.6 1.9,-3.4 2.5,-5.3 l 0.2,-0.6 0.2,-0.6 0.2,-0.6 0.2,-0.6 v 0 0 0 0 0 0 0 0 c 0.1,-0.1 0.1,-0.1 0.2,-0.1 h 0.1 0.1 0.1 0.1 0.1 c 0.6,0.2 1.2,0.4 1.8,0.5 l 0.2,0.1 0.2,0.1 c 0.5,0.1 1.1,0.2 1.6,0.2 h 0.2 0.2 0.2 0.2 c 0.4,-0.1 0.8,-0.4 1.1,-0.7 l 0.1,-0.2 0.1,-0.2 c 0,-0.2 0,-0.4 -0.1,-0.6 v -0.1 -0.1 -0.1 -0.1 -0.1 -0.1 c -1.5,-2.8 -6,-4.5 -8.1,-7.2 l -0.1,-0.3 -0.1,-0.3 c -1.8,-4.2 -4.4,-8 -8.1,-10.8 l -0.3,-0.2 -0.3,-0.2 -0.3,-0.2 v -0.2 -0.2 c 0.1,-1.3 -0.2,-1.7 -0.9,-2.8 l -0.1,-0.2 -0.1,-0.2 c -0.7,-0.8 -1.6,-1.5 -2.7,-1.4 h -0.2 -0.2 l -0.1,0.1 -0.1,0.1 -0.1,0.1 c -0.6,1.5 -1.3,1.4 -2.7,1 h -0.1 -0.1 c -1.3,0.5 -1.4,1.6 -3.2,1.3 h -0.5 -0.2 c -2.2,-0.1 -1.4,2.5 -0.5,3.5 l 0.1,0.1 0.1,0.1 0.1,0.1 c 0.2,0.3 0.5,0.4 0.8,0.5 h 0.1 0.1 c 0.8,0.2 0.7,0 1.3,0 h 0.1 0.1 0.3 0.4 l 0.1,0.2 0.1,0.2 c 0.4,1.4 1.1,2.8 1.9,4.1 l 0.1,0.2 0.1,0.2 0.1,0.2 0.3,0.4 0.3,0.4 0.3,0.4 0.3,0.4 h 0.1 0.1 0.1 l 0.1,0.1 c 0.2,0.2 0.3,0.3 0.4,0.5 v 0.1 0.1 0.1 0 c 0.5,0.3 1.3,1.7 1.5,2.2 v 0 l -0.2,0.2 -0.3,0.3 -0.4,0.3 c -1.4,1.3 -4.7,4.3 -4,6.4 l 0.1,0.1 0.2,0.1 c 1.2,0.8 2.7,0.4 3.9,-0.1 l 0.1,-0.1 0.3,-0.1 0.3,-0.1 h 0.2 c 1,-0.2 2.2,-0.6 3.1,0.2 l 0.2,0.4 0.2,0.3 c 1.3,2.8 1.4,5 -0.2,7.7 l -0.2,0.3 -0.2,0.3 -0.2,0.3 c 0,0 -0.1,0.2 -0.2,0.3 -0.1,0.1 -0.2,0.2 -0.2,0.2 h -0.1 c -0.4,0.3 -0.7,0.3 -1.2,0.5 l -0.2,0.1 c 0,0 -0.2,0.1 -0.3,0.1 -0.1,0 -0.4,-0.2 -0.4,-0.3 -0.1,-0.1 -0.2,-0.3 -0.2,-0.3 l -0.2,-0.3 -0.2,-0.3 -0.2,-0.3 c -1.1,-1.7 -2.3,-3.7 -4.4,-4.3 l -0.3,-0.1 -0.3,-0.1 c -1.8,-0.4 -3.7,-0.1 -2,1.9 l 0.2,0.2 0.2,0.2 0.2,0.2 c 4.4,2.9 4.3,4.4 1.5,8.9 v 0.6 l -0.3,0.4 c 0,0 -0.1,0.2 -0.2,0.4 -0.1,0.2 -0.1,0.3 -0.1,0.4 0,0 -0.1,0.7 0.2,1 0.1,0.1 0.2,0.2 0.5,0.3 0.4,0 0.6,-0.1 0.6,-0.1"
   id="path296" />
<path
   class="st0"
   d="m 180.2191,107.8 c 0.2,0.2 0.4,0 0.3,-0.1 -0.6,-0.7 -1.4,-1.1 -2.3,-1.4 -0.9,-0.3 -1.7,-0.3 -2.4,-0.3 -1.2,0.1 -2,1.2 -2.5,2.1 -0.2,0 -0.4,0 -0.5,0.1 -0.6,-0.4 -0.5,-0.7 -0.3,-1.4 0,0 0,0 -0.1,0 0.1,-0.1 0.4,-0.5 0.5,-1.4 0.6,-0.9 1.4,-1.8 1,-3 -0.2,-0.5 -0.3,-1.1 -0.7,-1.7 -0.3,-0.5 -1.1,-0.6 -1.3,-0.5 -1.1,1.4 -3.3,2.5 -3.8,4.3 0,0 0,0 0,0 -0.8,0.8 -0.3,2.2 -0.9,3.1 -0.8,1.3 -1.9,2.3 -2.4,3.8 -0.2,0.6 -1,0.7 -1.4,0.6 -4.2,-1.4 -7.3,0.6 -9.4,2.6 -0.5,0.5 -1.1,1.2 -1.8,1.6 -0.9,0.5 -1.1,1.5 -1.5,2.4 -0.3,0.6 0.2,1.4 1.1,1.6 0.2,0 0.6,0.1 0.7,-0.1 1.3,-2.1 4.6,-2.3 7,-3.1 0.5,-0.2 1,-0.5 1.4,-0.9 0.3,0.3 0.2,0.6 0.2,0.8 0,0.7 -0.1,1.6 0,2.4 -0.5,2.2 -0.6,4.7 -0.4,7.3 0.1,1.1 0.1,2.2 0.4,3.3 -0.5,1.9 -0.1,4.1 -0.5,6.1 -0.3,1.3 0.6,4.4 1.4,4.3 0.8,-0.1 1.8,-1.7 2.1,-2.3 0.3,-0.6 1.2,-2.6 1.3,-2.9 0.4,0.1 0.7,0.1 1.1,0.1 0.6,-0.1 1,-0.3 1.4,-0.5 0.6,0.8 1.7,2 2.4,1.6 1.6,-0.7 1.6,-2.8 1.3,-4.7 0,-0.2 -0.2,-0.6 -0.3,-0.8 0.5,-0.9 1,-1.9 1.6,-3.2 2.2,-4.8 5.1,-9.6 3.2,-15.7 -0.1,-0.3 -0.2,-0.6 -0.3,-0.9 0.2,0.1 0.3,0.2 0.5,0.2 1.5,0.5 2.5,-1.2 3.9,0.2 1.5,-0.6 1.7,-2.6 0,-3.6"
   id="path298" />
<path
   class="st0"
   d="m 150.6191,100.8 c 0.1,-0.2 -0.2,-0.1 -0.3,-0.2 0,-0.1 0.5,-0.5 0,-0.5 0,-0.1 0,-0.1 0,-0.2 -1.6,-0.3 -3.1,-0.7 -4.7,-1 0.1,-0.1 0.3,0 0.4,0 0.1,-0.4 -1.9,-0.6 -2,-1 -0.5,-0.3 -1.1,-0.4 -1.4,-1 -0.3,-0.3 -0.6,-0.5 -0.8,-0.9 0,0 0.1,-0.2 0,-0.2 -0.9,-0.5 -1.3,-1.5 -2,-2.2 -0.1,-0.1 0.1,-0.2 0.1,-0.3 -0.4,-0.7 -0.8,-1.3 -1.3,-1.9 0,-0.1 0.1,-0.1 0.1,-0.1 0.4,0 -0.5,-0.7 -0.6,-0.8 0,0 0.1,0 0.1,0 0.3,-0.2 -0.4,-0.2 -0.2,-0.5 -0.3,-0.3 -0.6,-0.4 -0.9,-0.6 0.1,-0.1 0.3,0.1 0.3,-0.2 -0.4,-0.2 -0.8,-0.3 -1.1,-0.5 0.4,-0.5 -0.2,-0.2 -0.7,-0.2 0.1,-0.1 0.2,-0.2 0.2,-0.3 -0.5,0.2 -1,0.2 -1.5,0.1 0,0 -0.5,0 -0.5,-0.1 -1,-0.3 -2.2,-0.1 -3.2,0.2 -0.5,0 -0.8,0.3 -1.3,0.4 0.2,-0.2 -0.2,-0.1 -0.3,0 -0.8,0.3 -2.5,1.2 -3.3,1 0,0 0,-0.1 0,-0.1 -0.3,0.1 -0.7,0.1 -1,0 -0.2,-0.2 -0.6,0 -0.6,-0.1 0.3,-0.3 -0.6,-0.1 -0.8,-0.2 0,0 0.1,-0.1 0.1,-0.1 -0.3,-0.3 -1.6,0 -2.2,-0.3 0,0 0.1,0 0.1,0 0.5,-0.4 -1.7,-0.4 -1.9,-0.4 0.1,0 0.1,-0.1 0.1,-0.2 -0.4,-0.1 -0.8,-0.1 -1.1,0 0.5,-0.7 0.7,-1.7 0.5,-2.5 -0.1,-0.4 0.1,-1.8 -0.7,-1.6 -1,0.8 -2.1,1.1 -2.9,2 -0.1,0.2 -1.2,0.1 -1.4,0 l -0.4,-0.7 c -0.3,-0.6 -0.9,-1 -1.2,-1.7 -0.3,-0.3 -0.5,-0.9 -1,-0.9 -0.6,0.6 -0.6,1.8 -0.5,2.6 0.1,0.6 -0.2,1.1 -0.1,1.6 0.1,0.2 0.3,0.7 0,0.8 -0.4,0.5 -0.2,1 -0.2,1.6 -0.2,0.4 0.1,1.3 0.1,1.3 -0.7,0.6 -1,0.9 -1.5,1.5 -0.2,0.2 0.3,1.4 0.8,1 0.4,0.2 2.3,0.1 2.6,-0.2 0.4,-0.1 1.2,0.7 1.3,1.1 -0.1,0.5 0.5,0.7 0.6,1.2 0.2,0.1 0.5,0.1 0.6,0.3 -0.1,0.1 -0.1,-0.1 -0.2,0 0,0.1 0.5,0.5 0.6,0.7 0.3,1.2 1.5,1.7 2.5,2.2 0.3,0.1 0.2,0.5 0.3,0.7 0.7,2 -0.2,4.5 -0.3,6.6 -0.2,0.7 -0.2,1.6 -1,2 -0.4,0.2 -0.7,-0.3 -1.1,-0.1 -0.3,0.2 -0.4,0.5 -0.4,0.9 0.4,0.5 1,0.6 1.5,0.6 0.1,0 0.1,-0.1 0.1,-0.1 0.6,0.3 0.7,-0.2 1.2,-0.2 0.1,0.3 0.7,-0.9 0.8,-1.1 0.5,-0.6 0.5,-1.4 0.7,-2.1 0.3,-1.2 0.5,-2.4 0.9,-3.6 0.4,-0.9 0,-1.8 0.4,-2.7 2.9,0.8 1.6,4.7 2,6.7 0.1,0.4 0.2,1 -0.1,1.4 0,0 0,0 0,-0.1 -0.2,0 -0.7,0.3 -0.8,0.5 -0.1,0.2 0.1,1.1 0.5,0.7 0.2,0.3 1.5,0.3 1.8,0.1 0,-0.3 0.3,-0.5 0.4,-0.8 0.1,-0.6 0.1,-1.2 0.2,-1.8 -0.5,-1.7 0.1,-4.9 0.6,-6.6 0.2,-0.1 0.4,-0.4 0.7,-0.4 -0.1,0.1 -0.1,0.1 0,0.2 0.3,0 0.5,-0.3 0.7,-0.2 0,0.3 0.3,-0.2 0.4,0.1 0.1,0 0.3,-0.1 0.4,-0.2 l 0.6,-0.2 c 0.1,0 0.2,-0.1 0.3,-0.1 0,0.1 -0.1,0.1 -0.1,0.1 0.2,-0.2 0.1,0.6 0.1,0.6 -0.1,0.4 0.3,0.7 0.2,1.1 0.2,0 0.2,0.3 0.2,0.4 0.1,0.7 0.7,0.9 1.1,1.3 1.1,1.1 -0.2,3.1 -0.3,4.3 l -0.1,0.1 c -0.3,0 -0.9,-0.2 -1.1,0.4 0.1,0.3 -0.2,0.5 -0.2,0.8 0,0.2 1.1,0.2 1.3,0.3 0.7,-0.2 0.9,-0.3 1.5,-0.8 0.3,-0.9 0.4,-1.8 0.6,-2.7 0.1,-0.5 0.6,-1.6 0.4,-2.1 -0.7,-0.6 -0.5,-2.6 0,-3.4 0.2,0.3 0.5,0.4 0.6,0.7 0,0.2 0.7,1.4 1,1.2 1.1,1.9 0.4,3.8 -0.9,5.4 0.3,0.1 -0.6,0.5 -0.7,0.6 0,0 0,0 0,0 -1.5,1.2 0.3,2.4 1.1,1.1 0,0 0,-0.4 0.3,-0.2 0.5,0.1 0.7,-0.9 1,-1 0.4,-0.9 0.6,-1.9 1.1,-2.7 0.3,-0.8 0.8,-1.5 1,-2.3 -0.1,-0.7 -0.8,-1 -0.8,-1.6 0,-0.8 0,-1.6 0.5,-2.2 0.1,-0.3 0.3,-0.2 0.2,-0.5 0.4,0.1 0.1,-0.4 0.4,-0.4 0.1,0 0.3,0 0.3,-0.1 0,0 -0.1,0 -0.1,-0.1 0.2,-0.1 0.4,-0.2 0.5,-0.3 -0.1,0 -0.2,0 -0.2,-0.1 0.1,-0.1 0.3,-0.2 0.3,-0.3 -0.3,-0.2 -0.3,-0.3 0.2,-0.5 0,0.3 0,0.6 0,0.9 0.1,0 0.2,-0.2 0.3,-0.2 0.1,0.5 0.2,1.8 0.6,2.2 v -0.3 c 0.2,0.5 0.3,1.1 0.6,1.6 0.1,-0.1 0.1,-0.3 0.1,-0.5 0.1,0.2 0.7,1.6 1,1.2 0.2,0.3 0.4,0.6 0.7,0.8 0.1,-0.1 0,-0.1 0,-0.2 0.3,0.3 0.5,0.6 0.9,0.8 0,-0.1 -0.1,-0.4 0,-0.4 0.3,0.4 0.7,0.8 1,1.2 0.2,0.1 0.1,-0.3 0.1,-0.4 0.4,0 0.5,0.4 0.9,0.4 0,-0.2 -0.1,-0.3 -0.1,-0.4 0.5,0.2 0.9,0.4 1.4,0.5 0,-0.1 0,-0.1 -0.1,-0.2 0.2,0 0.5,0.1 0.8,0.1 0.1,-0.1 -0.1,-0.2 -0.1,-0.3 0.6,0 2.2,0.2 2.6,-0.3 0,-0.1 -0.1,-0.1 -0.2,-0.1 0.3,-0.2 0.6,-0.3 0.9,-0.4 0.1,-0.5 0.6,-0.1 0.8,-0.6 0.1,-0.1 -0.1,-0.1 -0.2,-0.2 0.1,-0.1 0.3,-0.2 0.5,-0.4"
   id="path300" />
<path
   class="st0"
   d="m 155.7191,157.9 h -1.2 v -0.7 h 3.3 v 0.7 h -1.3 v 3.4 h -0.7 m 2.9,-4.1 h 1.2 l 1.1,2.8 1.1,-2.8 h 1.2 v 4.1 h -0.8 v -3.1 0 l -1.2,3.1 h -0.6 l -1.2,-3.1 v 0 3.1 h -0.7 v -4.1 z"
   id="path302" />
<path
   class="st0"
   d="m 174.6191,53.3 v 0 c 0,0 -0.8,-3.3 -1.1,-3.9 -0.2,-0.6 -1.8,-3.8 -2.1,-4.5 -0.3,-0.7 -0.2,-1.2 -1.6,-2.8 -0.1,-0.1 -0.2,-0.2 -0.3,-0.4 -1.2,-2.2 -4.2,-5.7 -6.5,-6.4 0,0 0,0 0,0 0,0 -0.3,-0.1 -0.7,-0.2 -0.3,-0.1 -0.8,-0.2 -1.1,-0.2 -2.8,-2.2 -7,-3.9 -9.3,-4.1 -2.4,-0.1 -3.8,1.4 -4.5,2.5 -0.1,0.1 -0.3,0.4 -0.4,0.7 -0.1,0.3 -0.2,0.4 -0.3,0.6 -0.1,0.2 -0.2,0.3 -0.2,0.4 -0.1,0.2 -0.1,0.4 -0.1,0.5 0,0 0,0.1 0,0.2 0,1.7 1.2,2.9 1.5,3.2 0.4,0.4 0.8,0.2 0.5,-0.1 -1,-1.8 0.5,-2.5 0.8,-2.7 0,0 0.1,-0.1 0.1,-0.1 l 0.2,-0.1 h 0.2 l 0.1,0.2 c -0.2,0.2 -1,0.9 -1.2,1.1 -0.2,0.2 -0.3,1 0.6,1 0.9,0 1.6,-0.1 2,-0.3 0.2,0 0.3,-0.1 0.5,-0.1 0,0 0,0 0,0 0.5,0.1 0.8,0.5 1,0.8 0,0 0.5,0.1 0.7,0.5 0,0.1 0,0.2 0,0.3 -0.1,1.6 1.3,4.1 3.1,4.9 0,0 0,0 0,0 0.3,0.1 0.6,0.3 0.8,0.6 0.2,0.2 0.1,0.3 0.1,0.8 0,0 0,0 0,0 0.1,0.8 0.4,2.7 0.8,3.7 -0.1,0 -0.2,0 -0.3,0 -0.3,-0.1 -0.6,-0.1 -0.6,-0.1 v 0 c -0.9,-0.2 -1.9,-0.1 -2.4,0.5 -0.5,0.7 0,1.7 0.6,1.8 0.6,0.2 0.7,-0.1 0.5,-0.3 -0.8,-0.9 0,-1.2 0.7,-1.3 -0.1,0.1 -0.1,0.1 -0.2,0.3 -0.2,0.3 -0.4,1.2 0.4,1.6 0.2,0.1 0.5,-0.2 0.2,-0.4 -0.3,-0.1 -0.1,-1 0.2,-1.2 0.2,-0.1 0.3,-0.3 0.3,-0.3 0.1,0 0.1,0 0.2,0 0.2,0 0.2,0 0.5,0 0.1,0 0.2,-0.1 0.3,-0.1 0,0 0.1,0.1 0.1,0.1 0.3,0.2 1.2,0.6 1.2,-0.7 0.5,-0.1 0.9,-1 0.9,-1.7 0.2,0.1 0.4,0.2 0.6,0.3 0,0.4 0,1.1 0.2,1.5 -0.5,0 -0.9,0.4 -1.1,0.6 -0.2,0.2 -0.1,0.6 0.2,0.4 0.4,-0.1 1.4,-0.1 1.4,1.5 -0.1,0.4 0.4,0.4 0.5,0.1 0.1,-0.4 0.3,-0.6 0.1,-1.1 0.2,0.1 0.6,0 0.4,-0.5 0.2,-0.2 0.7,-0.6 0.7,-1.4 0,0 0.2,-0.5 0.2,-0.8 0.2,0.1 0.4,0.1 0.6,0.2 -0.2,3.1 -0.1,9.4 0.4,12.2 0.1,0.7 0.6,0.5 0.5,-0.3 -0.1,-0.6 0.3,-3.5 0.4,-4.6 0,-0.2 0.1,-0.4 0.1,-0.6 0,5.6 0.6,13 4.2,16.6 0.5,0.5 0.8,0.1 0.4,-0.4 -1,-1.5 -1.8,-7 -1.3,-11.1 0.2,5.1 1,10.4 3.7,12.3 0.3,0.2 0.4,-0.2 0.2,-0.6 -3.8,-6.5 -3,-17.1 -2.8,-20.5 1.8,1.1 3.4,2.3 4.1,3.2 0.3,-0.4 0.3,-0.9 0.1,-1.3"
   id="path304" />
<path
   class="st1"
   d="m 83.519101,71.6 c 0.7,0.1 1.4,0.5 2.2,0.5 3.5,0.1 8,-1.7 11.3,-0.2 1.5,0.7 3.499999,3.2 4.799999,4.8 1,1.2 3.9,3.9 4,5.7 0.1,2.5 -3.5,4.3 -4.2,6.2 0.9,3.6 0.1,10 -1.2,12.8 -0.3,0.6 -0.899999,1.1 -1.199999,1.7 -0.6,1.3 -0.9,2.8 -1.5,4.5 -0.5,1.2 -1.7,3.7 -1.5,4.7 0.2,0.9 1.3,0.9 2,1.7 0.9,1 1.2,2.4 0.7,4 0.7,0.9 1.899999,3.2 1.499999,3.3 -0.4,0.1 -2.499999,-2.1 -3.399999,-3.5 -0.8,-1.4 -1.3,-3.1 -1.6,-4.8 -0.9,3.2 -0.5,7.1 -1.5,9.8 0.8,0.5 1.3,2.1 0.8,3.3 -1.7,0.7 -5,0.7 -5.7,-0.5 -0.4,-0.7 0.6,-2.2 1.2,-4 0.4,-1.2 0.9,-3.4 0.7,-3.6 -1,-1 -1.3,-2.6 -1.8,-4 -0.4,2 -1.3,5.4 -1.1,8 0.2,3.7 1.4,6.8 1.2,7.2 -0.4,0.8 -3.1,1.2 -5.1,1 -1.9,-0.2 -3.5,-0.9 -3.6,-1.1 -0.3,-0.4 0.4,-1.1 0.2,-2 -4.4,0.4 -7.9,-2.9 -6.2,-6.6 -0.2,-0.5 -0.2,-0.9 -0.5,-1.5 1,-8.2 -0.6,-15.5 0.7,-21.4 -0.8,-1.3 -3.1,-1.2 -4.2,-1.3 -1.1,-0.1 -3.2,-1.5 -4.3,-2.7 -0.3,-0.3 -0.3,-0.9 -0.7,-1.3 -0.2,-0.2 -0.7,-0.4 -1,-0.7 -1,-0.9 -2.1,-1.6 -3,-2.5 -1.3,-1.2 -3.8,-4.3 -3.3,-6.5 0.2,-0.9 2.4,-3 3.2,-3.8 3.4,-3.7 7.2,-7 13.3,-6.5 0.6,0.1 0.8,-0.2 1.5,-0.2 2.6,-0.2 3.9,-0.8 7.3,-0.5 m -1.9,39.1 c -0.5,-0.1 -0.5,0.2 -0.9,0.2 -0.2,4 -1.6,8.2 1.1,10.6 1.4,-3.4 2.2,-7.9 -0.2,-10.8 m 16.4,4.3 c -0.4,0.7 0.4,1.6 0.7,2.2 0.4,-0.8 -0.5,-1.5 -0.7,-2.2"
   id="path306" />
<path
   class="st0"
   d="m 37.919101,44.8 c 0.2,-0.3 0.6,-0.6 1,-0.8 0.3,0 0.5,0.3 0.5,0.5 -0.2,0.5 0.2,0.7 0.6,0.8 2,0.4 3.3,3.9 3.7,4.1 0.1,0.1 0.5,0.8 0.1,1.2 -0.6,0.6 -0.8,1 -0.9,1.2 -0.1,0.2 -0.3,0.6 -0.5,0.7 0.2,-0.2 -0.6,0.6 -0.7,0.7 -0.1,0.1 -0.3,0.2 -0.5,0.3 -0.1,0.1 -0.2,0.1 -0.4,0.1 -0.5,0.1 -0.6,-0.1 -1,-0.3 -0.3,-0.2 -0.1,-0.4 -0.3,-0.6 -0.1,-0.5 -0.7,-0.5 -0.9,-0.8 -1,0.1 -0.9,1.3 -1.2,2 -0.4,2 -0.3,4.1 -1,6 0,0 -0.1,0.1 -0.1,0.3 0,0.2 -0.5,1.2 -0.6,1.3 -0.1,0.1 -0.3,0.4 -0.4,0.7 -0.4,1.9 -1.2,3.7 -0.9,5.7 0.3,0.5 0.3,1.1 0.6,1.6 0.6,0.3 1.4,0.4 1.6,1.3 0.1,0.5 -0.2,0.9 -0.4,1.2 -0.2,0.3 -2.3,0.3 -2.6,0.2 -0.3,-0.1 -0.6,-0.6 -1,-0.4 -0.4,-0.1 -0.7,-0.5 -0.9,-0.9 0,-1.1 -0.1,-2.2 -0.9,-3 -0.1,-1.1 -0.2,-2.2 -0.7,-3.1 -0.3,-0.2 -1.2,0.4 -1.2,0.5 0.3,1.4 -1,2.5 -0.3,3.8 0.5,0.2 1,0.1 1.3,0.5 0.3,0.3 0.2,0.8 0.1,1.2 -0.2,0.6 -0.7,0.5 -1.2,0.5 -0.3,0 -0.7,0.2 -1,0.2 -0.3,0 -1.5,-0.4 -2.2,-0.5 -1.4,-1.2 -0.1,-3.4 -0.9,-4.8 -0.3,-0.9 0,-1.9 0,-3 -0.1,-0.4 -0.4,-0.3 -0.7,-0.3 -0.7,0.1 -0.8,0.9 -1.1,1.3 -1.6,2 -4,3.9 -3.2,6.9 0.2,0.7 0.1,1.7 1,1.9 0.4,-0.1 0.8,0 1.1,0.2 0.3,0.3 0.6,0.7 0.6,1.1 -0.2,0.6 -0.8,1.2 -1.2,1.3 -0.4,0.1 -2.7,0.2 -3.3,-0.8 -0.2,-0.2 -0.2,-0.5 -0.5,-0.5 -0.6,-1.1 -1.1,-2.4 -2.1,-3.3 -0.1,-0.3 -0.2,-0.8 0,-1.2 l 0.3,-0.4 c 0.5,-1.5 1.2,-3.6 0.1,-5.1 -0.7,0.5 -0.8,1.5 -1.4,2.2 -1.4,1.7 -3.2,2.4 -4.3999998,4.3 l -1.1,2.1 c -0.1,0.7 0.7,0.3 1,0.5 0.4999998,0.3 0.7999998,0.9 0.5999998,1.5 -0.3,0.1 -0.4,0.7 -0.8999998,0.4 -1,0.6 -2.2,0.2 -3.1,-0.1 -0.6,-0.2 -0.5,-0.9 -0.6,-1.5 l 0.1,-0.1 -0.1,-0.1 c 0.1,-0.3 0.1,-0.7 0.3,-1 -1.1,-0.1 -2.1,-0.4 -2.6,-1.4 -0.5,-1 -0.5,-2.6 0.3,-3.5 0.6,-0.5 1.1,-1.4 2,-0.8 0.8,0.6 0.2,1.8 0.3,2.6 0.2,0.1 0.4,0.3 0.6,0.2 1.2,-0.8 0.7,-2.5 1.1,-3.8 0.1,-1.6 0.2,-2.7 0.5,-4.3 0.1,-1.5 0.7,-2.7 1.5,-3.8 2.8999998,-4 7.5999998,-5 11.7999998,-7 0.7,-0.3 2.2,-0.3 2.4,-0.2 0.2,0.1 0.5,0 0.8,0 0.9,0.2 2,0.1 2.8,-0.2 1.2,-1.5 3.3,-1.6 4.4,-3.2 1.1,-1 2.5,-1.8 3.9,-2.2 0.2,-0.5 0.7,-0.8 1.2,-0.9 0.6,-0.1 0.6,0.4 0.8,0.8"
   id="path308" />
<path
   class="st0"
   d="m 74.819101,64.3 c -0.6,-0.3 -0.3,-1.1 -0.4,-1.8 -0.4,-0.2 -0.4,-1 -0.3,-1.5 h 0.2 c 0.5,0.7 1.1,2.3 0.5,3.3 m -25,-22.1 c 0.1,-0.8 0.4,-1.4 0.7,-1.8 -0.2,0.8 -0.2,1.8 -0.1,3 0,0.5 0.2,1 0.2,1.5 0,0.5 -0.1,0.9 -0.2,1.3 -0.7,-1.4 -0.8,-2.9 -0.6,-4 m 47.1,4.2 c -0.2,-0.1 -0.3,-0.5 -0.5,-0.7 -0.3,-0.3 -0.7,-0.4 -0.9,-0.7 -0.3,-0.4 -0.5,-1 -0.7,-1.4 -0.4,-0.8 -1,-1.8 0.1,-2 0.8,-0.2 1.1,-0.6 0.5,-0.7 -0.8,-0.2 -1.3,-0.5 -1.8,-0.8 0.8,-0.3 1.9,-0.7 2.7,-1.4 1.4,-1.1 1.8,-3.1 1.7,-3.1 -0.4,0 -0.9,0.9 -2.6,1.9 -1.7,1 -3.4,0.3 -3.4,0.3 0,0 0.2,-0.2 0.8,-0.9 0.4,-0.4 0.4,-1.3 0.2,-1.1 -1.7,1.5 -3,1.5 -3,1.5 -0.3,0 -0.5,0.1 -0.6,0.3 -0.2,0 -0.4,0.1 -0.5,0.2 -0.8,-0.4 -1.8,-0.4 -2.5,0.2 -0.2,-0.1 -0.9,-0.4 -2.4,-0.4 -0.4,-0.3 -0.4,-0.7 -1,-0.8 -0.6,0.5 -0.3,0.1 -1.1,0.2 -0.5,0 0,0 -1,0 -0.4,0 -0.1,0.2 -0.7,0.1 -0.9,-0.2 -0.4,0.5 -1,0 -0.4,-0.3 -1.3,0 -1.7,-0.4 -0.8,-0.6 -1.4,-1.1 -2.8,-0.6 -0.5,0.2 -2.6,0.2 -3,0.3 -0.3,0.1 -3.6,0.6 -3.1,0.5 -2.4,0.6 -4.4,0.6 -7.4,0.6 -1.3,0 -2.5,-0.4 -3.7,-0.6 -0.8,-0.1 -1.5,-0.4 -2.1,-0.5 -1.1,-0.1 -1.6,0.5 -2.2,1.1 -0.3,0 -4.1,0.8 -4.7,3.9 -0.3,1.5 0.3,4.5 1.1,7.2 0,0.1 0,0.2 0,0.3 0,1.1 0.4,2.1 0.4,3.2 0.2,0.1 0.4,0.1 0.7,0.2 0,0.1 0,0.2 0.1,0.2 -0.1,0.2 -0.4,0.5 -0.4,0.8 -0.1,0.4 0.2,0.6 0.2,0.8 0,0.2 -0.1,0.4 0,0.7 0.2,0.7 1,1.5 1.1,2.7 0,0.3 0,0.5 0,0.8 0.1,0.8 0.3,1.5 0.3,2.6 0,1.2 0,2.2 0.3,3.2 0.1,0.4 0,0.9 0.3,1.1 0.5,0.5 1.2,0.3 1.9,0.5 0.1,-0.4 0.1,-0.4 0.1,-0.9 0.2,0.1 0.1,0.5 0.4,0.6 2.1,0.2 0.7,-1.7 0,-2.5 0.2,-1 -0.9,-1.5 -1.1,-2.4 -0.2,-0.8 -0.2,-2 -0.3,-3.1 -0.1,-1 -0.2,-1.9 0,-3.1 0.3,-0.1 0.6,-0.1 1,-0.1 0.3,0.3 0.5,0.8 0.7,1.3 0.2,0.4 0.5,0.9 0.5,1.3 0,0.2 0,0.5 0,0.7 0,0.2 0.2,0.4 0.3,0.6 0.2,0.9 -0.2,2.1 0.3,3 0.2,0.1 0.5,0.1 0.7,0.2 0.2,0.3 -0.2,0.6 -0.3,0.9 0.1,1.1 1.5,0.9 2.7,0.9 0.2,-0.3 -0.1,-0.5 -0.1,-0.8 0.4,0.1 0.7,0.7 1.2,0.3 -0.4,-0.9 -1.1,-1.6 -1.8,-2.2 -0.6,-1.9 -1.7,-4.2 -1.4,-6.6 0,0 3,-0.4 4.3,0 0.8,0.2 2.9,0.5 3.2,0.6 2.2,0.4 4.1,1.2 6.3,1.4 0.5,0.5 0,1.3 0.1,2 0.1,1.3 1,2.8 0.9,4.3 0,0.9 -0.3,1.9 -0.4,2.5 0,0.3 0.4,0.7 0.5,1.1 0.1,0.3 -0.1,0.7 -0.1,0.9 0.2,1 1.5,1.2 2.7,1.2 0.2,-0.2 0.2,-0.7 0.3,-0.9 0.3,0 0.8,0.5 1.3,0.2 0,-0.6 -0.4,-0.9 -0.5,-1.4 0.6,0.2 1.4,0.9 2.2,0.5 0.2,-0.2 0.1,-0.4 0,-0.7 0.2,-0.1 0.8,0.3 1,0 -0.2,-0.8 -1.2,-1.1 -1.8,-1.7 -0.4,-0.5 -0.7,-1.1 -0.8,-1.8 -0.2,-0.2 -0.3,-0.5 -0.5,-0.5 -0.4,-1.2 -0.4,-2.4 -0.3,-3.5 0.1,-0.1 0.3,-0.2 0.6,-0.3 0.5,-0.4 1.2,-0.4 1.6,-0.9 0.2,-0.2 0.5,-0.4 0.6,-0.6 0.2,-0.2 0.5,-0.3 0.6,-0.5 0.1,-0.2 0.1,-0.4 0.3,-0.6 0.4,-0.6 2,-1.8 1.3,-1.7 0.8,-0.1 1.1,-0.1 1.7,-0.6 0.7,-0.7 1.8,-0.4 2.5,-0.9 0.3,-0.2 0.3,0.1 0.5,-0.2 0.5,-0.6 1.3,-0.9 1.5,-1.5 0.8,0.1 1.3,0.3 2,0.3 0.8,0 1.4,-0.6 2,-0.6 0.5,0 0.9,0.5 1.3,0.7 1.3,-0.5 1.8,1 3,0.4 0.3,-0.1 0.4,-0.5 0.6,-0.7 0.3,-0.2 0.6,-0.2 0.9,-0.5 -0.1,-1.4 1.6,-2.1 0.5,-3.3 0,0.1 -0.2,0.1 -0.4,-0.1"
   id="path310" />
<rect
   x="285.71912"
   y="110.8"
   class="st0"
   width="4.5"
   height="22.4"
   id="rect312" />
<polyline
   class="st0"
   points="315.8,341 321.3,341 329.8,357.7 329.9,357.7 329.9,341 334.2,341 334.2,363.3 328.7,363.3   320.1,346.6 320.1,346.6 320.1,363.3 315.8,363.3 "
   id="polyline314"
   transform="translate(-20.480899,-230.2)" />
<polyline
   class="st0"
   points="343.8,344.5 337.4,344.5 337.4,341 354.7,341 354.7,344.5 348.3,344.5 348.3,363.3 343.8,363.3 "
   id="polyline316"
   transform="translate(-20.480899,-230.2)" />
<polyline
   class="st0"
   points="358,341 371.3,341 371.3,344.5 362.5,344.5 362.5,350 370.5,350 370.5,353.5 362.5,353.5 362.5,359.8   371.3,359.8 371.3,363.3 358,363.3 "
   id="polyline318"
   transform="translate(-20.480899,-230.2)" />
<path
   class="st0"
   d="m 355.5191,110.8 h 4.8 c 4.8,0 10.6,-0.2 10.6,6.1 0,2.6 -1.8,4.8 -4.6,5.2 v 0.1 c 1.2,0.1 1.9,1.3 2.4,2.3 l 3.6,8.8 h -5 l -2.7,-7 c -0.6,-1.7 -1.2,-2.3 -3.1,-2.3 h -1.4 v 9.3 h -4.6 m 4.5,-13 h 1.5 c 2.2,0 4.7,-0.3 4.7,-3.1 0,-2.7 -2.5,-2.9 -4.7,-2.9 h -1.5 z"
   id="path320" />
<polyline
   class="st0"
   points="396.3,341 401.8,341 410.3,357.7 410.4,357.7 410.4,341 414.7,341 414.7,363.3 409.2,363.3   400.6,346.6 400.6,346.6 400.6,363.3 396.3,363.3 "
   id="polyline322"
   transform="translate(-20.480899,-230.2)" />
<path
   class="st0"
   d="m 406.1191,110.8 h 5.1 l 8.8,22.4 h -5 l -1.9,-5.1 h -9.1 l -2,5.1 h -4.6 m 11.2,-17.9 v 0 l -3.3,9.2 h 6.5 z"
   id="path324" />
<polyline
   class="st0"
   points="445.4,344.5 439,344.5 439,341 456.3,341 456.3,344.5 449.9,344.5 449.9,363.3 445.4,363.3 "
   id="polyline326"
   transform="translate(-20.480899,-230.2)" />
<rect
   x="438.81909"
   y="110.8"
   class="st0"
   width="4.5"
   height="22.4"
   id="rect328" />
<path
   class="st0"
   d="m 458.5191,110.4 c 7,0 11,4.7 11,11.5 0,6.8 -3.9,11.6 -11,11.6 -7.2,0 -11,-4.8 -11,-11.6 0,-6.9 3.9,-11.5 11,-11.5 m 0,19.6 c 4.6,0 6.3,-4.1 6.3,-8.1 0,-3.9 -1.8,-8 -6.3,-8 -4.5,0 -6.3,4 -6.3,8 0,4 1.7,8.1 6.3,8.1"
   id="path330" />
<polyline
   class="st0"
   points="494.4,341 499.9,341 508.5,357.7 508.5,357.7 508.5,341 512.8,341 512.8,363.3 507.3,363.3   498.8,346.6 498.7,346.6 498.7,363.3 494.4,363.3 "
   id="polyline332"
   transform="translate(-20.480899,-230.2)" />
<path
   class="st0"
   d="m 504.2191,110.8 h 5.1 l 8.8,22.4 h -5 l -1.9,-5.1 h -9.1 l -2,5.1 h -4.6 m 11.2,-17.9 v 0 l -3.3,9.2 h 6.5 z"
   id="path334" />
<polyline
   class="st0"
   points="542,341 546.5,341 546.5,359.8 555.2,359.8 555.2,363.3 542,363.3 "
   id="polyline336"
   transform="translate(-20.480899,-230.2)" />
<polyline
   class="st0"
   points="237.6,298.9 245.7,298.9 245.7,310.5 255.3,310.5 255.3,298.9 263.3,298.9 263.3,329.2 255.3,329.2   255.3,316.3 245.7,316.3 245.7,329.2 237.6,329.2 "
   id="polyline338"
   transform="translate(-20.480899,-230.2)" />
<path
   class="st0"
   d="m 274.9191,87.5 c 0,8.3 -5.4,12 -13.3,12 -7.9,0 -13.3,-3.7 -13.3,-12 V 68.7 h 8.1 v 17.4 c 0,4 1.1,7.4 5.2,7.4 4.1,0 5.2,-3.4 5.2,-7.4 V 68.7 h 8.1"
   id="path340" />
<polyline
   class="st0"
   points="301.1,298.9 313.8,298.9 320.3,319.1 320.3,319.1 327.1,298.9 339.3,298.9 339.3,329.2 331.4,329.2   331.5,306 331.4,306 323.7,329.2 316.3,329.2 308.9,306 308.8,306 309,329.2 301.1,329.2 "
   id="polyline342"
   transform="translate(-20.480899,-230.2)" />
<path
   class="st0"
   d="m 333.2191,68.7 h 9.9 l 11.7,30.3 h -8.8 l -2.3,-6.5 h -11.4 l -2.4,6.5 h -8.2 m 16.5,-24 v 0 l -4,11.8 h 7.6 z"
   id="path344" />
<polyline
   class="st0"
   points="378.7,298.9 389,298.9 399.3,319.5 399.3,319.5 399.2,298.9 406.6,298.9 406.6,329.2 396.6,329.2   386,308.5 385.9,308.5 386.2,329.2 378.7,329.2 "
   id="polyline346"
   transform="translate(-20.480899,-230.2)" />
<polyline
   class="st0"
   points="412.5,298.9 433.8,298.9 433.8,304.7 420.6,304.7 420.6,310.9 433.1,310.9 433.1,316.6 420.6,316.6   420.6,323.5 434.3,323.5 434.3,329.2 412.5,329.2 "
   id="polyline348"
   transform="translate(-20.480899,-230.2)" />
<path
   class="st0"
   d="m 448.4191,74.3 c -1.9,-0.8 -4,-1.3 -6.2,-1.3 -2.1,0 -4.8,0.9 -4.8,4.2 0,5.3 13.3,3 13.3,13.2 0,6.6 -5.3,9.2 -11.4,9.2 -3.3,0 -4.8,-0.4 -7.8,-1.2 l 0.6,-5.5 c 2.1,1.1 4.5,1.9 6.9,1.9 2.3,0 5.4,-1.2 5.4,-3.9 0,-5.8 -13.3,-3.4 -13.3,-13.4 0,-6.8 5.3,-9.2 10.6,-9.2 2.6,0 5,0.3 7.2,1.1"
   id="path350" />
<path
   class="st0"
   d="m 468.3191,68.2 c 9.5,0 14.8,6.4 14.8,15.6 0,9.2 -5.3,15.7 -14.8,15.7 -9.7,0 -14.8,-6.5 -14.8,-15.7 -0.1,-9.3 5.1,-15.6 14.8,-15.6 m 0,26.6 c 6.2,0 8.5,-5.5 8.5,-11 0,-5.3 -2.5,-10.8 -8.5,-10.8 -6,0 -8.5,5.5 -8.5,10.8 0,5.5 2.3,11 8.5,11"
   id="path352" />
<path
   class="st0"
   d="m 509.7191,98.6 c -2.2,0.5 -4.6,1 -6.9,1 -9.8,0 -16.6,-4.9 -16.6,-15.1 0,-10.4 6.3,-16.2 16.6,-16.2 2,0 4.6,0.4 6.9,1.3 l -0.4,5.1 c -2.3,-1.3 -4.4,-1.6 -6.6,-1.6 -6.3,0 -10.2,4.8 -10.2,11 0,6.2 3.8,10.8 10.3,10.8 2.4,0 5.2,-0.5 6.6,-1.3"
   id="path354" />
<rect
   x="514.81909"
   y="68.699997"
   class="st0"
   width="6.0999999"
   height="30.299999"
   id="rect356" />
<polyline
   class="st0"
   points="547.1,298.9 565,298.9 565,303.7 553.2,303.7 553.2,311.2 564,311.2 564,315.9 553.2,315.9   553.2,324.5 565.1,324.5 565.1,329.2 547.1,329.2 "
   id="polyline358"
   transform="translate(-20.480899,-230.2)" />
<polyline
   class="st0"
   points="576.4,303.7 567.8,303.7 567.8,298.9 591.2,298.9 591.2,303.7 582.5,303.7 582.5,329.2 576.4,329.2   "
   id="polyline360"
   transform="translate(-20.480899,-230.2)" />
<polyline
   class="st0"
   points="603.6,317.3 592.6,298.9 599.7,298.9 606.9,311.6 614.1,298.9 620.6,298.9 609.7,317.3 609.7,329.2   603.6,329.2 "
   id="polyline362"
   transform="translate(-20.480899,-230.2)" />
</svg>
