<?xml version="1.0" encoding="UTF-8" standalone="no"?>
<svg
   xmlns:dc="http://purl.org/dc/elements/1.1/"
   xmlns:cc="http://creativecommons.org/ns#"
   xmlns:rdf="http://www.w3.org/1999/02/22-rdf-syntax-ns#"
   xmlns:svg="http://www.w3.org/2000/svg"
   xmlns="http://www.w3.org/2000/svg"
   xmlns:sodipodi="http://sodipodi.sourceforge.net/DTD/sodipodi-0.dtd"
   xmlns:inkscape="http://www.inkscape.org/namespaces/inkscape"
   version="1.1"
   id="layer"
   x="0px"
   y="0px"
   viewBox="0 0 599.94049 255.95587"
   xml:space="preserve"
   sodipodi:docname="nyk_group_.svg"
   width="599.94049"
   height="255.95587"
   inkscape:version="1.0.2-2 (e86c870879, 2021-01-15)"><metadata
   id="metadata495"><rdf:RDF><cc:Work
       rdf:about=""><dc:format>image/svg+xml</dc:format><dc:type
         rdf:resource="http://purl.org/dc/dcmitype/StillImage" /><dc:title></dc:title></cc:Work></rdf:RDF></metadata><defs
   id="defs493" /><sodipodi:namedview
   pagecolor="#ffffff"
   bordercolor="#666666"
   borderopacity="1"
   objecttolerance="10"
   gridtolerance="10"
   guidetolerance="10"
   inkscape:pageopacity="0"
   inkscape:pageshadow="2"
   inkscape:window-width="1366"
   inkscape:window-height="705"
   id="namedview491"
   showgrid="false"
   inkscape:zoom="0.82515337"
   inkscape:cx="300.2"
   inkscape:cy="126.15587"
   inkscape:window-x="-8"
   inkscape:window-y="-8"
   inkscape:window-maximized="1"
   inkscape:current-layer="layer" />
<style
   type="text/css"
   id="style482">
	.st0{fill:#003B90;}
</style>
<g
   id="g488"
   transform="translate(-25.8,-199.84413)">
	<g
   id="g486">
		<path
   class="st0"
   d="m 148.4,455.8 c -2.2,0 -5.7,-1.6 -7.6,-2.5 -4.7,-2.3 -5.9,-4.5 -9,-8.6 l -12.2,-16.3 h -0.2 v 16.8 c 0,3.7 0.1,6.5 2.8,9.1 v 0.2 h -12.3 v -0.2 c 2.8,-2.6 2.9,-5.4 2.9,-9.1 v -21.9 c 0,-4.9 -0.3,-6.6 -3.7,-10.4 v -0.2 h 13.2 v 0.2 l 19.5,25.6 V 422 c 0,-3.7 -0.1,-6.5 -2.8,-9.1 v -0.2 h 12.2 v 0.2 c -2.7,2.6 -2.8,5.4 -2.8,9.1 z m 35.3,-10.6 c 0,3.7 0.1,6.5 2.8,9.1 v 0.2 h -17.2 v -0.2 c 3.1,-2 2.7,-5.7 2.7,-9 v -9.8 l -9.5,-17.8 c -1.1,-2 -2.1,-3.8 -4,-4.9 v -0.2 h 14.8 v 0.2 l 7.4,15 3.6,-7.2 c 0.6,-1.1 1.5,-3.1 1.5,-4.4 0,-1.7 -0.6,-2.6 -2,-3.4 v -0.2 h 11.5 v 0.2 l -11.4,22.7 v 9.7 z m 56.5,4.8 c 1,1.7 2.2,3.2 3.7,4.3 v 0.2 c -14.7,0 -15.7,0 -19.9,-7.3 l -6.6,-11.4 v 9.5 c 0,3.3 -0.5,6.9 2.7,8.9 v 0.2 H 203 v -0.1 -0.1 c 3.1,-2 2.7,-5.6 2.7,-8.9 v -23.7 c 0,-3.4 0.4,-6.9 -2.7,-8.9 v -0.2 h 17.1 v 0.2 c -3.1,2 -2.7,5.6 -2.7,8.9 v 9.7 l 8,-10.1 c 1.1,-1.3 2.9,-3.2 2.9,-5.1 0,-1.7 -1.3,-2.7 -2.5,-3.4 v -0.2 h 15.6 v 0.2 l -14.1,16.8 z m 66.8,3.3 c -4.4,1.2 -9,2 -13.6,2 -13.2,0 -23.9,-7.5 -23.9,-21.6 0,-13.7 10.5,-22.1 23.7,-22.1 3.3,0 6.7,0.4 9.9,1.3 v 8.8 h -0.3 c -2.2,-2 -6.1,-3.4 -9.4,-3.4 -8.3,0 -11.8,5.8 -11.8,13.5 0,7.8 2.7,16.9 12,16.9 0.8,0 1.7,0 2.5,-0.2 v -9.4 c 0,-2.9 -0.1,-4.4 -2.4,-6.2 v -0.2 H 307 Z m 24.7,-7.9 c 0,3.3 -0.4,6.9 2.7,8.9 v 0.2 h -17.1 v -0.2 c 3.1,-2 2.7,-5.6 2.7,-8.9 v -23.7 c 0,-3.3 0.4,-6.9 -2.7,-8.9 v -0.2 h 18.8 c 3.1,0 5.7,-0.1 8.5,1.5 3.8,2 5.7,5.4 5.7,9.7 0,4.8 -3.4,8.3 -7.6,10.1 l 7.6,12.7 c 1.7,2.9 3.6,5.5 6.1,7.6 l -8.8,0.6 c -4.3,0.3 -6.3,-0.3 -8.5,-4.3 l -7.4,-13.9 z m 0,-26.6 v 14.4 c 3.9,-0.7 6.9,-4.1 6.9,-8.1 0,-2 -0.8,-4.2 -2.5,-5.4 -1.1,-0.8 -2.4,-0.9 -3.7,-0.9 z m 52.2,-7.2 c 13.4,0 23.2,7.8 23.2,21.8 0,13.9 -11,22 -23.9,22 -13,0 -23.2,-8.5 -23.2,-21.9 0,-13.6 11,-21.9 23.9,-21.9 m -8.6,31.9 c 1.8,3.1 5,5.5 8.6,5.5 3.4,0 6.4,-1.7 8.5,-4.5 1.9,-2.6 2.4,-5.8 2.4,-8.9 0,-7.2 -2.9,-17.6 -11.6,-17.6 -7.5,0 -10.8,7.2 -10.8,13.7 -0.1,3.7 1.1,8.6 2.9,11.8 m 66.2,5.8 c -2.5,3.6 -6.4,6 -11.1,6 -3.4,0 -6.8,-1.1 -9.3,-3.6 -2.8,-2.9 -3,-6 -3,-9.9 v -20 c 0,-3.3 0.4,-6.9 -2.7,-8.9 v -0.2 h 16.9 v 0.2 c -3.1,2 -2.7,5.6 -2.7,8.9 v 17.4 c 0,2.5 -0.1,4.9 1.4,7 0.9,1.3 2.5,2 4.1,2 5.8,0 6.2,-6.8 6.2,-11.1 v -15.3 c 0,-3.3 0.4,-6.9 -2.7,-8.9 v -0.2 h 17 v 0.2 c -3.1,2 -2.7,5.6 -2.7,8.9 v 23.7 c 0,3.3 -0.4,6.9 2.7,8.9 v 0.2 h -14.3 v -5.3 z m 50.9,-35.1 c -3.2,-1.6 -8.1,-1.5 -11.7,-1.5 h -15 v 0.2 c 3.1,2 2.7,5.6 2.7,8.9 v 23.7 c 0,3.3 0.4,6.9 -2.7,8.9 v 0.2 h 17 v -0.2 c -2.7,-2.5 -2.8,-5.4 -2.8,-9 v -8.7 c 10.4,0.8 19.5,-4.1 19.5,-12.8 -0.1,-4.4 -3.2,-7.8 -7,-9.7 m -12.5,20.1 V 419 c 6.2,-0.4 8.4,3 8.4,6.8 -0.1,5.5 -5.1,8.3 -8.4,8.5 m 13.3,-128 c 25.7,0 53.1,-3.2 73.6,-8.8 1.8,-0.5 1.6,0.7 1.3,1.7 -11.3,33.5 -71.4,50.3 -131.8,48.3 v 0.4 c 11.7,3.2 29.9,5 40.6,4.9 1.7,0 2,1 1.2,1.8 -18.6,19.7 -51.2,27.7 -84.6,28.5 -40.3,1 -86.3,-4.9 -131.8,8.6 l -0.3,-0.5 c 51.4,-30.2 125.2,-4.9 182.3,-32.6 -28.3,-4 -48.5,-10.6 -71.9,-20.7 l -0.1,-0.3 c 72.5,5.2 132.9,-2.7 157,-21.2 -40.8,5.3 -100.9,2.8 -139.2,-5.3 l -0.1,-0.3 C 468.3,311.1 541.3,278.6 569,243.4 520.6,267.5 386.1,289 281.6,302.1 178.7,314.7 97.3,339.9 28,416 h -2.2 c 71.7,-90.4 160,-119 327.8,-141.9 56.6,-7.7 199.2,-37.1 266.9,-72.6 5.1,-2.7 6.9,-2.8 3.5,5.1 -19,44.1 -71.9,84.6 -130.8,99.4 z m -198.1,24 C 223.2,322.6 154,341.4 101.8,369.5 l 0.4,1.1 c 46.3,-20.2 114.8,-32.2 156.6,-29 -22.8,13 -48.5,21.4 -84.9,24.6 l 0.1,0.2 c 5.5,0.4 10.9,0.6 16.3,0.7 2.7,1.5 5.3,3.7 6.2,5.4 -8.5,4.9 -19.8,6.7 -33.5,6.4 l 0.1,0.2 c 2.9,1 5.6,3 6.5,5 -4.2,3.2 -12.7,5.5 -22.9,6.4 l 0.1,0.2 c 16.1,2.4 28.9,-0.5 32.5,-5.4 -0.6,-1.4 -1.6,-2.7 -2.9,-3.8 12.9,0.9 27.4,-1.6 36.9,-9.4 -1.5,-1.9 -4,-4 -6.6,-5.3 33.7,-1.3 64.8,-10.5 88.4,-36.5"
   id="path484" />
	</g>
</g>
</svg>
