<?xml version="1.0" encoding="UTF-8" standalone="no"?>
<svg
   xmlns:dc="http://purl.org/dc/elements/1.1/"
   xmlns:cc="http://creativecommons.org/ns#"
   xmlns:rdf="http://www.w3.org/1999/02/22-rdf-syntax-ns#"
   xmlns:svg="http://www.w3.org/2000/svg"
   xmlns="http://www.w3.org/2000/svg"
   xmlns:sodipodi="http://sodipodi.sourceforge.net/DTD/sodipodi-0.dtd"
   xmlns:inkscape="http://www.inkscape.org/namespaces/inkscape"
   version="1.1"
   id="layer"
   x="0px"
   y="0px"
   viewBox="0 0 600.09998 252.60001"
   xml:space="preserve"
   sodipodi:docname="ready_steady_green_.svg"
   width="600.09998"
   height="252.60001"
   inkscape:version="1.0.2-2 (e86c870879, 2021-01-15)"><metadata
   id="metadata561"><rdf:RDF><cc:Work
       rdf:about=""><dc:format>image/svg+xml</dc:format><dc:type
         rdf:resource="http://purl.org/dc/dcmitype/StillImage" /><dc:title></dc:title></cc:Work></rdf:RDF></metadata><defs
   id="defs559" /><sodipodi:namedview
   pagecolor="#ffffff"
   bordercolor="#666666"
   borderopacity="1"
   objecttolerance="10"
   gridtolerance="10"
   guidetolerance="10"
   inkscape:pageopacity="0"
   inkscape:pageshadow="2"
   inkscape:window-width="714"
   inkscape:window-height="480"
   id="namedview557"
   showgrid="false"
   inkscape:zoom="0.82515337"
   inkscape:cx="300.7"
   inkscape:cy="125.5"
   inkscape:window-x="0"
   inkscape:window-y="0"
   inkscape:window-maximized="0"
   inkscape:current-layer="layer" />
<style
   type="text/css"
   id="style530">
	.st0{fill:#BABF10;}
	.st1{fill:#231815;}
</style>
<g
   id="g554"
   transform="translate(-25.3,-200.5)">
	<path
   class="st0"
   d="m 584.8,255.3 c 10.3,0 18.7,-8.3 18.7,-18.7 0,-10.3 -8.4,-18.7 -18.7,-18.7 -10.3,0 -18.7,8.4 -18.7,18.7 0.1,10.3 8.4,18.7 18.7,18.7"
   id="path532" />
	<path
   class="st0"
   d="m 606.7,255.3 c 10.3,0 18.7,-8.3 18.7,-18.7 0,-10.3 -8.4,-18.7 -18.7,-18.7 -10.3,0 -18.7,8.4 -18.7,18.7 0,10.3 8.4,18.7 18.7,18.7"
   id="path534" />
	<path
   class="st0"
   d="m 596,237.8 c 10.3,0 18.7,-8.4 18.7,-18.6 0,-10.3 -8.4,-18.7 -18.7,-18.7 -10.3,0 -18.7,8.4 -18.7,18.7 0,10.2 8.4,18.6 18.7,18.6"
   id="path536" />
	<path
   class="st0"
   d="m 254.8,255.3 c 10.3,0 18.7,-8.3 18.7,-18.7 0,-10.3 -8.4,-18.7 -18.7,-18.7 -10.3,0 -18.7,8.4 -18.7,18.7 0,10.3 8.4,18.7 18.7,18.7"
   id="path538" />
	<path
   class="st0"
   d="m 276.6,255.3 c 10.3,0 18.7,-8.3 18.7,-18.7 0,-10.3 -8.4,-18.7 -18.7,-18.7 -10.3,0 -18.7,8.4 -18.7,18.7 0.1,10.3 8.4,18.7 18.7,18.7"
   id="path540" />
	<path
   class="st0"
   d="m 266,237.8 c 10.3,0 18.7,-8.4 18.7,-18.6 0,-10.3 -8.4,-18.7 -18.7,-18.7 -10.3,0 -18.7,8.4 -18.7,18.7 0,10.2 8.3,18.6 18.7,18.6"
   id="path542" />
	<path
   class="st1"
   d="M 63.5,282.3 43.9,262.7 h 1.8 c 5.2,0 9.6,-1.8 13.2,-5.5 3.6,-3.7 5.5,-8.1 5.5,-13.2 0,-5.2 -1.8,-9.6 -5.5,-13.2 -3.7,-3.7 -8.1,-5.5 -13.3,-5.5 H 30 c -2.1,0 -3.1,1 -3.1,3.1 v 56.2 c 0,2.1 1,3.1 3.1,3.1 2.1,0 3.1,-1 3.1,-3.1 v -24.4 c 0.1,0.6 0.6,1.3 1.4,2 L 59,286.7 c 0.6,0.6 1.4,0.9 2.2,0.9 0.8,0 1.6,-0.3 2.2,-0.9 0.6,-0.7 1,-1.4 1,-2.2 0,-0.9 -0.4,-1.6 -0.9,-2.2 m -9.1,-29.6 c -2.5,2.5 -5.4,3.7 -8.9,3.7 h -8.8 c -2.2,0 -3.4,0.9 -3.7,2.6 v -27.6 h 12.5 c 3.4,0 6.4,1.2 8.9,3.7 2.4,2.5 3.7,5.4 3.7,8.9 0,3.4 -1.2,6.3 -3.7,8.7 m 52.7,28.7 H 79 v -21.9 h 21.9 c 2.1,0 3.1,-1 3.1,-3.1 0,-2.1 -1,-3.1 -3.1,-3.1 H 79 v -21.9 h 28.1 c 2.1,0 3.1,-1 3.1,-3.1 0,-2.1 -1,-3.1 -3.1,-3.1 H 75.9 c -0.8,0 -1.6,0.3 -2.2,1 -0.6,0.6 -0.9,1.3 -0.9,2.2 v 56.2 c 0,0.8 0.3,1.6 0.9,2.2 0.6,0.6 1.4,0.9 2.2,0.9 h 31.2 c 2.1,0 3.1,-1 3.1,-3.1 0,-2.2 -1,-3.2 -3.1,-3.2 m 69.4,1.7 -27.8,-55.7 c -0.7,-1.5 -1.8,-2.3 -3.1,-2.3 -1.3,0 -2.3,0.8 -3.1,2.3 L 114.7,283 c -0.3,0.5 -0.4,1 -0.4,1.5 0,0.8 0.3,1.5 1,2.1 0.7,0.6 1.4,0.9 2.3,0.9 1.2,0 2.1,-0.6 2.7,-1.7 l 8.6,-17.2 c 0.3,0.1 0.7,0.2 1.1,0.2 h 31.1 c 0.4,0 0.8,0 1.1,-0.2 l 8.6,17.2 c 0.6,1.1 1.5,1.7 2.7,1.7 0.9,0 1.6,-0.3 2.3,-0.9 0.7,-0.6 1,-1.3 1,-2.1 0.1,-0.4 0,-0.9 -0.3,-1.4 m -44.5,-20.4 13.6,-27.3 13.6,27.3 z m 95.1,-28.4 c -6.1,-6.1 -13.4,-9.1 -22,-9.1 h -18.7 c -0.9,0 -1.6,0.3 -2.2,1 -0.6,0.6 -0.9,1.3 -0.9,2.2 v 56.2 c 0,0.8 0.3,1.6 0.9,2.2 0.6,0.6 1.3,0.9 2.2,0.9 H 205 c 8.6,0 16,-3 22,-9.1 6.1,-6.1 9.1,-13.5 9.1,-22.1 0.1,-8.7 -2.9,-16.1 -9,-22.2 m -4.4,39.7 c -4.9,4.9 -10.8,7.3 -17.7,7.3 h -15.6 v -50 H 205 c 6.9,0 12.8,2.4 17.7,7.3 4.9,4.9 7.3,10.8 7.3,17.7 0,7 -2.5,12.9 -7.3,17.7"
   id="path544" />
	<path
   class="st1"
   d="m 289.5,226.1 c -0.7,-0.6 -1.4,-0.9 -2.3,-0.9 -0.9,0 -1.8,0.4 -2.4,1.2 l -19.3,24.9 -19.4,-24.9 c -0.7,-0.8 -1.5,-1.2 -2.4,-1.2 -0.8,0 -1.6,0.3 -2.3,0.9 -0.7,0.6 -1,1.4 -1,2.2 0,0.7 0.2,1.3 0.7,1.9 l 21.2,27.2 v 27 c 0,2.1 1,3.1 3.1,3.1 2.1,0 3.1,-1 3.1,-3.1 v -27 l 21.2,-27.2 c 0.5,-0.6 0.7,-1.2 0.7,-1.9 0.1,-0.9 -0.2,-1.6 -0.9,-2.2"
   id="path546" />
	<path
   class="st1"
   d="m 343.3,255.6 c -3.7,-3.6 -8.1,-5.5 -13.2,-5.5 -2.6,0 -4.8,-0.9 -6.6,-2.8 -1.8,-1.9 -2.7,-4.1 -2.7,-6.6 0,-2.6 0.9,-4.8 2.7,-6.6 1.9,-1.8 4.1,-2.8 6.6,-2.8 2.6,0 4.9,1 6.8,3.1 1.9,2.1 3.2,3.1 3.9,3.1 0.8,0 1.6,-0.3 2.3,-0.9 0.7,-0.6 1,-1.3 1,-2.1 0,-0.5 -0.1,-1.1 -0.5,-1.7 -1.3,-2.4 -3.1,-4.2 -5.7,-5.6 -2.5,-1.4 -5.1,-2.1 -7.8,-2.1 -4.3,0 -8,1.5 -11,4.6 -3,3 -4.6,6.7 -4.6,11 0,4.3 1.5,8 4.6,11 3,3.1 6.7,4.6 11,4.6 3.4,0 6.4,1.2 8.8,3.7 2.5,2.5 3.7,5.4 3.7,8.8 0,3.4 -1.2,6.4 -3.7,8.8 -2.5,2.4 -5.4,3.7 -8.8,3.7 -3.8,0 -6.9,-1.4 -9.3,-4.2 -0.7,-0.9 -1.2,-1.6 -1.5,-2.1 -0.8,-1.1 -1.7,-1.6 -2.5,-1.6 -0.9,0 -1.6,0.3 -2.3,0.9 -0.7,0.6 -1,1.3 -1,2.2 0,0.5 0.2,1 0.5,1.6 1.5,2.8 3.8,5.1 6.9,6.8 3,1.7 6.1,2.5 9.4,2.5 5.2,0 9.6,-1.8 13.2,-5.5 3.7,-3.7 5.5,-8.1 5.5,-13.2 -0.2,-5 -2,-9.4 -5.7,-13.1 m 50.2,-30.5 h -37.4 c -2.1,0 -3.1,1 -3.1,3.1 0,2.1 1,3.1 3.1,3.1 h 15.6 v 53.1 c 0,2.1 1,3.1 3.1,3.1 2.1,0 3.1,-1 3.1,-3.1 v -53.1 h 15.6 c 2.1,0 3.1,-1 3.1,-3.1 0.1,-2 -1,-3.1 -3.1,-3.1 m 43.8,56.3 H 409.2 V 259.5 H 431 c 2.1,0 3.1,-1 3.1,-3.1 0,-2.1 -1,-3.1 -3.1,-3.1 h -21.9 v -21.9 h 28.1 c 2.1,0 3.1,-1 3.1,-3.1 0,-2.1 -1,-3.1 -3.1,-3.1 h -31.3 c -0.8,0 -1.6,0.3 -2.2,1 -0.6,0.6 -0.9,1.3 -0.9,2.2 v 56.2 c 0,0.8 0.3,1.6 0.9,2.2 0.6,0.6 1.4,0.9 2.2,0.9 h 31.3 c 2,0 3.1,-1 3.1,-3.1 0.1,-2.2 -0.9,-3.2 -3,-3.2 m 69.4,1.7 -27.8,-55.7 c -0.8,-1.5 -1.8,-2.3 -3.1,-2.3 -1.3,0 -2.3,0.8 -3.1,2.3 L 445,283.1 c -0.3,0.5 -0.4,1 -0.4,1.5 0,0.8 0.3,1.5 1,2.1 0.7,0.6 1.4,0.9 2.3,0.9 1.2,0 2.1,-0.6 2.7,-1.7 l 8.6,-17.2 c 0.3,0.1 0.7,0.2 1.1,0.2 h 31.1 c 0.4,0 0.7,0 1.1,-0.2 l 8.6,17.2 c 0.6,1.1 1.5,1.7 2.7,1.7 0.8,0 1.6,-0.3 2.2,-0.9 0.7,-0.6 1,-1.3 1,-2.1 0.1,-0.5 0,-1 -0.3,-1.5 m -44.5,-20.4 13.6,-27.3 13.6,27.3 z m 95.1,-28.4 c -6.1,-6.1 -13.4,-9.1 -22,-9.1 h -18.7 c -0.8,0 -1.6,0.3 -2.2,1 -0.6,0.6 -0.9,1.3 -0.9,2.2 v 56.2 c 0,0.8 0.3,1.6 0.9,2.2 0.6,0.6 1.4,0.9 2.2,0.9 h 18.7 c 8.6,0 16,-3 22,-9.1 6.1,-6.1 9.2,-13.5 9.2,-22.1 -0.1,-8.7 -3.1,-16.1 -9.2,-22.2 m -4.4,39.7 c -4.9,4.9 -10.8,7.3 -17.7,7.3 h -15.6 v -50 h 15.6 c 6.9,0 12.8,2.4 17.7,7.3 4.9,4.9 7.3,10.8 7.3,17.7 0,7 -2.5,12.9 -7.3,17.7"
   id="path548" />
	<path
   class="st1"
   d="m 619.7,226.1 c -0.7,-0.6 -1.4,-0.9 -2.3,-0.9 -0.9,0 -1.8,0.4 -2.4,1.2 l -19.3,24.9 -19.4,-24.9 c -0.7,-0.8 -1.5,-1.2 -2.4,-1.2 -0.8,0 -1.6,0.3 -2.3,0.9 -0.7,0.6 -1,1.4 -1,2.2 0,0.7 0.2,1.3 0.7,1.9 l 21.2,27.2 v 27 c 0,2.1 1,3.1 3.1,3.1 2.1,0 3.1,-1 3.1,-3.1 v -27 l 21.2,-27.2 c 0.5,-0.6 0.7,-1.2 0.7,-1.9 0.1,-0.9 -0.2,-1.6 -0.9,-2.2"
   id="path550" />
	<path
   class="st0"
   d="m 144.8,333.3 c -5.6,-6.3 -13.1,-11.4 -22.5,-15.2 -9,-3.5 -18,-5.3 -26.9,-5.3 -19.3,0 -35.8,6.8 -49.5,20.5 -13.7,13.7 -20.6,30.2 -20.6,49.5 0,19.4 6.8,35.9 20.5,49.6 13.8,13.7 30.3,20.6 49.6,20.6 8.4,0 18.5,-2.3 30.4,-6.9 14.1,-5.5 21.2,-11.6 21.2,-18.5 V 383 c 0,-4.6 -2.3,-6.9 -7,-6.9 -4.7,0 -7,2.3 -7,6.9 v 41.7 c -10.6,9.6 -23.1,14.4 -37.6,14.4 -15.5,0 -28.7,-5.5 -39.7,-16.4 -11,-11 -16.5,-24.2 -16.5,-39.7 0,-15.4 5.5,-28.6 16.4,-39.6 10.9,-11 24.1,-16.4 39.6,-16.4 8.1,0 15.2,1.4 21.4,4.3 4.6,2.1 10.7,6.2 18.2,12.2 1.8,1.5 3.4,2.2 4.8,2.2 1.9,0 3.6,-0.7 5.1,-2.2 1.4,-1.5 2.2,-3.1 2.2,-5.1 0.1,-1.8 -0.6,-3.4 -2.1,-5.1 m 107.6,107.7 -44,-44.1 4,0.1 c 11.6,0 21.5,-4.1 29.7,-12.4 8.2,-8.2 12.3,-18.1 12.3,-29.7 0,-11.6 -4.1,-21.5 -12.3,-29.7 -8.2,-8.3 -18.1,-12.3 -29.7,-12.3 h -35.1 c -4.6,0 -6.9,2.3 -6.9,6.9 V 446 c 0,4.7 2.3,7 7,7 4.7,0 7,-2.3 7,-7 v -54.7 c 0.2,1.3 1.3,2.8 3.1,4.5 l 55.1,55 c 1.5,1.4 3.1,2.1 4.9,2.1 1.9,0 3.5,-0.7 4.9,-2.1 1.4,-1.5 2.1,-3.1 2.1,-4.9 -0.1,-1.8 -0.8,-3.4 -2.1,-4.9 m -20.2,-66.2 c -5.5,5.5 -12.1,8.2 -19.9,8.2 h -19.7 c -4.9,0 -7.7,1.9 -8.3,5.8 v -62 h 28 c 7.7,0 14.3,2.8 19.9,8.3 5.5,5.5 8.3,12.1 8.3,19.9 -0.1,7.7 -2.8,14.3 -8.3,19.8 M 350.3,439 h -63.1 v -49.1 h 49 c 4.7,0 7.1,-2.3 7.1,-7 0,-4.6 -2.4,-6.9 -7.1,-6.9 h -49 v -49.1 h 63.1 c 4.6,0 6.9,-2.3 6.9,-6.9 0,-4.7 -2.3,-7 -6.9,-7 h -70.1 c -1.9,0 -3.5,0.7 -4.9,2.1 -1.4,1.4 -2.1,3.1 -2.1,4.9 v 126.1 c 0,1.8 0.7,3.5 2.1,4.9 1.4,1.4 3.1,2.1 4.9,2.1 h 70.1 c 4.6,0 6.9,-2.3 6.9,-7 0.1,-4.8 -2.3,-7.1 -6.9,-7.1 m 102.8,0 H 390 v -49.1 h 49 c 4.7,0 7.1,-2.3 7.1,-7 0,-4.6 -2.4,-6.9 -7.1,-6.9 H 389.9 V 326.9 H 453 c 4.6,0 7,-2.3 7,-6.9 0,-4.7 -2.3,-7 -7,-7 h -70 c -1.9,0 -3.5,0.7 -4.9,2.1 -1.4,1.4 -2.1,3.1 -2.1,4.9 v 126.1 c 0,1.8 0.7,3.5 2.1,4.9 1.4,1.4 3,2.1 4.9,2.1 h 70.1 c 4.6,0 7,-2.3 7,-7 -0.1,-4.8 -2.4,-7.1 -7,-7.1 M 590.8,319.9 c 0,-4.7 -2.4,-7 -7,-7 -4.6,0 -6.9,2.4 -6.9,7 v 105.7 l -84.8,-109 c -1.9,-2.5 -4,-3.7 -6.2,-3.7 -4.8,0 -7.1,2.4 -7.1,7.1 v 126 c 0,4.7 2.3,7 7,7 4.7,0 7,-2.3 7,-7 V 340.2 l 84.8,109.1 c 2,2.4 4,3.6 6.2,3.6 4.8,0 7.2,-2.4 7.2,-7.1 V 319.9 Z"
   id="path552" />
</g>
</svg>
